<svg width="681" height="116" viewBox="0 0 681 116" fill="none" xmlns="http://www.w3.org/2000/svg">
<g filter="url(#filter0_d_73_4)">
<path d="M38.44 87.86H37.32C31.58 87.72 21.64 84.36 15.76 77.08C15.48 76.66 15.34 76.24 15.34 75.68C15.34 74.7 15.9 73.58 16.6 73.58C16.74 73.58 17.02 73.58 17.16 73.86C22.62 78.2 29.06 80.58 35.5 80.58C45.02 80.58 54.4 75.4 60 63.5C61.68 60.14 62.38 57.48 62.38 55.52C62.38 48.1 53 48.94 49.08 45.86C46.7 53.42 42.78 66.3 42.78 71.76C42.78 72.46 42.22 73.02 41.52 73.16H40.4C36.9 73.16 32.98 72.6 32.28 69.52C32.14 68.96 32.14 68.26 32.14 67.56C32.14 57.06 42.92 26.54 46.28 18.84C46.7 17.72 48.1 17.3 49.64 17.3C53.14 17.3 58.04 19.4 58.04 21.64L57.9 22.2L50.9 40.4L52.3 40.54C57.06 40.54 62.8 36.34 67 30.88C70.22 26.82 73.02 21.08 73.02 16.32C73.02 11.7 70.36 7.78 62.94 7.08L58.18 6.8C40.68 6.8 16.32 14.92 12.68 33.12C12.54 33.96 12.12 34.38 11.42 34.38L10.72 34.24C7.36 33.4 4 26.4 4 20.8C4 18.56 4.56 16.46 5.96 15.34C18.7 4.27999 34.52 0.359995 50.76 0.359995H52.44C65.18 0.359995 83.1 4.27999 83.1 19.68V19.82C82.96 31.58 74.14 42.64 63.22 46.56C70.08 49.22 73.02 54.12 73.02 59.72C73.02 63.08 71.9 66.72 70.08 70.5C64.48 81.28 50.34 87.86 38.44 87.86ZM114.52 81H112.7C109.2 81 105.56 80.58 104.02 77.64C103.18 76.24 102.9 74.28 102.9 71.9C102.9 70.22 103.04 68.4 103.32 66.44C102.48 68.26 101.36 70.22 100.1 72.04C97.1602 76.8 93.6602 80.86 90.4402 81H88.6202C85.1202 81 81.4802 80.58 79.9402 77.64C79.1002 76.24 78.8202 74.28 78.8202 71.9C78.8202 68.96 79.3802 65.18 80.2202 61.4C82.3202 51.6 87.3602 37.74 89.4602 33.26C90.0202 32.14 91.2802 31.58 92.9602 31.58C96.3202 31.58 100.66 33.68 100.66 35.78L100.52 36.34C98.7002 40.82 89.6002 64.9 89.3202 74.98C89.3202 76.94 89.4602 78.2 90.1602 78.2C91.7002 78.2 94.3602 76.24 98.0002 70.36C100.94 65.74 104.16 58.74 107.94 48.52C109.9 42.22 112.14 36.34 113.54 33.26C113.96 32.14 115.36 31.58 117.04 31.58C120.4 31.58 124.74 33.54 124.74 35.78L124.6 36.34C122.78 40.82 113.68 64.9 113.4 74.98C113.4 76.94 113.54 78.2 114.38 78.2C116.2 78.06 118.72 75.12 121.38 71.06C125.3 65.04 129.36 56.5 131.74 51.32C132.02 50.62 132.58 50.48 133 50.48C133.14 50.48 133.42 50.48 133.7 50.62C134.12 50.9 134.4 51.32 134.4 51.74C134.4 52.02 134.4 52.16 134.26 52.44C131.6 58.18 127.54 66.86 123.34 73.16C120.26 77.64 117.18 80.86 114.52 81ZM138.839 81H137.579C129.319 81 125.399 75.68 125.399 69.66C125.399 66.44 126.519 63.08 128.619 60.14C129.319 59.16 130.439 58.74 131.559 58.74C134.779 58.74 138.839 61.68 138.839 63.64C138.839 63.92 138.699 64.34 138.279 64.62C136.039 66.44 134.079 71.34 134.079 74.28C134.079 75.4 134.359 76.1 134.919 76.52C135.199 76.8 135.479 76.8 135.759 76.8C136.599 76.8 137.579 76.1 138.279 75.26C140.239 72.74 140.799 69.24 140.799 65.32C140.799 58.6 139.119 50.76 139.119 44.6C139.119 43.62 139.119 42.64 139.259 41.66L134.219 52.58C133.939 53 133.379 53.28 132.959 53.28C132.679 53.28 132.539 53.28 132.259 53.14C131.979 53 131.559 52.86 131.559 52.16C131.559 51.88 131.559 51.46 131.699 51.18C132.819 48.66 140.099 31.58 142.759 31.58H153.119C153.959 31.58 154.519 32.14 154.519 32.84C154.519 33.12 154.519 33.54 154.239 33.82C151.719 37.6 150.879 41.38 150.879 45.02C150.879 50.9 152.839 56.78 152.839 62.8C152.839 64.2 152.699 65.6 152.419 67C151.719 70.22 150.879 72.74 149.619 74.7C151.439 72.74 154.379 68.96 156.619 65.6C158.999 61.82 161.659 57.2 164.459 51.18C164.739 50.62 165.159 50.48 165.719 50.48C165.859 50.48 166.139 50.48 166.419 50.62C166.839 50.9 167.119 51.32 167.119 51.88L166.979 52.44C164.459 57.76 161.659 62.94 158.719 67.42C156.619 70.64 154.519 73.44 152.139 76.1C147.939 80.72 143.039 81 138.839 81ZM185.928 107.18H185.368C182.288 107.18 178.228 105.64 176.968 102.28L176.828 100.88C176.828 95.14 180.048 80.44 182.848 69.8C179.768 74.28 175.848 78.34 171.228 78.34H170.948C164.228 78.2 161.428 72.6 161.428 65.32C161.428 51.46 171.508 31.72 185.368 31.72H185.508C188.868 31.72 191.808 32.84 193.488 35.36C193.768 34.52 194.328 33.12 194.748 32.7C195.728 32 196.988 31.58 198.248 31.58C201.888 31.58 206.088 34.1 206.088 35.92L205.948 36.48C204.688 39.42 198.248 59.72 194.888 71.2C204.548 68.96 209.868 60.98 214.068 51.32C214.348 50.76 214.908 50.48 215.468 50.48L216.028 50.62C216.448 50.9 216.868 51.32 216.868 51.88L216.728 52.44C212.388 62.1 206.928 70.22 197.688 73.3C199.928 74.98 200.768 77.64 200.768 80.72C200.768 82.82 200.488 84.92 199.928 87.02C198.528 93.6 194.188 106.76 185.928 107.18ZM187.328 104.1C192.788 102.14 196.148 91.5 197.268 86.46C197.688 84.78 198.108 82.82 198.108 80.86C198.108 78.06 197.128 75.54 193.908 74.56C191.108 84.64 187.748 97.94 187.328 104.1ZM174.588 70.36C175.988 70.36 177.948 68.54 180.048 65.88C182.848 62.1 185.928 56.78 187.888 52.02C188.448 50.62 189.848 46.56 189.848 43.34C189.848 41.1 189.148 39.42 187.048 39.42C180.468 39.56 172.488 58.46 172.488 66.72C172.488 68.96 173.048 70.36 174.448 70.36H174.588ZM245.633 81H243.813C240.313 81 236.673 80.58 235.133 77.64C234.293 76.24 234.013 74.28 234.013 71.9C234.013 70.22 234.153 68.4 234.433 66.44C233.593 68.26 232.473 70.22 231.213 72.04C228.273 76.8 224.773 80.86 221.553 81H219.733C216.233 81 212.593 80.58 211.053 77.64C210.213 76.24 209.933 74.28 209.933 71.9C209.933 68.96 210.493 65.18 211.333 61.4C213.433 51.6 218.473 37.74 220.573 33.26C221.133 32.14 222.393 31.58 224.073 31.58C227.433 31.58 231.773 33.68 231.773 35.78L231.633 36.34C229.813 40.82 220.713 64.9 220.433 74.98C220.433 76.94 220.573 78.2 221.273 78.2C222.813 78.2 225.473 76.24 229.113 70.36C232.053 65.74 235.273 58.74 239.053 48.52C241.013 42.22 243.253 36.34 244.653 33.26C245.073 32.14 246.473 31.58 248.153 31.58C251.513 31.58 255.853 33.54 255.853 35.78L255.713 36.34C253.893 40.82 244.793 64.9 244.513 74.98C244.513 76.94 244.653 78.2 245.493 78.2C247.313 78.06 249.833 75.12 252.493 71.06C256.413 65.04 260.473 56.5 262.853 51.32C263.133 50.62 263.693 50.48 264.113 50.48C264.253 50.48 264.533 50.48 264.813 50.62C265.233 50.9 265.513 51.32 265.513 51.74C265.513 52.02 265.513 52.16 265.373 52.44C262.713 58.18 258.653 66.86 254.453 73.16C251.373 77.64 248.293 80.86 245.633 81ZM274.712 57.34C280.732 57.34 288.572 45.02 288.572 40.54C288.572 39.84 288.432 39.28 288.012 39C287.592 38.86 287.312 38.72 286.892 38.72C283.672 38.72 279.052 44.74 277.652 46.7C275.552 49.92 273.732 53.56 272.612 56.78C273.312 57.2 273.872 57.34 274.712 57.34ZM276.532 81.28H275.692C263.792 80.86 259.452 73.72 259.452 64.9C259.452 60.7 260.432 56.08 262.112 51.6C265.612 42.5 273.032 31.72 283.392 31.72H283.812C289.132 31.86 293.472 34.66 293.472 39.98V40.26C293.192 50.2 282.972 62.38 275.412 62.38C274.012 62.38 272.612 61.96 271.492 60.98C271.072 62.66 270.932 64.48 270.932 66.44C270.932 71.62 272.612 77.08 277.092 78.06L278.632 78.2C283.252 78.2 287.172 74.14 290.112 71.2C290.532 70.78 290.952 70.64 291.372 70.64C291.792 70.64 292.072 70.78 292.352 71.06L292.632 71.9C292.632 72.32 292.492 72.74 292.212 72.88C288.152 78.34 283.112 81.28 276.532 81.28ZM335.779 70.64C340.119 70.5 347.679 55.94 349.079 52.3C349.779 50.62 351.039 46.7 351.039 43.76C351.039 41.8 350.479 40.26 348.939 39.7L348.099 39.56C341.799 39.56 333.819 58.74 333.819 67C333.819 69.24 334.379 70.64 335.779 70.64ZM355.799 81.28C352.019 81.28 348.099 81 346.419 77.92C345.579 76.52 345.299 74.42 345.299 72.04C345.299 70.64 345.439 69.24 345.579 67.56C342.219 73.16 337.879 78.62 332.279 78.62H332.139C325.419 78.48 322.619 72.88 322.619 65.6C322.619 51.74 332.699 31.86 346.559 31.86H346.699C350.199 32 353.279 33.12 354.959 35.78L355.939 33.26C356.499 32.28 357.899 31.86 359.439 31.86C362.659 31.86 366.999 33.82 366.999 35.92L366.859 36.62C365.319 40.54 358.179 59.3 356.219 70.78C356.079 71.62 355.799 74.14 355.799 75.96C355.799 77.08 355.799 77.92 356.219 78.2C356.499 78.48 356.639 79.04 356.639 79.6V80.16C356.639 80.72 356.219 81.28 355.799 81.28ZM433.694 87.86H432.574C426.834 87.72 416.894 84.36 411.014 77.08C410.734 76.66 410.594 76.24 410.594 75.68C410.594 74.7 411.154 73.58 411.854 73.58C411.994 73.58 412.274 73.58 412.414 73.86C417.874 78.2 424.314 80.58 430.754 80.58C440.274 80.58 449.654 75.4 455.254 63.5C456.934 60.14 457.634 57.48 457.634 55.52C457.634 48.1 448.254 48.94 444.334 45.86C441.954 53.42 438.034 66.3 438.034 71.76C438.034 72.46 437.474 73.02 436.774 73.16H435.654C432.154 73.16 428.234 72.6 427.534 69.52C427.394 68.96 427.394 68.26 427.394 67.56C427.394 57.06 438.174 26.54 441.534 18.84C441.954 17.72 443.354 17.3 444.894 17.3C448.394 17.3 453.294 19.4 453.294 21.64L453.154 22.2L446.154 40.4L447.554 40.54C452.314 40.54 458.054 36.34 462.254 30.88C465.474 26.82 468.274 21.08 468.274 16.32C468.274 11.7 465.614 7.78 458.194 7.08L453.434 6.8C435.934 6.8 411.574 14.92 407.934 33.12C407.794 33.96 407.374 34.38 406.674 34.38L405.974 34.24C402.614 33.4 399.254 26.4 399.254 20.8C399.254 18.56 399.814 16.46 401.214 15.34C413.954 4.27999 429.774 0.359995 446.014 0.359995H447.694C460.434 0.359995 478.354 4.27999 478.354 19.68V19.82C478.214 31.58 469.394 42.64 458.474 46.56C465.334 49.22 468.274 54.12 468.274 59.72C468.274 63.08 467.154 66.72 465.334 70.5C459.734 81.28 445.594 87.86 433.694 87.86ZM490.594 57.2C496.614 57.2 504.594 44.88 504.594 40.4C504.594 39.56 504.314 39.14 503.894 38.86C503.474 38.58 503.194 38.58 502.774 38.58C499.554 38.58 495.074 44.46 493.674 46.42C491.574 49.64 489.754 53.28 488.634 56.64C489.194 57.06 489.894 57.2 490.594 57.2ZM493.254 81H491.714C479.814 80.58 475.474 73.58 475.474 64.76C475.474 60.42 476.454 55.8 478.134 51.32C481.494 42.36 488.914 31.58 499.134 31.58H499.694C505.014 31.72 509.354 34.38 509.354 39.7V39.98C509.074 49.92 498.854 62.1 491.294 62.1C489.894 62.1 488.494 61.68 487.374 60.7C487.094 62.38 486.814 64.2 486.814 66.02C486.814 71.34 488.354 76.8 492.974 77.78L494.514 77.92C495.354 77.92 496.474 77.78 497.594 77.5C502.494 75.68 509.494 69.66 518.314 51.32C518.594 50.76 519.014 50.48 519.434 50.48C519.714 50.48 519.994 50.62 520.274 50.76C520.694 50.9 520.974 51.32 520.974 51.88C520.974 51.88 520.974 52.16 520.834 52.44C511.454 72.04 503.754 78.34 498.154 80.3C496.334 80.86 494.654 81 493.254 81ZM525.476 81H523.516C520.156 81 516.936 80.58 515.536 77.64C514.836 76.1 514.556 74 514.556 71.62C514.556 54.54 528.976 18.7 531.216 13.52C531.916 12.4 533.316 11.84 534.996 11.84C538.636 11.84 543.256 14.22 543.256 16.18L543.116 16.6C541.436 21.08 526.736 59.58 525.196 74L525.056 76.8C525.056 77.64 525.056 78.2 525.336 78.2H525.616C527.436 78.2 530.096 74.56 530.936 73.44C535.276 67.42 540.036 57.2 542.836 51.32C543.116 50.62 543.536 50.48 544.096 50.48C544.236 50.48 544.516 50.48 544.796 50.62C545.216 50.9 545.496 51.32 545.496 51.74C545.496 52.02 545.496 52.16 545.356 52.44C542.416 58.88 537.796 68.68 533.036 74.98C531.496 77.22 528.416 80.86 525.476 81ZM554.989 57.2C561.009 57.2 568.989 44.88 568.989 40.4C568.989 39.56 568.709 39.14 568.289 38.86C567.869 38.58 567.589 38.58 567.169 38.58C563.949 38.58 559.469 44.46 558.069 46.42C555.969 49.64 554.149 53.28 553.029 56.64C553.589 57.06 554.289 57.2 554.989 57.2ZM557.649 81H556.109C544.209 80.58 539.869 73.58 539.869 64.76C539.869 60.42 540.849 55.8 542.529 51.32C545.889 42.36 553.309 31.58 563.529 31.58H564.089C569.409 31.72 573.749 34.38 573.749 39.7V39.98C573.469 49.92 563.249 62.1 555.689 62.1C554.289 62.1 552.889 61.68 551.769 60.7C551.489 62.38 551.209 64.2 551.209 66.02C551.209 71.34 552.749 76.8 557.369 77.78L558.909 77.92C559.749 77.92 560.869 77.78 561.989 77.5C566.889 75.68 573.889 69.66 582.709 51.32C582.989 50.76 583.409 50.48 583.829 50.48C584.109 50.48 584.389 50.62 584.669 50.76C585.089 50.9 585.369 51.32 585.369 51.88C585.369 51.88 585.369 52.16 585.229 52.44C575.849 72.04 568.149 78.34 562.549 80.3C560.729 80.86 559.049 81 557.649 81ZM582.87 107.46C576.85 107.46 572.23 103.82 572.23 97.66L572.37 96.12C573.35 87.16 581.61 83.1 594.07 82.82C595.05 79.74 596.03 76.94 596.03 74.56C596.03 72.04 594.91 70.22 591.41 69.52C590.57 69.38 590.15 68.68 590.15 68.12C590.15 67.42 590.71 66.86 591.41 66.72C597.29 65.74 602.33 57.62 604.71 49.64C605.55 46.56 606.53 43.2 606.53 40.54C606.53 37.04 604.99 34.52 600.23 34.52H599.81C592.95 34.52 587.91 46.28 585.11 52.44C584.83 53 584.41 53.28 583.85 53.28C583.15 53.28 582.45 52.72 582.45 52.02C582.45 51.88 582.45 51.6 582.59 51.32C586.37 43.06 590.85 32.14 599.95 31.72H602.33C611.99 31.72 616.47 35.5 616.47 42.78C616.47 45.44 615.91 48.52 614.79 52.02C612.69 58.88 608.35 65.46 601.07 67.84C604.85 69.38 607.23 72.74 607.23 77.36C607.23 78.62 607.09 80.02 606.67 81.42C609.89 79.32 612.41 76.52 614.93 72.88C618.57 67.56 621.93 60.42 625.99 51.46C626.27 50.9 626.83 50.62 627.25 50.62C627.95 50.62 628.65 51.18 628.65 51.88L628.51 52.58C624.45 61.68 621.09 68.96 617.31 74.42C614.09 79.04 610.03 82.82 605.55 85.06C602.61 94.3 596.03 107.18 582.87 107.46ZM579.23 100.88C580.21 100.88 581.19 100.6 582.31 100.18C585.81 98.5 590.71 91.92 592.95 85.76C581.89 86.18 576.57 89.12 575.45 96.12V96.96C575.45 99.76 576.99 100.88 579.23 100.88ZM635.88 70.5C640.08 70.36 647.64 55.66 649.04 52.16C649.74 50.34 651 46.56 651 43.48C651 41.52 650.44 39.98 648.9 39.56L648.06 39.42C641.76 39.42 633.78 58.46 633.78 66.72C633.78 69.1 634.48 70.5 635.88 70.5ZM656.74 81H655.06C651.56 81 647.92 80.58 646.38 77.64C645.54 76.24 645.26 74.14 645.26 71.76C645.26 70.36 645.4 68.96 645.54 67.28C642.32 72.88 637.84 78.34 632.38 78.34H632.1C625.38 78.2 622.58 72.6 622.58 65.32C622.58 51.46 632.66 31.72 646.52 31.72H646.66C650.3 31.72 653.24 32.98 654.92 35.64L655.9 33.12C656.6 32 657.86 31.58 659.54 31.58C662.76 31.58 667.1 33.54 667.1 35.78L666.96 36.34C665.14 40.82 656.04 64.9 655.76 74.98C655.76 76.94 655.9 78.2 656.6 78.2C661.22 78.06 670.04 60.14 674.1 51.32C674.38 50.62 674.8 50.48 675.36 50.48L676.06 50.62C676.48 50.76 676.76 51.18 676.76 51.74C676.76 52.02 676.76 52.02 676.62 52.44C672 62.38 663.32 80.72 656.74 81Z" fill="white"/>
</g>
<defs>
<filter id="filter0_d_73_4" x="0" y="0.359985" width="680.76" height="115.1" filterUnits="userSpaceOnUse" color-interpolation-filters="sRGB">
<feFlood flood-opacity="0" result="BackgroundImageFix"/>
<feColorMatrix in="SourceAlpha" type="matrix" values="0 0 0 0 0 0 0 0 0 0 0 0 0 0 0 0 0 0 127 0" result="hardAlpha"/>
<feOffset dy="4"/>
<feGaussianBlur stdDeviation="2"/>
<feComposite in2="hardAlpha" operator="out"/>
<feColorMatrix type="matrix" values="0 0 0 0 0 0 0 0 0 0 0 0 0 0 0 0 0 0 0.1 0"/>
<feBlend mode="normal" in2="BackgroundImageFix" result="effect1_dropShadow_73_4"/>
<feBlend mode="normal" in="SourceGraphic" in2="effect1_dropShadow_73_4" result="shape"/>
</filter>
</defs>
</svg>
