<svg width="371" height="256" viewBox="0 0 371 256" fill="none" xmlns="http://www.w3.org/2000/svg">
<g filter="url(#filter0_d_73_4)">
<path d="M38.4459 87.86H37.3259C31.5859 87.72 21.6459 84.36 15.7659 77.08C15.4859 76.66 15.3459 76.24 15.3459 75.68C15.3459 74.7 15.9059 73.58 16.6059 73.58C16.7459 73.58 17.0259 73.58 17.1659 73.86C22.6259 78.2 29.0659 80.58 35.5059 80.58C45.0259 80.58 54.4059 75.4 60.0059 63.5C61.6859 60.14 62.3859 57.48 62.3859 55.52C62.3859 48.1 53.0059 48.94 49.0859 45.86C46.7059 53.42 42.7859 66.3 42.7859 71.76C42.7859 72.46 42.2259 73.02 41.5259 73.16H40.4059C36.9059 73.16 32.9859 72.6 32.2859 69.52C32.1459 68.96 32.1459 68.26 32.1459 67.56C32.1459 57.06 42.9259 26.54 46.2859 18.84C46.7059 17.72 48.1059 17.3 49.6459 17.3C53.1459 17.3 58.0459 19.4 58.0459 21.64L57.9059 22.2L50.9059 40.4L52.3059 40.54C57.0659 40.54 62.8059 36.34 67.0059 30.88C70.2259 26.82 73.0259 21.08 73.0259 16.32C73.0259 11.7 70.3659 7.78 62.9459 7.08L58.1859 6.8C40.6859 6.8 16.3259 14.92 12.6859 33.12C12.5459 33.96 12.1259 34.38 11.4259 34.38L10.7259 34.24C7.36586 33.4 4.00586 26.4 4.00586 20.8C4.00586 18.56 4.56586 16.46 5.96586 15.34C18.7059 4.27999 34.5259 0.359995 50.7659 0.359995H52.4459C65.1859 0.359995 83.1059 4.27999 83.1059 19.68V19.82C82.9659 31.58 74.1459 42.64 63.2259 46.56C70.0859 49.22 73.0259 54.12 73.0259 59.72C73.0259 63.08 71.9059 66.72 70.0859 70.5C64.4859 81.28 50.3459 87.86 38.4459 87.86ZM114.526 81H112.706C109.206 81 105.566 80.58 104.026 77.64C103.186 76.24 102.906 74.28 102.906 71.9C102.906 70.22 103.046 68.4 103.326 66.44C102.486 68.26 101.366 70.22 100.106 72.04C97.166 76.8 93.666 80.86 90.446 81H88.626C85.126 81 81.486 80.58 79.946 77.64C79.106 76.24 78.826 74.28 78.826 71.9C78.826 68.96 79.386 65.18 80.226 61.4C82.326 51.6 87.366 37.74 89.466 33.26C90.026 32.14 91.286 31.58 92.966 31.58C96.326 31.58 100.666 33.68 100.666 35.78L100.526 36.34C98.706 40.82 89.606 64.9 89.326 74.98C89.326 76.94 89.466 78.2 90.166 78.2C91.706 78.2 94.366 76.24 98.006 70.36C100.946 65.74 104.166 58.74 107.946 48.52C109.906 42.22 112.146 36.34 113.546 33.26C113.966 32.14 115.366 31.58 117.046 31.58C120.406 31.58 124.746 33.54 124.746 35.78L124.606 36.34C122.786 40.82 113.686 64.9 113.406 74.98C113.406 76.94 113.546 78.2 114.386 78.2C116.206 78.06 118.726 75.12 121.386 71.06C125.306 65.04 129.366 56.5 131.746 51.32C132.026 50.62 132.586 50.48 133.006 50.48C133.146 50.48 133.426 50.48 133.706 50.62C134.126 50.9 134.406 51.32 134.406 51.74C134.406 52.02 134.406 52.16 134.266 52.44C131.606 58.18 127.546 66.86 123.346 73.16C120.266 77.64 117.186 80.86 114.526 81ZM138.844 81H137.584C129.324 81 125.404 75.68 125.404 69.66C125.404 66.44 126.524 63.08 128.624 60.14C129.324 59.16 130.444 58.74 131.564 58.74C134.784 58.74 138.844 61.68 138.844 63.64C138.844 63.92 138.704 64.34 138.284 64.62C136.044 66.44 134.084 71.34 134.084 74.28C134.084 75.4 134.364 76.1 134.924 76.52C135.204 76.8 135.484 76.8 135.764 76.8C136.604 76.8 137.584 76.1 138.284 75.26C140.244 72.74 140.804 69.24 140.804 65.32C140.804 58.6 139.124 50.76 139.124 44.6C139.124 43.62 139.124 42.64 139.264 41.66L134.224 52.58C133.944 53 133.384 53.28 132.964 53.28C132.684 53.28 132.544 53.28 132.264 53.14C131.984 53 131.564 52.86 131.564 52.16C131.564 51.88 131.564 51.46 131.704 51.18C132.824 48.66 140.104 31.58 142.764 31.58H153.124C153.964 31.58 154.524 32.14 154.524 32.84C154.524 33.12 154.524 33.54 154.244 33.82C151.724 37.6 150.884 41.38 150.884 45.02C150.884 50.9 152.844 56.78 152.844 62.8C152.844 64.2 152.704 65.6 152.424 67C151.724 70.22 150.884 72.74 149.624 74.7C151.444 72.74 154.384 68.96 156.624 65.6C159.004 61.82 161.664 57.2 164.464 51.18C164.744 50.62 165.164 50.48 165.724 50.48C165.864 50.48 166.144 50.48 166.424 50.62C166.844 50.9 167.124 51.32 167.124 51.88L166.984 52.44C164.464 57.76 161.664 62.94 158.724 67.42C156.624 70.64 154.524 73.44 152.144 76.1C147.944 80.72 143.044 81 138.844 81ZM185.934 107.18H185.374C182.294 107.18 178.234 105.64 176.974 102.28L176.834 100.88C176.834 95.14 180.054 80.44 182.854 69.8C179.774 74.28 175.854 78.34 171.234 78.34H170.954C164.234 78.2 161.434 72.6 161.434 65.32C161.434 51.46 171.514 31.72 185.374 31.72H185.514C188.874 31.72 191.814 32.84 193.494 35.36C193.774 34.52 194.334 33.12 194.754 32.7C195.734 32 196.994 31.58 198.254 31.58C201.894 31.58 206.094 34.1 206.094 35.92L205.954 36.48C204.694 39.42 198.254 59.72 194.894 71.2C204.554 68.96 209.874 60.98 214.074 51.32C214.354 50.76 214.914 50.48 215.474 50.48L216.034 50.62C216.454 50.9 216.874 51.32 216.874 51.88L216.734 52.44C212.394 62.1 206.934 70.22 197.694 73.3C199.934 74.98 200.774 77.64 200.774 80.72C200.774 82.82 200.494 84.92 199.934 87.02C198.534 93.6 194.194 106.76 185.934 107.18ZM187.334 104.1C192.794 102.14 196.154 91.5 197.274 86.46C197.694 84.78 198.114 82.82 198.114 80.86C198.114 78.06 197.134 75.54 193.914 74.56C191.114 84.64 187.754 97.94 187.334 104.1ZM174.594 70.36C175.994 70.36 177.954 68.54 180.054 65.88C182.854 62.1 185.934 56.78 187.894 52.02C188.454 50.62 189.854 46.56 189.854 43.34C189.854 41.1 189.154 39.42 187.054 39.42C180.474 39.56 172.494 58.46 172.494 66.72C172.494 68.96 173.054 70.36 174.454 70.36H174.594ZM245.639 81H243.819C240.319 81 236.679 80.58 235.139 77.64C234.299 76.24 234.019 74.28 234.019 71.9C234.019 70.22 234.159 68.4 234.439 66.44C233.599 68.26 232.479 70.22 231.219 72.04C228.279 76.8 224.779 80.86 221.559 81H219.739C216.239 81 212.599 80.58 211.059 77.64C210.219 76.24 209.939 74.28 209.939 71.9C209.939 68.96 210.499 65.18 211.339 61.4C213.439 51.6 218.479 37.74 220.579 33.26C221.139 32.14 222.399 31.58 224.079 31.58C227.439 31.58 231.779 33.68 231.779 35.78L231.639 36.34C229.819 40.82 220.719 64.9 220.439 74.98C220.439 76.94 220.579 78.2 221.279 78.2C222.819 78.2 225.479 76.24 229.119 70.36C232.059 65.74 235.279 58.74 239.059 48.52C241.019 42.22 243.259 36.34 244.659 33.26C245.079 32.14 246.479 31.58 248.159 31.58C251.519 31.58 255.859 33.54 255.859 35.78L255.719 36.34C253.899 40.82 244.799 64.9 244.519 74.98C244.519 76.94 244.659 78.2 245.499 78.2C247.319 78.06 249.839 75.12 252.499 71.06C256.419 65.04 260.479 56.5 262.859 51.32C263.139 50.62 263.699 50.48 264.119 50.48C264.259 50.48 264.539 50.48 264.819 50.62C265.239 50.9 265.519 51.32 265.519 51.74C265.519 52.02 265.519 52.16 265.379 52.44C262.719 58.18 258.659 66.86 254.459 73.16C251.379 77.64 248.299 80.86 245.639 81ZM274.718 57.34C280.738 57.34 288.578 45.02 288.578 40.54C288.578 39.84 288.438 39.28 288.018 39C287.598 38.86 287.318 38.72 286.898 38.72C283.678 38.72 279.058 44.74 277.658 46.7C275.558 49.92 273.738 53.56 272.618 56.78C273.318 57.2 273.878 57.34 274.718 57.34ZM276.538 81.28H275.698C263.798 80.86 259.458 73.72 259.458 64.9C259.458 60.7 260.438 56.08 262.118 51.6C265.618 42.5 273.038 31.72 283.398 31.72H283.818C289.138 31.86 293.478 34.66 293.478 39.98V40.26C293.198 50.2 282.978 62.38 275.418 62.38C274.018 62.38 272.618 61.96 271.498 60.98C271.078 62.66 270.938 64.48 270.938 66.44C270.938 71.62 272.618 77.08 277.098 78.06L278.638 78.2C283.258 78.2 287.178 74.14 290.118 71.2C290.538 70.78 290.958 70.64 291.378 70.64C291.798 70.64 292.078 70.78 292.358 71.06L292.638 71.9C292.638 72.32 292.498 72.74 292.218 72.88C288.158 78.34 283.118 81.28 276.538 81.28ZM335.785 70.64C340.125 70.5 347.685 55.94 349.085 52.3C349.785 50.62 351.045 46.7 351.045 43.76C351.045 41.8 350.485 40.26 348.945 39.7L348.105 39.56C341.805 39.56 333.825 58.74 333.825 67C333.825 69.24 334.385 70.64 335.785 70.64ZM355.805 81.28C352.025 81.28 348.105 81 346.425 77.92C345.585 76.52 345.305 74.42 345.305 72.04C345.305 70.64 345.445 69.24 345.585 67.56C342.225 73.16 337.885 78.62 332.285 78.62H332.145C325.425 78.48 322.625 72.88 322.625 65.6C322.625 51.74 332.705 31.86 346.565 31.86H346.705C350.205 32 353.285 33.12 354.965 35.78L355.945 33.26C356.505 32.28 357.905 31.86 359.445 31.86C362.665 31.86 367.005 33.82 367.005 35.92L366.865 36.62C365.325 40.54 358.185 59.3 356.225 70.78C356.085 71.62 355.805 74.14 355.805 75.96C355.805 77.08 355.805 77.92 356.225 78.2C356.505 78.48 356.645 79.04 356.645 79.6V80.16C356.645 80.72 356.225 81.28 355.805 81.28ZM82.5377 227.86H81.4177C75.6777 227.72 65.7377 224.36 59.8577 217.08C59.5777 216.66 59.4377 216.24 59.4377 215.68C59.4377 214.7 59.9977 213.58 60.6977 213.58C60.8377 213.58 61.1177 213.58 61.2577 213.86C66.7177 218.2 73.1577 220.58 79.5977 220.58C89.1177 220.58 98.4977 215.4 104.098 203.5C105.778 200.14 106.478 197.48 106.478 195.52C106.478 188.1 97.0977 188.94 93.1777 185.86C90.7977 193.42 86.8777 206.3 86.8777 211.76C86.8777 212.46 86.3177 213.02 85.6177 213.16H84.4977C80.9977 213.16 77.0777 212.6 76.3777 209.52C76.2377 208.96 76.2377 208.26 76.2377 207.56C76.2377 197.06 87.0177 166.54 90.3777 158.84C90.7977 157.72 92.1977 157.3 93.7377 157.3C97.2377 157.3 102.138 159.4 102.138 161.64L101.998 162.2L94.9977 180.4L96.3977 180.54C101.158 180.54 106.898 176.34 111.098 170.88C114.318 166.82 117.118 161.08 117.118 156.32C117.118 151.7 114.458 147.78 107.038 147.08L102.278 146.8C84.7777 146.8 60.4177 154.92 56.7777 173.12C56.6377 173.96 56.2177 174.38 55.5177 174.38L54.8177 174.24C51.4577 173.4 48.0977 166.4 48.0977 160.8C48.0977 158.56 48.6577 156.46 50.0577 155.34C62.7977 144.28 78.6177 140.36 94.8577 140.36H96.5377C109.278 140.36 127.198 144.28 127.198 159.68V159.82C127.058 171.58 118.238 182.64 107.318 186.56C114.178 189.22 117.118 194.12 117.118 199.72C117.118 203.08 115.998 206.72 114.178 210.5C108.578 221.28 94.4377 227.86 82.5377 227.86ZM139.438 197.2C145.458 197.2 153.438 184.88 153.438 180.4C153.438 179.56 153.158 179.14 152.738 178.86C152.318 178.58 152.038 178.58 151.618 178.58C148.398 178.58 143.918 184.46 142.518 186.42C140.418 189.64 138.598 193.28 137.478 196.64C138.038 197.06 138.738 197.2 139.438 197.2ZM142.098 221H140.558C128.658 220.58 124.318 213.58 124.318 204.76C124.318 200.42 125.298 195.8 126.978 191.32C130.338 182.36 137.758 171.58 147.978 171.58H148.538C153.858 171.72 158.198 174.38 158.198 179.7V179.98C157.918 189.92 147.698 202.1 140.138 202.1C138.738 202.1 137.338 201.68 136.218 200.7C135.938 202.38 135.658 204.2 135.658 206.02C135.658 211.34 137.198 216.8 141.818 217.78L143.358 217.92C144.198 217.92 145.318 217.78 146.438 217.5C151.338 215.68 158.338 209.66 167.158 191.32C167.438 190.76 167.858 190.48 168.278 190.48C168.558 190.48 168.838 190.62 169.118 190.76C169.538 190.9 169.818 191.32 169.818 191.88C169.818 191.88 169.818 192.16 169.678 192.44C160.298 212.04 152.598 218.34 146.998 220.3C145.178 220.86 143.498 221 142.098 221ZM174.32 221H172.36C169 221 165.78 220.58 164.38 217.64C163.68 216.1 163.4 214 163.4 211.62C163.4 194.54 177.82 158.7 180.06 153.52C180.76 152.4 182.16 151.84 183.84 151.84C187.48 151.84 192.1 154.22 192.1 156.18L191.96 156.6C190.28 161.08 175.58 199.58 174.04 214L173.9 216.8C173.9 217.64 173.9 218.2 174.18 218.2H174.46C176.28 218.2 178.94 214.56 179.78 213.44C184.12 207.42 188.88 197.2 191.68 191.32C191.96 190.62 192.38 190.48 192.94 190.48C193.08 190.48 193.36 190.48 193.64 190.62C194.06 190.9 194.34 191.32 194.34 191.74C194.34 192.02 194.34 192.16 194.2 192.44C191.26 198.88 186.64 208.68 181.88 214.98C180.34 217.22 177.26 220.86 174.32 221ZM203.832 197.2C209.852 197.2 217.832 184.88 217.832 180.4C217.832 179.56 217.552 179.14 217.132 178.86C216.712 178.58 216.432 178.58 216.012 178.58C212.792 178.58 208.312 184.46 206.912 186.42C204.812 189.64 202.992 193.28 201.872 196.64C202.432 197.06 203.132 197.2 203.832 197.2ZM206.492 221H204.952C193.052 220.58 188.712 213.58 188.712 204.76C188.712 200.42 189.692 195.8 191.372 191.32C194.732 182.36 202.152 171.58 212.372 171.58H212.932C218.252 171.72 222.592 174.38 222.592 179.7V179.98C222.312 189.92 212.092 202.1 204.532 202.1C203.132 202.1 201.732 201.68 200.612 200.7C200.332 202.38 200.052 204.2 200.052 206.02C200.052 211.34 201.592 216.8 206.212 217.78L207.752 217.92C208.592 217.92 209.712 217.78 210.832 217.5C215.732 215.68 222.732 209.66 231.552 191.32C231.832 190.76 232.252 190.48 232.672 190.48C232.952 190.48 233.232 190.62 233.512 190.76C233.932 190.9 234.212 191.32 234.212 191.88C234.212 191.88 234.212 192.16 234.072 192.44C224.692 212.04 216.992 218.34 211.392 220.3C209.572 220.86 207.892 221 206.492 221ZM231.714 247.46C225.694 247.46 221.074 243.82 221.074 237.66L221.214 236.12C222.194 227.16 230.454 223.1 242.914 222.82C243.894 219.74 244.874 216.94 244.874 214.56C244.874 212.04 243.754 210.22 240.254 209.52C239.414 209.38 238.994 208.68 238.994 208.12C238.994 207.42 239.554 206.86 240.254 206.72C246.134 205.74 251.174 197.62 253.554 189.64C254.394 186.56 255.374 183.2 255.374 180.54C255.374 177.04 253.834 174.52 249.074 174.52H248.654C241.794 174.52 236.754 186.28 233.954 192.44C233.674 193 233.254 193.28 232.694 193.28C231.994 193.28 231.294 192.72 231.294 192.02C231.294 191.88 231.294 191.6 231.434 191.32C235.214 183.06 239.694 172.14 248.794 171.72H251.174C260.834 171.72 265.314 175.5 265.314 182.78C265.314 185.44 264.754 188.52 263.634 192.02C261.534 198.88 257.194 205.46 249.914 207.84C253.694 209.38 256.074 212.74 256.074 217.36C256.074 218.62 255.934 220.02 255.514 221.42C258.734 219.32 261.254 216.52 263.774 212.88C267.414 207.56 270.774 200.42 274.834 191.46C275.114 190.9 275.674 190.62 276.094 190.62C276.794 190.62 277.494 191.18 277.494 191.88L277.354 192.58C273.294 201.68 269.934 208.96 266.154 214.42C262.934 219.04 258.874 222.82 254.394 225.06C251.454 234.3 244.874 247.18 231.714 247.46ZM228.074 240.88C229.054 240.88 230.034 240.6 231.154 240.18C234.654 238.5 239.554 231.92 241.794 225.76C230.734 226.18 225.414 229.12 224.294 236.12V236.96C224.294 239.76 225.834 240.88 228.074 240.88ZM284.724 210.5C288.924 210.36 296.484 195.66 297.884 192.16C298.584 190.34 299.844 186.56 299.844 183.48C299.844 181.52 299.284 179.98 297.744 179.56L296.904 179.42C290.604 179.42 282.624 198.46 282.624 206.72C282.624 209.1 283.324 210.5 284.724 210.5ZM305.584 221H303.904C300.404 221 296.764 220.58 295.224 217.64C294.384 216.24 294.104 214.14 294.104 211.76C294.104 210.36 294.244 208.96 294.384 207.28C291.164 212.88 286.684 218.34 281.224 218.34H280.944C274.224 218.2 271.424 212.6 271.424 205.32C271.424 191.46 281.504 171.72 295.364 171.72H295.504C299.144 171.72 302.084 172.98 303.764 175.64L304.744 173.12C305.444 172 306.704 171.58 308.384 171.58C311.604 171.58 315.944 173.54 315.944 175.78L315.804 176.34C313.984 180.82 304.884 204.9 304.604 214.98C304.604 216.94 304.744 218.2 305.444 218.2C310.064 218.06 318.884 200.14 322.944 191.32C323.224 190.62 323.644 190.48 324.204 190.48L324.904 190.62C325.324 190.76 325.604 191.18 325.604 191.74C325.604 192.02 325.604 192.02 325.464 192.44C320.844 202.38 312.164 220.72 305.584 221Z" fill="white"/>
</g>
<defs>
<filter id="filter0_d_73_4" x="0.00585938" y="0.359985" width="370.999" height="255.1" filterUnits="userSpaceOnUse" color-interpolation-filters="sRGB">
<feFlood flood-opacity="0" result="BackgroundImageFix"/>
<feColorMatrix in="SourceAlpha" type="matrix" values="0 0 0 0 0 0 0 0 0 0 0 0 0 0 0 0 0 0 127 0" result="hardAlpha"/>
<feOffset dy="4"/>
<feGaussianBlur stdDeviation="2"/>
<feComposite in2="hardAlpha" operator="out"/>
<feColorMatrix type="matrix" values="0 0 0 0 0 0 0 0 0 0 0 0 0 0 0 0 0 0 0.1 0"/>
<feBlend mode="normal" in2="BackgroundImageFix" result="effect1_dropShadow_73_4"/>
<feBlend mode="normal" in="SourceGraphic" in2="effect1_dropShadow_73_4" result="shape"/>
</filter>
</defs>
</svg>
