<svg width="219" height="49" viewBox="0 0 219 49" fill="none" xmlns="http://www.w3.org/2000/svg">
<path d="M11.389 40.136H11.261C5.373 40.136 0.125 36.296 0.125 28.104C0.125 17.16 9.213 0.264 21.373 0.135998C27.133 0.135998 29.821 3.4 29.821 8.008C29.821 13.512 25.789 21.384 22.269 23.752C21.693 24.136 20.989 24.328 20.157 24.328C18.045 24.328 15.357 23.048 15.165 21.64C15.165 21.256 15.421 21 15.805 21C19.325 20.68 26.301 10.376 26.301 5.704C26.301 4.168 25.405 3.528 24.061 3.528C23.549 3.528 23.101 3.656 22.653 3.72C14.461 5.448 6.653 21.832 6.653 31.24C6.653 35.016 8.061 37.064 11.709 37.128C18.877 37.128 26.429 28.808 30.077 23.368C30.205 23.176 30.461 23.048 30.653 23.048C31.037 23.112 31.293 23.24 31.293 23.688L31.229 23.944C27.901 32.072 20.925 40.136 11.389 40.136ZM35.693 26.12C38.445 26.12 42.093 20.488 42.093 18.44C42.093 18.056 41.965 17.864 41.773 17.736C41.581 17.608 41.453 17.608 41.261 17.608C39.789 17.608 37.741 20.296 37.101 21.192C36.141 22.664 35.309 24.328 34.797 25.864C35.053 26.056 35.373 26.12 35.693 26.12ZM36.909 37H36.205C30.765 36.808 28.781 33.608 28.781 29.576C28.781 27.592 29.229 25.48 29.997 23.432C31.533 19.336 34.925 14.408 39.597 14.408H39.853C42.285 14.472 44.269 15.688 44.269 18.12V18.248C44.141 22.792 39.469 28.36 36.013 28.36C35.373 28.36 34.733 28.168 34.221 27.72C34.093 28.488 33.965 29.32 33.965 30.152C33.965 32.584 34.669 35.08 36.781 35.528L37.485 35.592C37.869 35.592 38.381 35.528 38.893 35.4C41.133 34.568 44.333 31.816 48.365 23.432C48.493 23.176 48.685 23.048 48.877 23.048C49.005 23.048 49.133 23.112 49.261 23.176C49.453 23.24 49.581 23.432 49.581 23.688C49.581 23.688 49.581 23.816 49.517 23.944C45.229 32.904 41.709 35.784 39.149 36.68C38.317 36.936 37.549 37 36.909 37ZM57.975 37H57.335C55.799 37 53.559 36.936 52.791 35.464C52.471 34.824 52.279 33.928 52.279 32.904C52.279 28.104 55.479 20.168 56.631 16.712C55.799 16.776 54.647 17.096 53.559 17.096C53.239 17.096 52.855 17.096 52.535 16.968C51.575 19.464 50.999 20.744 49.527 23.944C49.463 24.136 49.207 24.328 49.015 24.328C48.887 24.328 48.823 24.328 48.695 24.264C48.503 24.2 48.311 24.072 48.311 23.688C48.311 23.624 48.311 23.56 48.375 23.432C49.911 20.04 50.359 19.016 51.447 16.392C50.871 15.944 50.615 15.304 50.615 14.6C50.615 13.704 50.935 12.744 51.255 11.912C51.447 11.4 52.151 11.208 52.791 11.208C53.559 11.208 54.391 11.464 54.391 11.976L54.327 12.168C54.071 13.064 53.559 14.536 53.367 14.984C55.095 14.92 56.567 14.408 57.911 14.408C59.511 14.408 61.111 15.624 61.367 17.288L61.431 17.736C61.431 18.76 60.919 20.104 60.215 22.152C59.191 25.032 57.143 30.728 57.143 33.928L57.271 35.016C57.399 35.592 57.655 35.784 57.975 35.784C58.807 35.784 60.023 34.312 60.343 33.8C61.559 32.008 63.159 28.808 65.591 23.432C65.719 23.176 65.911 23.048 66.103 23.048C66.295 23.048 66.423 23.112 66.551 23.176C66.679 23.24 66.807 23.432 66.807 23.688C66.807 23.752 66.807 23.816 66.743 23.944C64.311 29.384 62.711 32.648 61.431 34.504C60.023 36.552 59.127 37 57.975 37ZM68.9545 37H67.9945C66.4585 37 64.9865 36.808 64.4105 35.464C64.0905 34.76 63.8985 33.736 63.8985 32.584C63.8985 27.592 66.5225 19.272 68.8905 12.872C67.6105 12.808 66.3945 12.808 65.3705 12.808C64.9865 12.744 64.7305 12.424 64.7305 12.168C64.7305 11.848 64.9865 11.528 65.3705 11.528L69.3385 11.592C70.1705 9.416 70.9385 7.56 71.5785 6.152C71.7705 5.576 72.4105 5.384 73.1785 5.384C74.8425 5.384 77.1465 6.408 77.1465 7.368L77.0825 7.56C76.5065 8.84 75.9305 10.248 75.3545 11.784L78.5545 11.848C78.9385 11.848 79.1945 12.168 79.1945 12.488C79.1945 12.808 78.9385 13.128 78.4905 13.128C77.4025 13.064 76.1865 13.064 74.8425 13.064C72.8585 18.952 70.6825 25.544 69.4025 30.984C69.2745 31.368 68.6985 33.992 68.6985 35.144C68.6985 35.592 68.7625 35.72 68.9545 35.72C69.6585 35.72 70.8745 34.184 71.3225 33.608C73.3065 30.92 75.6105 26.184 76.8905 23.432C77.0185 23.112 77.2105 23.048 77.4665 23.048C77.5305 23.048 77.6585 23.048 77.7865 23.112C77.9785 23.24 78.1065 23.432 78.1065 23.688C78.1065 23.688 78.1065 23.816 78.0425 23.944C76.6985 27.016 74.3305 31.752 72.1545 34.632C71.3865 35.528 70.1705 36.936 68.9545 37ZM80.2685 37H79.4365C77.8365 37 76.1725 36.808 75.4685 35.464C75.0845 34.824 74.8925 33.8 74.8925 32.648C74.8925 31.304 75.1485 29.704 75.4685 28.04C76.4925 23.24 78.6045 17.544 79.5645 15.176C79.8205 14.664 80.4605 14.408 81.1645 14.408C82.7005 14.408 84.6845 15.368 84.6845 16.328L84.6205 16.584C84.1085 17.992 79.6285 30.728 79.6285 34.632C79.6285 35.336 79.7565 35.72 80.1405 35.72C82.2525 35.656 86.2205 27.464 88.0125 23.432C88.1405 23.112 88.3325 23.048 88.5885 23.048L88.9085 23.112C89.1005 23.176 89.2285 23.368 89.2285 23.624C89.2285 23.752 89.2285 23.816 89.1645 23.944C87.1165 28.488 83.2125 36.872 80.2685 37ZM84.9405 12.04C83.6605 12.04 81.8045 11.272 81.8045 10.44C81.8045 9.416 82.5725 6.92 82.9565 6.088C83.1485 5.512 83.7245 5.32 84.4285 5.32C85.9005 5.32 87.8205 6.344 87.8205 7.304C87.8205 7.432 87.8205 7.624 87.6925 7.752C87.3725 8.328 86.4765 10.632 86.0285 11.592C85.9005 11.912 85.4525 12.04 84.9405 12.04ZM87.296 48.968C85.696 48.968 84.032 48.328 83.2 46.856C83.008 46.536 82.944 45.96 82.944 45.256V45.128C82.944 40.968 86.144 29.384 87.168 25.928C89.792 16.968 92.672 8.584 94.08 6.088C94.4 5.576 95.04 5.384 95.808 5.384C97.472 5.384 99.584 6.472 99.584 7.368L99.52 7.56C98.624 9.544 92.672 26.504 92.224 29.192L93.44 29.256C94.528 29.256 95.488 29.128 96.576 28.68C98.24 27.912 99.776 26.312 101.12 23.368C101.248 23.048 101.44 22.984 101.696 22.984C102.08 23.048 102.336 23.048 102.336 23.56L102.272 23.816C100.864 26.952 99.2 28.936 96.96 29.832C95.872 30.344 94.592 30.536 93.184 30.536C94.4 31.816 94.848 33.48 94.848 35.208C94.848 36.488 94.592 37.832 94.336 39.176C93.632 42.312 91.2 48.968 87.296 48.968ZM88 47.624C90.048 47.048 92.16 42.888 93.056 38.856C93.312 37.64 93.632 36.296 93.632 35.08C93.632 33.416 93.184 31.88 91.648 30.856C90.304 36.488 87.936 44.68 87.936 47.048C87.936 47.304 87.936 47.496 88 47.624ZM104.581 37H103.749C102.149 37 100.485 36.808 99.781 35.464C99.397 34.824 99.205 33.8 99.205 32.648C99.205 31.304 99.461 29.704 99.781 28.04C100.805 23.24 102.917 17.544 103.877 15.176C104.133 14.664 104.773 14.408 105.477 14.408C107.013 14.408 108.997 15.368 108.997 16.328L108.933 16.584C108.421 17.992 103.941 30.728 103.941 34.632C103.941 35.336 104.069 35.72 104.453 35.72C106.565 35.656 110.533 27.464 112.325 23.432C112.453 23.112 112.645 23.048 112.901 23.048L113.221 23.112C113.413 23.176 113.541 23.368 113.541 23.624C113.541 23.752 113.541 23.816 113.477 23.944C111.429 28.488 107.525 36.872 104.581 37ZM109.253 12.04C107.973 12.04 106.117 11.272 106.117 10.44C106.117 9.416 106.885 6.92 107.269 6.088C107.461 5.512 108.037 5.32 108.741 5.32C110.213 5.32 112.133 6.344 112.133 7.304C112.133 7.432 112.133 7.624 112.005 7.752C111.685 8.328 110.789 10.632 110.341 11.592C110.213 11.912 109.765 12.04 109.253 12.04ZM119.097 37H118.393C112.953 36.808 110.968 33.608 110.968 29.576C110.968 27.592 111.416 25.48 112.184 23.432C113.785 19.272 117.177 14.408 121.849 14.408C122.297 14.408 122.809 14.472 123.257 14.536C125.817 15.048 126.777 16.904 126.777 18.76C126.777 19.976 126.329 21.256 125.625 22.088C125.113 22.664 124.537 22.984 123.897 22.984C123.513 22.984 123.065 22.856 122.681 22.6C122.489 22.472 122.425 22.28 122.425 22.024C122.425 21.96 122.425 21.832 122.489 21.768C122.745 21.32 124.025 19.144 124.025 18.12C124.025 17.8 123.897 17.608 123.641 17.544H123.449C121.657 17.544 118.009 22.024 116.729 26.824C116.409 27.784 116.217 29.064 116.217 30.344C116.217 32.584 116.857 34.824 118.713 35.464C119.033 35.528 119.353 35.592 119.673 35.592C120.121 35.592 120.569 35.528 121.081 35.4C123.385 34.568 126.585 31.816 130.617 23.432C130.745 23.112 130.937 23.048 131.128 23.048C131.321 23.048 131.449 23.112 131.449 23.112C131.641 23.24 131.769 23.432 131.769 23.688C131.769 23.688 131.769 23.816 131.705 23.944C127.481 32.84 123.961 35.72 121.401 36.616C120.505 36.936 119.737 37 119.097 37ZM135.297 32.2C137.217 32.136 140.673 25.416 141.313 23.816C141.633 22.984 142.209 21.256 142.209 19.848C142.209 18.952 141.953 18.248 141.249 18.056L140.865 17.992C137.985 17.992 134.337 26.696 134.337 30.472C134.337 31.56 134.657 32.2 135.297 32.2ZM144.833 37H144.065C142.465 37 140.801 36.808 140.097 35.464C139.713 34.824 139.585 33.864 139.585 32.776C139.585 32.136 139.649 31.496 139.713 30.728C138.241 33.288 136.193 35.784 133.697 35.784H133.569C130.497 35.72 129.217 33.16 129.217 29.832C129.217 23.496 133.825 14.472 140.161 14.472H140.225C141.889 14.472 143.233 15.048 144.001 16.264L144.449 15.112C144.769 14.6 145.345 14.408 146.113 14.408C147.585 14.408 149.569 15.304 149.569 16.328L149.505 16.584C148.673 18.632 144.513 29.64 144.385 34.248C144.385 35.144 144.449 35.72 144.769 35.72C146.881 35.656 150.913 27.464 152.769 23.432C152.897 23.112 153.089 23.048 153.345 23.048L153.665 23.112C153.857 23.176 153.985 23.368 153.985 23.624C153.985 23.752 153.985 23.752 153.921 23.944C151.809 28.488 147.841 36.872 144.833 37ZM154.158 46.408C153.198 46.408 152.366 46.088 151.918 45.576C151.662 45.32 151.598 44.936 151.598 44.552C151.598 43.976 151.854 43.336 152.11 43.08L152.238 43.016C152.43 43.016 152.622 43.144 152.622 43.272V43.336C152.622 43.4 152.494 43.656 152.494 43.848C152.494 44.04 152.622 44.296 153.07 44.424L153.838 44.552C155.566 44.552 157.742 43.08 157.934 41.352V41.224C157.934 40.584 157.358 40.328 156.718 40.328C156.014 40.328 155.182 40.584 154.67 40.904H154.542C154.094 40.904 153.198 39.816 153.198 39.24V39.112C153.39 38.536 154.542 37.192 155.31 36.36C152.43 35.144 151.342 32.584 151.342 29.576C151.342 27.656 151.79 25.544 152.558 23.496C154.094 19.272 157.55 14.408 162.222 14.408C162.67 14.408 163.182 14.472 163.63 14.536C166.126 15.048 167.086 16.968 167.086 18.824C167.086 20.04 166.638 21.32 165.998 22.088C165.55 22.664 164.91 23.048 164.27 23.048C163.886 23.048 163.438 22.92 163.054 22.6C162.862 22.472 162.734 22.28 162.734 22.152L162.862 21.768C163.118 21.32 164.398 19.144 164.398 18.12C164.398 17.8 164.27 17.608 164.014 17.544H163.822C162.03 17.544 158.382 22.024 157.038 26.824C156.782 27.784 156.59 29.064 156.59 30.28C156.59 32.584 157.23 34.888 159.022 35.464C159.342 35.592 159.662 35.656 160.046 35.656C160.494 35.656 160.942 35.592 161.454 35.4C163.694 34.568 166.894 31.88 170.926 23.432C171.054 23.176 171.246 23.048 171.438 23.048C171.566 23.048 171.694 23.112 171.822 23.176C172.014 23.24 172.142 23.432 172.142 23.688C172.142 23.816 172.142 23.88 172.078 24.008C167.854 32.904 164.27 35.784 161.774 36.68C160.878 36.936 160.11 37 159.47 37H158.766C157.998 37 157.294 36.936 156.718 36.808L155.118 38.792C155.566 38.664 156.014 38.6 156.526 38.6C157.358 38.6 158.254 38.792 158.83 39.432C159.278 39.944 159.47 40.712 159.47 41.48C159.47 41.992 159.342 42.568 159.15 43.08C158.254 45.384 156.014 46.408 154.158 46.408ZM175.802 35.016C178.298 35.016 180.794 28.808 181.434 26.824C180.41 26.056 180.026 24.904 180.026 23.816C180.026 21.96 181.178 20.104 182.394 19.784C182.202 18.952 181.882 18.312 180.922 18.312H180.666C177.594 18.824 174.266 27.528 174.266 32.136C174.266 33.736 174.65 34.888 175.61 35.016H175.802ZM175.354 37C171.322 37 169.657 33.736 169.657 29.64C169.657 23.048 174.074 14.408 180.026 14.408C180.538 14.408 181.05 14.472 181.626 14.6C184.634 15.368 185.53 18.184 185.53 21.128C185.53 23.048 185.146 25.096 184.698 26.568H184.89C187.002 26.568 189.114 25.416 190.266 23.432C190.394 23.176 190.586 23.048 190.778 23.048L191.098 23.176C191.29 23.24 191.418 23.432 191.418 23.688C191.418 23.816 191.418 23.88 191.354 24.008C190.01 26.504 187.385 27.848 184.826 27.848H184.314C182.842 31.88 179.77 37 175.354 37ZM179.322 11.4C178.362 11.4 177.402 10.888 176.698 9.224L176.634 8.904C176.634 8.456 177.082 8.136 177.466 8.136C177.658 8.136 177.786 8.2 177.914 8.392C178.298 9.032 178.746 9.288 179.194 9.288C180.026 9.288 180.922 8.648 181.946 8.072C182.458 7.752 183.034 7.56 183.546 7.56C184.314 7.56 185.082 8.072 185.786 9.544L185.85 9.864C185.85 10.248 185.53 10.568 185.146 10.568C184.954 10.568 184.762 10.504 184.57 10.248C184.314 9.864 183.994 9.736 183.674 9.736C183.098 9.736 182.33 10.248 181.306 10.824C180.666 11.144 180.026 11.4 179.322 11.4ZM195.756 26.12C198.508 26.12 202.156 20.488 202.156 18.44C202.156 18.056 202.028 17.864 201.836 17.736C201.644 17.608 201.516 17.608 201.324 17.608C199.852 17.608 197.804 20.296 197.164 21.192C196.204 22.664 195.372 24.328 194.86 25.864C195.116 26.056 195.436 26.12 195.756 26.12ZM196.972 37H196.268C190.828 36.808 188.843 33.608 188.843 29.576C188.843 27.592 189.291 25.48 190.059 23.432C191.596 19.336 194.988 14.408 199.66 14.408H199.916C202.348 14.472 204.332 15.688 204.332 18.12V18.248C204.204 22.792 199.532 28.36 196.076 28.36C195.436 28.36 194.796 28.168 194.284 27.72C194.156 28.488 194.028 29.32 194.028 30.152C194.028 32.584 194.732 35.08 196.844 35.528L197.548 35.592C197.932 35.592 198.444 35.528 198.956 35.4C201.196 34.568 204.396 31.816 208.428 23.432C208.556 23.176 208.748 23.048 208.94 23.048C209.068 23.048 209.196 23.112 209.324 23.176C209.516 23.24 209.644 23.432 209.644 23.688C209.644 23.688 209.644 23.816 209.58 23.944C205.292 32.904 201.772 35.784 199.212 36.68C198.38 36.936 197.612 37 196.972 37ZM211.062 37.128C207.285 37.128 205.493 34.632 205.493 31.88C205.493 30.408 206.005 28.872 206.965 27.592C207.285 27.144 207.797 26.952 208.309 26.952C209.782 26.952 211.638 28.296 211.638 29.128C211.638 29.32 211.574 29.448 211.382 29.576C210.422 30.472 209.526 32.776 209.526 34.12C209.526 34.568 209.654 34.952 209.846 35.08C209.974 35.144 210.102 35.208 210.23 35.208C210.614 35.208 211.062 34.888 211.382 34.504C212.278 33.352 212.534 31.752 212.534 29.96C212.534 26.888 211.766 23.304 211.766 20.488C211.766 20.04 211.766 19.592 211.83 19.144L209.526 24.072C209.398 24.328 209.206 24.456 208.95 24.456C208.63 24.456 208.309 24.136 208.309 23.816C208.309 23.752 208.309 23.624 208.373 23.496C208.95 22.344 212.278 14.472 213.43 14.472H218.23C218.614 14.472 218.87 14.792 218.87 15.112C218.87 15.24 218.806 15.368 218.742 15.496C217.59 17.224 217.27 18.952 217.27 20.68C217.27 23.368 218.038 26.056 218.038 28.808C218.038 33.032 215.734 37.128 211.062 37.128Z" fill="#31000E"/>
</svg>

