<svg width="108" height="49" viewBox="0 0 108 49" fill="none" xmlns="http://www.w3.org/2000/svg">
<g filter="url(#filter0_d_84_33)">
<path d="M15.2953 40.136H15.1673C9.27925 40.136 4.03125 36.296 4.03125 28.104C4.03125 17.16 13.1193 0.264 25.2793 0.135998C31.0393 0.135998 33.7273 3.4 33.7273 8.008C33.7273 13.512 29.6953 21.384 26.1753 23.752C25.5993 24.136 24.8953 24.328 24.0633 24.328C21.9513 24.328 19.2633 23.048 19.0713 21.64C19.0713 21.256 19.3273 21 19.7113 21C23.2313 20.68 30.2073 10.376 30.2073 5.704C30.2073 4.168 29.3113 3.528 27.9673 3.528C27.4553 3.528 27.0073 3.656 26.5593 3.72C18.3673 5.448 10.5593 21.832 10.5593 31.24C10.5593 35.016 11.9673 37.064 15.6153 37.128C22.7833 37.128 30.3353 28.808 33.9833 23.368C34.1113 23.176 34.3673 23.048 34.5593 23.048C34.9433 23.112 35.1993 23.24 35.1993 23.688L35.1353 23.944C31.8073 32.072 24.8313 40.136 15.2953 40.136ZM37.4233 37H36.6553C35.0553 37 33.3912 36.808 32.6872 35.528C32.3032 34.824 32.1112 33.864 32.1112 32.648C32.1112 31.304 32.3672 29.704 32.6872 28.04C33.7112 23.24 35.7593 17.544 36.7833 15.176C37.0393 14.664 37.6793 14.408 38.3833 14.408C39.9193 14.408 41.9033 15.368 41.9033 16.328L41.8393 16.584C41.3273 18.056 36.8473 30.728 36.8473 34.632C36.8473 35.336 36.9753 35.72 37.3593 35.72C39.4713 35.656 43.4392 27.464 45.2313 23.432C45.3593 23.176 45.6153 23.048 45.8073 23.048C45.8713 23.048 45.9993 23.048 46.1273 23.112C46.3193 23.24 46.4473 23.432 46.4473 23.624C46.4473 23.752 46.4473 23.816 46.3833 23.944C44.3353 28.488 40.4313 36.872 37.4233 37ZM38.5753 11.336C38.1273 11.336 37.7433 10.696 37.7433 10.248C37.7433 10.056 37.8073 9.864 37.9353 9.8C38.0633 9.672 42.5433 6.536 43.5033 6.024L43.9513 5.896C44.7193 5.896 45.3593 7.048 45.3593 7.88C45.3593 8.2 45.2953 8.456 45.0393 8.584C44.1433 9.032 39.3433 11.016 38.7033 11.272L38.5753 11.336ZM48.4828 37H47.5868C46.0508 37 44.5787 36.808 43.9387 35.464C43.6187 34.76 43.4907 33.8 43.4907 32.712C43.4907 24.904 50.0828 8.52 51.1068 6.152C51.4268 5.64 52.0668 5.384 52.8348 5.384C54.4988 5.384 56.6108 6.472 56.6108 7.368L56.5468 7.56C55.7788 9.608 49.0588 27.208 48.3548 33.8L48.2908 35.08C48.2908 35.464 48.2908 35.72 48.4188 35.72H48.5468C49.3788 35.72 50.5948 34.056 50.9788 33.544C52.9628 30.792 55.1388 26.12 56.4188 23.432C56.5468 23.112 56.7388 23.048 56.9948 23.048C57.0588 23.048 57.1868 23.048 57.3148 23.112C57.5068 23.24 57.6348 23.432 57.6348 23.624C57.6348 23.752 57.6348 23.816 57.5708 23.944C56.2268 26.888 54.1148 31.368 51.9388 34.248C51.2348 35.272 49.8268 36.936 48.4828 37ZM59.8623 37H59.0303C57.4303 37 55.7662 36.808 55.0622 35.464C54.6782 34.824 54.4862 33.8 54.4862 32.648C54.4862 31.304 54.7422 29.704 55.0622 28.04C56.0862 23.24 58.1983 17.544 59.1583 15.176C59.4143 14.664 60.0543 14.408 60.7583 14.408C62.2943 14.408 64.2783 15.368 64.2783 16.328L64.2143 16.584C63.7023 17.992 59.2223 30.728 59.2223 34.632C59.2223 35.336 59.3503 35.72 59.7343 35.72C61.8463 35.656 65.8142 27.464 67.6063 23.432C67.7343 23.112 67.9263 23.048 68.1823 23.048L68.5023 23.112C68.6943 23.176 68.8223 23.368 68.8223 23.624C68.8223 23.752 68.8223 23.816 68.7583 23.944C66.7103 28.488 62.8063 36.872 59.8623 37ZM64.5343 12.04C63.2543 12.04 61.3983 11.272 61.3983 10.44C61.3983 9.416 62.1663 6.92 62.5503 6.088C62.7423 5.512 63.3183 5.32 64.0223 5.32C65.4943 5.32 67.4143 6.344 67.4143 7.304C67.4143 7.432 67.4143 7.624 67.2863 7.752C66.9663 8.328 66.0703 10.632 65.6223 11.592C65.4943 11.912 65.0463 12.04 64.5343 12.04ZM72.5218 35.08C75.0178 35.08 77.5138 28.808 78.1538 26.824C77.1298 26.056 76.7458 24.904 76.7458 23.816C76.7458 21.96 77.8978 20.168 79.1138 19.784C78.9218 19.016 78.6018 18.376 77.7698 18.376H77.3858C74.3138 18.824 70.9858 27.528 70.9858 32.2C70.9858 33.8 71.3698 34.952 72.3298 35.08H72.5218ZM90.2498 37.064H89.6738C85.8978 37.064 84.1058 34.568 84.1058 31.816C84.1058 30.344 84.6178 28.808 85.5778 27.528C85.8978 27.08 86.4097 26.888 86.9218 26.888C88.3938 26.888 90.1858 28.232 90.1858 29.064C90.1858 29.256 90.1218 29.384 89.9938 29.512C89.0338 30.344 88.1378 32.648 88.1378 34.056C88.1378 34.504 88.2018 34.824 88.4578 35.016C88.5858 35.08 88.7138 35.144 88.8418 35.144C89.2258 35.144 89.6738 34.824 89.9938 34.376C90.8898 33.224 91.1458 31.624 91.1458 29.832C91.1458 26.76 90.3778 23.176 90.3778 20.36C90.3778 19.912 90.3778 19.464 90.4418 19.016C88.5858 22.408 85.8338 27.848 81.4178 27.848H81.0338C79.5618 31.88 76.4898 37.064 72.0738 37.064C68.0418 37.064 66.3777 33.8 66.3777 29.704C66.3777 23.048 70.7938 14.408 76.7458 14.408C77.2578 14.408 77.7698 14.472 78.3458 14.6C81.3538 15.432 82.2498 18.248 82.2498 21.192C82.2498 23.112 81.8658 25.096 81.4178 26.632C85.0658 26.632 87.9458 21.064 89.3538 18.312C90.3778 16.264 91.4658 14.408 92.0418 14.408H96.7778C97.1618 14.408 97.4178 14.728 97.4178 15.048C97.4178 15.176 97.4178 15.304 97.2898 15.432C96.1378 17.16 95.7538 18.888 95.7538 20.616C95.7538 23.304 96.6498 25.992 96.6498 28.744C96.6498 29.384 96.5858 30.024 96.4578 30.664C96.1378 32.072 95.7538 33.224 95.1778 34.12C96.0098 33.288 97.3538 31.496 98.3778 29.96C99.4658 28.296 100.682 26.12 101.962 23.432C102.09 23.176 102.282 23.048 102.538 23.048C102.858 23.048 103.178 23.304 103.178 23.688C103.178 23.752 103.178 23.88 103.114 24.008C101.898 26.44 100.682 28.744 99.3378 30.856C98.3778 32.264 97.4178 33.608 96.3298 34.76C94.4098 36.936 92.1698 37.064 90.2498 37.064Z" fill="#31000E"/>
</g>
<defs>
<filter id="filter0_d_84_33" x="0.03125" y="0.135986" width="107.146" height="48" filterUnits="userSpaceOnUse" color-interpolation-filters="sRGB">
<feFlood flood-opacity="0" result="BackgroundImageFix"/>
<feColorMatrix in="SourceAlpha" type="matrix" values="0 0 0 0 0 0 0 0 0 0 0 0 0 0 0 0 0 0 127 0" result="hardAlpha"/>
<feOffset dy="4"/>
<feGaussianBlur stdDeviation="2"/>
<feComposite in2="hardAlpha" operator="out"/>
<feColorMatrix type="matrix" values="0 0 0 0 0 0 0 0 0 0 0 0 0 0 0 0 0 0 0.1 0"/>
<feBlend mode="normal" in2="BackgroundImageFix" result="effect1_dropShadow_84_33"/>
<feBlend mode="normal" in="SourceGraphic" in2="effect1_dropShadow_84_33" result="shape"/>
</filter>
</defs>
</svg>
