<svg width="149" height="61" viewBox="0 0 149 61" fill="none" xmlns="http://www.w3.org/2000/svg">
<path d="M16.9429 60.704H16.7509C7.91888 60.704 0.046875 54.944 0.046875 42.656C0.046875 26.24 13.6789 0.896 31.9189 0.703997C40.5589 0.703997 44.5909 5.6 44.5909 12.512C44.5909 20.768 38.5429 32.576 33.2629 36.128C32.3989 36.704 31.3429 36.992 30.0949 36.992C26.9269 36.992 22.8949 35.072 22.6069 32.96C22.6069 32.384 22.9909 32 23.5669 32C28.8469 31.52 39.3109 16.064 39.3109 9.056C39.3109 6.752 37.9669 5.792 35.9509 5.792C35.1829 5.792 34.5109 5.984 33.8389 6.08C21.5509 8.672 9.83888 33.248 9.83888 47.36C9.83888 53.024 11.9509 56.096 17.4229 56.192C28.1749 56.192 39.5029 43.712 44.9749 35.552C45.1669 35.264 45.5509 35.072 45.8389 35.072C46.4149 35.168 46.7989 35.36 46.7989 36.032L46.7029 36.416C41.7109 48.608 31.2469 60.704 16.9429 60.704ZM50.1349 56H48.9829C46.5829 56 44.0869 55.712 43.0309 53.792C42.4549 52.736 42.1669 51.296 42.1669 49.472C42.1669 47.456 42.5509 45.056 43.0309 42.56C44.5669 35.36 47.6389 26.816 49.1749 23.264C49.5589 22.496 50.5189 22.112 51.5749 22.112C53.8789 22.112 56.8549 23.552 56.8549 24.992L56.7589 25.376C55.9909 27.584 49.2709 46.592 49.2709 52.448C49.2709 53.504 49.4629 54.08 50.0389 54.08C53.2069 53.984 59.1589 41.696 61.8469 35.648C62.0389 35.264 62.4229 35.072 62.7109 35.072C62.8069 35.072 62.9989 35.072 63.1909 35.168C63.4789 35.36 63.6709 35.648 63.6709 35.936C63.6709 36.128 63.6709 36.224 63.5749 36.416C60.5029 43.232 54.6469 55.808 50.1349 56ZM51.8629 17.504C51.1909 17.504 50.6149 16.544 50.6149 15.872C50.6149 15.584 50.7109 15.296 50.9029 15.2C51.0949 15.008 57.8149 10.304 59.2549 9.536L59.9269 9.344C61.0789 9.344 62.0389 11.072 62.0389 12.32C62.0389 12.8 61.9429 13.184 61.5589 13.376C60.2149 14.048 53.0149 17.024 52.0549 17.408L51.8629 17.504ZM66.7241 56H65.3801C63.0761 56 60.8681 55.712 59.9081 53.696C59.4281 52.64 59.2361 51.2 59.2361 49.568C59.2361 37.856 69.1241 13.28 70.6601 9.728C71.1401 8.96 72.1001 8.576 73.2521 8.576C75.7481 8.576 78.9161 10.208 78.9161 11.552L78.8201 11.84C77.6681 14.912 67.5881 41.312 66.5321 51.2L66.4361 53.12C66.4361 53.696 66.4361 54.08 66.6281 54.08H66.8201C68.0681 54.08 69.8921 51.584 70.4681 50.816C73.4441 46.688 76.7081 39.68 78.6281 35.648C78.8201 35.168 79.1081 35.072 79.4921 35.072C79.5881 35.072 79.7801 35.072 79.9721 35.168C80.2601 35.36 80.4521 35.648 80.4521 35.936C80.4521 36.128 80.4521 36.224 80.3561 36.416C78.3401 40.832 75.1721 47.552 71.9081 51.872C70.8521 53.408 68.7401 55.904 66.7241 56ZM83.7934 56H82.5454C80.1454 56 77.6494 55.712 76.5934 53.696C76.0174 52.736 75.7294 51.2 75.7294 49.472C75.7294 47.456 76.1134 45.056 76.5934 42.56C78.1294 35.36 81.2974 26.816 82.7374 23.264C83.1214 22.496 84.0814 22.112 85.1374 22.112C87.4414 22.112 90.4174 23.552 90.4174 24.992L90.3214 25.376C89.5534 27.488 82.8334 46.592 82.8334 52.448C82.8334 53.504 83.0254 54.08 83.6014 54.08C86.7694 53.984 92.7214 41.696 95.4094 35.648C95.6014 35.168 95.8894 35.072 96.2734 35.072L96.7534 35.168C97.0414 35.264 97.2334 35.552 97.2334 35.936C97.2334 36.128 97.2334 36.224 97.1374 36.416C94.0654 43.232 88.2094 55.808 83.7934 56ZM90.8014 18.56C88.8814 18.56 86.0974 17.408 86.0974 16.16C86.0974 14.624 87.2494 10.88 87.8254 9.632C88.1134 8.768 88.9774 8.48 90.0334 8.48C92.2414 8.48 95.1214 10.016 95.1214 11.456C95.1214 11.648 95.1214 11.936 94.9294 12.128C94.4494 12.992 93.1054 16.448 92.4334 17.888C92.2414 18.368 91.5694 18.56 90.8014 18.56ZM102.783 53.12C106.527 53.12 110.271 43.712 111.231 40.736C109.695 39.584 109.119 37.856 109.119 36.224C109.119 33.44 110.847 30.752 112.671 30.176C112.383 29.024 111.903 28.064 110.655 28.064H110.079C105.471 28.736 100.479 41.792 100.479 48.8C100.479 51.2 101.055 52.928 102.495 53.12H102.783ZM129.375 56.096H128.511C122.847 56.096 120.159 52.352 120.159 48.224C120.159 46.016 120.927 43.712 122.367 41.792C122.847 41.12 123.615 40.832 124.383 40.832C126.591 40.832 129.279 42.848 129.279 44.096C129.279 44.384 129.183 44.576 128.991 44.768C127.551 46.016 126.207 49.472 126.207 51.584C126.207 52.256 126.303 52.736 126.687 53.024C126.879 53.12 127.071 53.216 127.263 53.216C127.839 53.216 128.511 52.736 128.991 52.064C130.335 50.336 130.719 47.936 130.719 45.248C130.719 40.64 129.567 35.264 129.567 31.04C129.567 30.368 129.567 29.696 129.663 29.024C126.879 34.112 122.751 42.272 116.127 42.272H115.551C113.343 48.32 108.735 56.096 102.111 56.096C96.0626 56.096 93.5666 51.2 93.5666 45.056C93.5666 35.072 100.191 22.112 109.119 22.112C109.887 22.112 110.655 22.208 111.519 22.4C116.031 23.648 117.375 27.872 117.375 32.288C117.375 35.168 116.799 38.144 116.127 40.448C121.599 40.448 125.919 32.096 128.031 27.968C129.567 24.896 131.199 22.112 132.063 22.112H139.167C139.743 22.112 140.127 22.592 140.127 23.072C140.127 23.264 140.127 23.456 139.935 23.648C138.207 26.24 137.631 28.832 137.631 31.424C137.631 35.456 138.975 39.488 138.975 43.616C138.975 44.576 138.879 45.536 138.687 46.496C138.207 48.608 137.631 50.336 136.767 51.68C138.015 50.432 140.031 47.744 141.567 45.44C143.199 42.944 145.023 39.68 146.943 35.648C147.135 35.264 147.423 35.072 147.807 35.072C148.287 35.072 148.767 35.456 148.767 36.032C148.767 36.128 148.767 36.32 148.671 36.512C146.847 40.16 145.023 43.616 143.007 46.784C141.567 48.896 140.127 50.912 138.495 52.64C135.615 55.904 132.255 56.096 129.375 56.096Z" fill="#31000E"/>
</svg>
