<svg width="356" height="82" viewBox="0 0 356 82" fill="none" xmlns="http://www.w3.org/2000/svg">
<g filter="url(#filter0_d_84_45)">
<path d="M31.2371 60.704C25.7651 60.704 17.7971 57.728 14.3411 53.312C14.0531 52.928 13.9571 52.544 13.9571 52.256C13.9571 51.488 14.3411 50.912 14.7251 50.912H14.9171C17.3171 51.968 20.1011 53.216 22.2131 53.696V53.024C22.2131 45.248 31.8131 15.488 34.6931 8.864C34.9811 8.096 35.9411 7.808 37.0931 7.808C39.4931 7.808 42.7571 9.248 42.7571 10.784L42.6611 11.168C40.6451 16.352 29.1251 47.552 29.1251 54.08V54.656C44.1011 54.56 54.3731 33.152 54.3731 18.752C54.3731 12.224 52.2611 7.136 47.4611 6.17599C45.4451 5.792 43.2371 5.6 41.0291 5.6C35.3651 5.6 29.4131 6.848 24.2291 9.152C17.1251 12.32 11.6531 17.312 10.4051 23.168C10.3091 23.744 9.92513 24.032 9.44513 24.032C9.15713 24.032 8.96513 24.032 8.67713 23.84C6.46913 22.88 4.45312 18.272 4.45312 14.72C4.45312 13.184 4.83713 11.744 5.70113 10.976C14.5331 3.392 25.3811 0.703997 36.5171 0.703997H37.6691C49.6691 0.799995 60.4211 5.792 62.0531 18.656C62.2451 20.096 62.3411 21.536 62.3411 22.976C62.3411 40.448 49.6691 60.704 31.2371 60.704ZM73.3676 39.68C77.4956 39.68 82.9676 31.232 82.9676 28.16C82.9676 27.584 82.7756 27.296 82.4876 27.104C82.1996 26.912 82.0076 26.912 81.7196 26.912C79.5116 26.912 76.4396 30.944 75.4796 32.288C74.0396 34.496 72.7916 36.992 72.0236 39.296C72.4076 39.584 72.8876 39.68 73.3676 39.68ZM75.1916 56H74.1356C65.9756 55.712 62.9996 50.912 62.9996 44.864C62.9996 41.888 63.6716 38.72 64.8236 35.648C67.1276 29.504 72.2156 22.112 79.2236 22.112H79.6076C83.2556 22.208 86.2316 24.032 86.2316 27.68V27.872C86.0396 34.688 79.0316 43.04 73.8476 43.04C72.8876 43.04 71.9276 42.752 71.1596 42.08C70.9676 43.232 70.7756 44.48 70.7756 45.728C70.7756 49.376 71.8316 53.12 74.9996 53.792L76.0556 53.888C76.6316 53.888 77.3996 53.792 78.1676 53.6C81.5276 52.352 86.3276 48.224 92.3756 35.648C92.5676 35.264 92.8556 35.072 93.1436 35.072C93.3356 35.072 93.5276 35.168 93.7196 35.264C94.0076 35.36 94.1996 35.648 94.1996 36.032C94.1996 36.032 94.1996 36.224 94.1036 36.416C87.6716 49.856 82.3916 54.176 78.5516 55.52C77.3036 55.904 76.1516 56 75.1916 56ZM101.799 50.432C102.375 50.432 103.047 49.952 103.815 49.184C104.583 48.32 105.255 47.456 105.831 46.496C106.503 45.632 106.887 44.96 106.983 44.48C103.815 44.672 101.799 45.824 100.935 48.032C100.743 48.416 100.743 48.8 100.743 49.088C100.743 49.952 101.031 50.432 101.799 50.432ZM89.1266 73.664C85.9586 73.664 84.4226 72.416 84.4226 69.92C84.4226 66.656 85.5746 60.704 87.7826 52.16C91.3346 37.856 94.3106 28.256 96.7106 23.264C97.1906 22.496 98.0546 22.112 99.1106 22.112C100.359 22.112 101.607 22.4 102.855 22.976C104.103 23.552 104.679 24.224 104.679 24.896L104.295 26.048C106.311 23.456 108.519 22.112 110.919 22.112C114.087 22.112 116.103 23.84 117.063 27.296C117.543 28.736 117.735 30.272 117.735 31.808C117.639 35.264 116.967 38.624 115.719 41.984C119.847 41.408 122.727 39.296 124.551 35.552C124.743 35.264 125.031 35.072 125.319 35.072C125.991 35.072 126.279 35.456 126.279 36.32C123.879 41.024 120.135 43.616 114.855 44C111.783 50.624 107.655 53.984 102.567 53.984C99.8786 53.984 98.5346 52.64 98.5346 49.952C98.5346 48.032 99.3986 46.208 101.127 44.576C102.951 43.232 105.255 42.56 107.943 42.56C109.383 38.816 110.151 35.168 110.151 31.616C110.151 28.832 109.575 27.488 108.519 27.488C107.463 27.488 106.215 28.64 104.679 30.848C102.759 33.536 101.127 36.512 99.7826 39.872C94.5026 57.152 91.8146 68 91.8146 72.416C91.8146 73.184 91.5266 73.568 91.0466 73.568L89.1266 73.664ZM131.749 53.024C135.493 53.024 139.237 43.712 140.293 40.736C138.757 39.584 138.181 37.856 138.181 36.224C138.181 33.44 139.909 30.656 141.733 30.176C141.445 28.928 140.869 27.968 139.621 27.968H139.141C134.533 28.736 129.445 41.792 129.445 48.704C129.445 51.104 130.021 52.832 131.461 53.024H131.749ZM131.077 56C125.029 56 122.533 51.104 122.533 44.96C122.533 35.072 129.157 22.112 138.085 22.112C138.853 22.112 139.621 22.208 140.485 22.4C145.093 23.552 146.437 27.872 146.437 32.384C146.437 35.168 145.861 38.144 145.189 40.352C148.357 40.352 151.813 38.72 153.445 35.552C153.637 35.168 153.925 35.072 154.213 35.072C154.405 35.072 154.597 35.168 154.789 35.264C155.077 35.36 155.173 35.648 155.173 35.936C155.173 36.128 155.173 36.32 155.077 36.512C153.157 40.16 149.125 42.272 145.285 42.272H144.517C142.405 48.32 137.701 56 131.077 56ZM158.606 56H157.358C154.958 56 152.462 55.712 151.406 53.696C150.83 52.736 150.542 51.2 150.542 49.472C150.542 47.456 150.926 45.056 151.406 42.56C152.942 35.36 156.11 26.816 157.55 23.264C157.934 22.496 158.894 22.112 159.95 22.112C162.254 22.112 165.23 23.552 165.23 24.992L165.134 25.376C164.366 27.488 157.646 46.592 157.646 52.448C157.646 53.504 157.838 54.08 158.414 54.08C161.582 53.984 167.534 41.696 170.222 35.648C170.414 35.168 170.702 35.072 171.086 35.072L171.566 35.168C171.854 35.264 172.046 35.552 172.046 35.936C172.046 36.128 172.046 36.224 171.95 36.416C168.878 43.232 163.022 55.808 158.606 56ZM165.614 18.56C163.694 18.56 160.91 17.408 160.91 16.16C160.91 14.624 162.062 10.88 162.638 9.632C162.926 8.768 163.79 8.48 164.846 8.48C167.054 8.48 169.934 10.016 169.934 11.456C169.934 11.648 169.934 11.936 169.742 12.128C169.262 12.992 167.918 16.448 167.246 17.888C167.054 18.368 166.382 18.56 165.614 18.56ZM207.259 56.096C203.899 56.096 201.403 55.232 201.403 50.528V49.664C201.691 43.232 207.067 28.064 207.163 27.008C207.163 26.528 207.067 26.336 206.779 26.336C206.491 26.336 206.107 26.72 205.819 27.008C204.379 28.352 202.843 30.08 201.499 31.904C197.659 36.896 194.299 42.464 192.955 44.864C191.803 49.376 190.747 53.216 190.747 54.752V54.944C190.747 55.808 190.267 56 189.691 56H188.635C184.987 56 183.451 54.368 183.451 51.2L183.547 49.856C184.219 43.328 188.539 31.04 189.595 27.392L189.691 26.72C189.691 26.432 189.595 26.336 189.403 26.336C189.211 26.336 188.827 26.528 188.347 26.912C186.715 28.256 184.123 31.616 183.835 31.904C180.091 36.8 176.731 42.464 175.387 44.864C174.139 49.088 173.275 52.832 173.179 55.04C173.179 55.712 172.699 56 172.123 56H171.451C169.147 56 166.075 55.52 165.979 53.312V53.216C165.979 47.456 172.411 27.488 174.043 23.264C174.331 22.496 175.195 22.112 176.443 22.112C178.747 22.112 181.915 23.456 181.915 24.992L181.819 25.376C180.187 29.408 178.939 33.44 177.595 37.568C179.035 35.36 180.667 33.056 182.395 30.752C184.315 28.256 187.099 24.992 189.787 23.168C190.939 22.4 192.187 22.112 193.339 22.112C195.739 22.112 197.755 23.552 197.755 26.144L197.659 27.296C197.275 29.312 195.931 34.112 194.779 38.144C196.315 35.84 198.043 33.248 199.963 30.752C201.979 28.256 204.667 24.992 207.355 23.168C208.507 22.4 209.755 22.112 210.907 22.112C213.307 22.112 215.323 23.552 215.323 26.144L215.227 27.296C213.883 33.92 209.275 46.784 209.275 52.352C209.275 53.504 209.371 54.08 209.851 54.08C211.099 53.984 212.059 53.216 213.499 50.72C215.227 47.936 217.339 43.232 220.699 35.648C220.891 35.264 221.179 35.072 221.467 35.072C222.043 35.072 222.523 35.456 222.523 36.032C222.523 36.128 222.523 36.224 222.427 36.416C219.067 44.096 216.859 48.896 215.131 51.776C213.211 54.848 211.771 55.904 209.947 56L207.259 56.096ZM229.086 39.68C233.214 39.68 238.686 31.232 238.686 28.16C238.686 27.584 238.494 27.296 238.206 27.104C237.918 26.912 237.726 26.912 237.438 26.912C235.23 26.912 232.158 30.944 231.198 32.288C229.758 34.496 228.51 36.992 227.742 39.296C228.126 39.584 228.606 39.68 229.086 39.68ZM230.91 56H229.854C221.694 55.712 218.718 50.912 218.718 44.864C218.718 41.888 219.39 38.72 220.542 35.648C222.846 29.504 227.934 22.112 234.942 22.112H235.326C238.974 22.208 241.95 24.032 241.95 27.68V27.872C241.758 34.688 234.75 43.04 229.566 43.04C228.606 43.04 227.646 42.752 226.878 42.08C226.686 43.232 226.494 44.48 226.494 45.728C226.494 49.376 227.55 53.12 230.718 53.792L231.774 53.888C232.35 53.888 233.118 53.792 233.886 53.6C237.246 52.352 242.046 48.224 248.094 35.648C248.286 35.264 248.574 35.072 248.862 35.072C249.054 35.072 249.246 35.168 249.438 35.264C249.726 35.36 249.918 35.648 249.918 36.032C249.918 36.032 249.918 36.224 249.822 36.416C243.39 49.856 238.11 54.176 234.27 55.52C233.022 55.904 231.87 56 230.91 56ZM267.693 56.096C264.237 56.096 261.837 55.328 261.837 50.528C262.029 43.52 267.405 27.968 267.501 26.816C267.501 26.528 267.405 26.336 267.213 26.336C266.925 26.336 266.541 26.624 266.253 26.912C261.645 31.04 255.117 41.792 253.389 44.768C252.237 48.992 251.277 52.832 251.181 55.04C251.181 55.904 250.701 56 249.933 56H249.453C247.149 56 244.077 55.52 243.981 53.312C243.981 48.416 249.645 29.504 252.045 23.264C252.333 22.496 253.293 22.112 254.445 22.112C256.749 22.112 259.917 23.456 259.917 24.992L259.821 25.376C259.053 27.2 255.885 36.704 255.597 37.472C257.037 35.36 258.669 32.96 260.397 30.752C263.277 27.008 267.309 22.112 271.341 22.112C273.741 22.112 275.757 23.552 275.757 26.144L275.661 27.296C274.317 33.92 269.709 46.784 269.709 52.352C269.709 53.504 269.805 54.08 270.285 54.08C272.685 53.888 274.413 50.72 281.133 35.648C281.325 35.264 281.613 35.072 281.901 35.072C282.477 35.072 282.957 35.456 282.957 36.032C282.957 36.128 282.957 36.224 282.861 36.416C276.141 51.68 274.029 55.808 270.381 56L267.693 56.096ZM286.197 56H284.757C282.453 56 280.245 55.712 279.381 53.696C278.901 52.64 278.613 51.104 278.613 49.376C278.613 41.888 282.549 29.408 286.101 19.808C284.181 19.712 282.357 19.712 280.821 19.712C280.245 19.616 279.861 19.136 279.861 18.752C279.861 18.272 280.245 17.792 280.821 17.792L286.773 17.888C288.021 14.624 289.173 11.84 290.133 9.728C290.421 8.864 291.381 8.576 292.533 8.576C295.029 8.576 298.485 10.112 298.485 11.552L298.389 11.84C297.525 13.76 296.661 15.872 295.797 18.176L300.597 18.272C301.173 18.272 301.557 18.752 301.557 19.232C301.557 19.712 301.173 20.192 300.501 20.192C298.869 20.096 297.045 20.096 295.029 20.096C292.053 28.928 288.789 38.816 286.869 46.976C286.677 47.552 285.813 51.488 285.813 53.216C285.813 53.888 285.909 54.08 286.197 54.08C287.253 54.08 289.077 51.776 289.749 50.912C292.725 46.88 296.181 39.776 298.101 35.648C298.293 35.168 298.581 35.072 298.965 35.072C299.061 35.072 299.253 35.072 299.445 35.168C299.733 35.36 299.925 35.648 299.925 36.032C299.925 36.032 299.925 36.224 299.829 36.416C297.813 41.024 294.261 48.128 290.997 52.448C289.845 53.792 288.021 55.904 286.197 56ZM305.376 53.12C309.12 53.12 312.864 43.712 313.824 40.736C312.288 39.584 311.712 37.856 311.712 36.224C311.712 33.44 313.44 30.752 315.264 30.176C314.976 29.024 314.496 28.064 313.248 28.064H312.672C308.064 28.736 303.072 41.792 303.072 48.8C303.072 51.2 303.648 52.928 305.088 53.12H305.376ZM331.968 56.096H331.104C325.44 56.096 322.752 52.352 322.752 48.224C322.752 46.016 323.52 43.712 324.96 41.792C325.44 41.12 326.208 40.832 326.976 40.832C329.184 40.832 331.872 42.848 331.872 44.096C331.872 44.384 331.776 44.576 331.584 44.768C330.144 46.016 328.8 49.472 328.8 51.584C328.8 52.256 328.896 52.736 329.28 53.024C329.472 53.12 329.664 53.216 329.856 53.216C330.432 53.216 331.104 52.736 331.584 52.064C332.928 50.336 333.312 47.936 333.312 45.248C333.312 40.64 332.16 35.264 332.16 31.04C332.16 30.368 332.16 29.696 332.256 29.024C329.472 34.112 325.344 42.272 318.72 42.272H318.144C315.936 48.32 311.328 56.096 304.704 56.096C298.656 56.096 296.16 51.2 296.16 45.056C296.16 35.072 302.784 22.112 311.712 22.112C312.48 22.112 313.248 22.208 314.112 22.4C318.624 23.648 319.968 27.872 319.968 32.288C319.968 35.168 319.392 38.144 318.72 40.448C324.192 40.448 328.512 32.096 330.624 27.968C332.16 24.896 333.792 22.112 334.656 22.112H341.76C342.336 22.112 342.72 22.592 342.72 23.072C342.72 23.264 342.72 23.456 342.528 23.648C340.8 26.24 340.224 28.832 340.224 31.424C340.224 35.456 341.568 39.488 341.568 43.616C341.568 44.576 341.472 45.536 341.28 46.496C340.8 48.608 340.224 50.336 339.36 51.68C340.608 50.432 342.624 47.744 344.16 45.44C345.792 42.944 347.616 39.68 349.536 35.648C349.728 35.264 350.016 35.072 350.4 35.072C350.88 35.072 351.36 35.456 351.36 36.032C351.36 36.128 351.36 36.32 351.264 36.512C349.44 40.16 347.616 43.616 345.6 46.784C344.16 48.896 342.72 50.912 341.088 52.64C338.208 55.904 334.848 56.096 331.968 56.096Z" fill="black"/>
</g>
<defs>
<filter id="filter0_d_84_45" x="0.453125" y="0.703979" width="354.907" height="80.9601" filterUnits="userSpaceOnUse" color-interpolation-filters="sRGB">
<feFlood flood-opacity="0" result="BackgroundImageFix"/>
<feColorMatrix in="SourceAlpha" type="matrix" values="0 0 0 0 0 0 0 0 0 0 0 0 0 0 0 0 0 0 127 0" result="hardAlpha"/>
<feOffset dy="4"/>
<feGaussianBlur stdDeviation="2"/>
<feComposite in2="hardAlpha" operator="out"/>
<feColorMatrix type="matrix" values="0 0 0 0 0 0 0 0 0 0 0 0 0 0 0 0 0 0 0.1 0"/>
<feBlend mode="normal" in2="BackgroundImageFix" result="effect1_dropShadow_84_45"/>
<feBlend mode="normal" in="SourceGraphic" in2="effect1_dropShadow_84_45" result="shape"/>
</filter>
</defs>
</svg>
