<svg width="428" height="83" viewBox="0 0 428 83" fill="none" xmlns="http://www.w3.org/2000/svg">
<g filter="url(#filter0_d_82_6)">
<path d="M30.909 60.704C25.437 60.704 17.469 57.728 14.013 53.312C13.725 52.928 13.629 52.544 13.629 52.256C13.629 51.488 14.013 50.912 14.397 50.912H14.589C16.989 51.968 19.773 53.216 21.885 53.696V53.024C21.885 45.248 31.485 15.488 34.365 8.864C34.653 8.096 35.613 7.808 36.765 7.808C39.165 7.808 42.429 9.248 42.429 10.784L42.333 11.168C40.317 16.352 28.797 47.552 28.797 54.08V54.656C43.773 54.56 54.045 33.152 54.045 18.752C54.045 12.224 51.933 7.136 47.133 6.17599C45.117 5.792 42.909 5.6 40.701 5.6C35.037 5.6 29.085 6.848 23.901 9.152C16.797 12.32 11.325 17.312 10.077 23.168C9.981 23.744 9.597 24.032 9.117 24.032C8.829 24.032 8.637 24.032 8.349 23.84C6.141 22.88 4.125 18.272 4.125 14.72C4.125 13.184 4.509 11.744 5.373 10.976C14.205 3.392 25.053 0.703997 36.189 0.703997H37.341C49.341 0.799995 60.093 5.792 61.725 18.656C61.917 20.096 62.013 21.536 62.013 22.976C62.013 40.448 49.341 60.704 30.909 60.704ZM69.8715 56H68.6235C66.2235 56 63.7275 55.712 62.6715 53.696C62.0955 52.736 61.8075 51.2 61.8075 49.472C61.8075 47.456 62.1915 45.056 62.6715 42.56C64.2075 35.36 67.3755 26.816 68.8155 23.264C69.1995 22.496 70.1595 22.112 71.2155 22.112C73.5195 22.112 76.4955 23.552 76.4955 24.992L76.3995 25.376C75.6315 27.488 68.9115 46.592 68.9115 52.448C68.9115 53.504 69.1035 54.08 69.6795 54.08C72.8475 53.984 78.7995 41.696 81.4875 35.648C81.6795 35.168 81.9675 35.072 82.3515 35.072L82.8315 35.168C83.1195 35.264 83.3115 35.552 83.3115 35.936C83.3115 36.128 83.3115 36.224 83.2155 36.416C80.1435 43.232 74.2875 55.808 69.8715 56ZM76.8795 18.56C74.9595 18.56 72.1755 17.408 72.1755 16.16C72.1755 14.624 73.3275 10.88 73.9035 9.632C74.1915 8.768 75.0555 8.48 76.1115 8.48C78.3195 8.48 81.1995 10.016 81.1995 11.456C81.1995 11.648 81.1995 11.936 81.0075 12.128C80.5275 12.992 79.1835 16.448 78.5115 17.888C78.3195 18.368 77.6475 18.56 76.8795 18.56ZM91.6448 56H90.5888C82.4288 55.712 79.4527 50.912 79.4527 44.864C79.4527 41.888 80.1247 38.72 81.2767 35.648C83.6768 29.408 88.7648 22.112 95.7728 22.112C96.4448 22.112 97.2128 22.208 97.8848 22.304C101.725 23.072 103.165 25.856 103.165 28.64C103.165 30.464 102.493 32.384 101.437 33.632C100.669 34.496 99.8048 34.976 98.8448 34.976C98.2688 34.976 97.5968 34.784 97.0208 34.4C96.7328 34.208 96.6368 33.92 96.6368 33.536C96.6368 33.44 96.6368 33.248 96.7328 33.152C97.1168 32.48 99.0368 29.216 99.0368 27.68C99.0368 27.2 98.8448 26.912 98.4608 26.816H98.1728C95.4848 26.816 90.0128 33.536 88.0928 40.736C87.6128 42.176 87.3248 44.096 87.3248 46.016C87.3248 49.376 88.2848 52.736 91.0688 53.696C91.5488 53.792 92.0288 53.888 92.5088 53.888C93.1808 53.888 93.8528 53.792 94.6208 53.6C98.0768 52.352 102.877 48.224 108.925 35.648C109.117 35.168 109.405 35.072 109.693 35.072C109.981 35.072 110.173 35.168 110.173 35.168C110.461 35.36 110.653 35.648 110.653 36.032C110.653 36.032 110.653 36.224 110.557 36.416C104.221 49.76 98.9408 54.08 95.1008 55.424C93.7568 55.904 92.6048 56 91.6448 56ZM115.946 48.8C118.826 48.704 124.01 38.624 124.97 36.224C125.45 34.976 126.314 32.384 126.314 30.272C126.314 28.928 125.93 27.872 124.874 27.584L124.298 27.488C119.978 27.488 114.506 40.544 114.506 46.208C114.506 47.84 114.986 48.8 115.946 48.8ZM130.25 56H129.098C126.698 56 124.202 55.712 123.146 53.696C122.57 52.736 122.378 51.296 122.378 49.664C122.378 48.704 122.474 47.744 122.57 46.592C120.362 50.432 117.29 54.176 113.546 54.176H113.354C108.745 54.08 106.825 50.24 106.825 45.248C106.825 35.744 113.738 22.208 123.242 22.208H123.338C125.834 22.208 127.85 23.072 129.002 24.896L129.674 23.168C130.154 22.4 131.018 22.112 132.17 22.112C134.378 22.112 137.354 23.456 137.354 24.992L137.258 25.376C136.01 28.448 129.77 44.96 129.578 51.872C129.578 53.216 129.674 54.08 130.154 54.08C133.322 53.984 139.37 41.696 142.154 35.648C142.346 35.168 142.634 35.072 143.018 35.072L143.498 35.168C143.786 35.264 143.978 35.552 143.978 35.936C143.978 36.128 143.978 36.128 143.882 36.416C140.714 43.232 134.762 55.808 130.25 56ZM146.061 56.192C140.397 56.192 137.709 52.448 137.709 48.32C137.709 46.112 138.477 43.808 139.917 41.888C140.397 41.216 141.165 40.928 141.933 40.928C144.141 40.928 146.925 42.944 146.925 44.192C146.925 44.48 146.829 44.672 146.541 44.864C145.101 46.208 143.757 49.664 143.757 51.68C143.757 52.352 143.949 52.928 144.237 53.12C144.429 53.216 144.621 53.312 144.813 53.312C145.389 53.312 146.061 52.832 146.541 52.256C147.885 50.528 148.269 48.128 148.269 45.44C148.269 40.832 147.117 35.456 147.117 31.232C147.117 30.56 147.117 29.888 147.213 29.216L143.757 36.608C143.565 36.992 143.277 37.184 142.893 37.184C142.413 37.184 141.933 36.704 141.933 36.224C141.933 36.128 141.933 35.936 142.029 35.744C142.893 34.016 147.885 22.208 149.613 22.208H156.813C157.389 22.208 157.773 22.688 157.773 23.168C157.773 23.36 157.677 23.552 157.581 23.744C155.853 26.336 155.373 28.928 155.373 31.52C155.373 35.552 156.525 39.584 156.525 43.712C156.525 50.048 153.069 56.192 146.061 56.192ZM201.41 56H200.066C197.762 56 195.554 55.712 194.594 53.696C194.114 52.64 193.922 51.296 193.922 49.664C193.922 48.512 194.018 47.168 194.21 45.824C191.81 49.952 188.45 54.176 184.418 54.176H184.322C179.714 54.08 177.794 50.24 177.794 45.248C177.794 35.744 184.706 22.208 194.21 22.208H194.306C196.61 22.208 198.626 22.88 199.778 24.512C202.082 17.792 204.386 12.032 205.346 9.728C205.73 8.96 206.69 8.672 207.938 8.672C210.53 8.672 213.89 10.016 213.89 11.36V11.648C212.834 14.816 202.274 41.312 201.218 51.2L201.122 53.312C201.122 53.792 201.218 54.08 201.314 54.08C202.082 54.08 203.234 53.024 203.426 52.832C206.69 49.472 211.106 40.544 213.314 35.648C213.506 35.168 213.794 35.072 214.178 35.072L214.658 35.168C215.042 35.36 215.138 35.552 215.138 35.936C215.138 36.128 215.138 36.224 215.042 36.416C212.642 41.696 208.514 50.336 204.674 54.176C203.618 55.232 202.466 56 201.41 56ZM186.818 48.8C189.794 48.704 195.17 38.816 196.13 36.32C196.514 35.36 197.378 32.576 197.378 30.368C197.378 28.736 196.898 27.488 195.458 27.488H195.362C190.85 27.488 185.378 40.544 185.378 46.208C185.378 47.744 185.762 48.8 186.818 48.8ZM221.537 39.776C225.665 39.776 231.041 31.328 231.041 28.256C231.041 27.776 230.945 27.392 230.657 27.2C230.369 27.104 230.177 27.008 229.889 27.008C227.681 27.008 224.513 31.136 223.553 32.48C222.113 34.688 220.865 37.184 220.097 39.392C220.577 39.68 220.961 39.776 221.537 39.776ZM222.785 56.192H222.209C214.049 55.904 211.073 51.008 211.073 44.96C211.073 42.08 211.745 38.912 212.897 35.84C215.297 29.6 220.385 22.208 227.489 22.208H227.777C231.425 22.304 234.401 24.224 234.401 27.872V28.064C234.209 34.88 227.201 43.232 222.017 43.232C221.057 43.232 220.097 42.944 219.329 42.272C219.041 43.424 218.945 44.672 218.945 46.016C218.945 49.568 220.097 53.312 223.169 53.984L224.225 54.08C227.393 54.08 230.081 51.296 232.097 49.28C232.385 48.992 232.673 48.896 232.961 48.896C233.249 48.896 233.441 48.992 233.633 49.184L233.825 49.76C233.825 50.048 233.729 50.336 233.537 50.432C230.753 54.176 227.297 56.192 222.785 56.192ZM258.804 56.096H257.844C255.54 56.096 253.044 55.712 252.564 53.504L252.468 52.352C252.468 49.664 253.812 44.192 255.636 38.048C258.9 26.912 263.7 13.376 265.428 9.728C265.716 8.96 266.676 8.672 267.828 8.672C270.228 8.672 273.492 10.016 273.492 11.552L273.396 11.936C272.724 13.664 270.612 19.136 268.308 25.664C269.94 23.648 271.956 22.112 274.356 22.112H274.644C279.54 22.112 281.076 27.104 281.364 31.616V32.48C281.364 35.168 280.884 38.144 280.116 40.832C283.188 40.256 286.164 39.008 287.604 35.744C287.796 35.264 288.18 35.072 288.468 35.072C288.564 35.072 288.756 35.072 288.948 35.168C289.236 35.264 289.428 35.648 289.428 36.032C289.428 36.128 289.428 36.32 289.332 36.512C287.22 41.024 283.476 42.368 279.444 42.848C277.428 48.32 273.972 53.216 269.46 54.464C268.884 54.56 268.308 54.656 267.732 54.656C264.66 54.656 262.644 52.256 262.644 49.28C262.644 47.552 263.316 45.632 264.948 43.904C266.676 42.272 269.076 41.792 271.572 41.504C272.532 38.816 273.492 34.592 273.492 31.328L273.3 29.12C273.108 28.16 272.916 27.584 272.244 27.584H272.052C269.172 27.776 264.372 37.28 263.508 40.16C262.164 43.904 259.86 51.2 259.764 55.136C259.764 55.616 259.38 56.096 258.804 56.096ZM265.62 49.952C266.196 49.952 266.964 49.472 267.924 48.224C268.884 47.168 269.844 45.728 270.804 43.616C269.076 43.904 267.156 44.48 266.196 45.536C265.236 46.496 264.756 47.744 264.756 48.704C264.756 49.376 265.044 49.952 265.62 49.952ZM296.071 39.68C300.199 39.68 305.671 31.232 305.671 28.16C305.671 27.584 305.479 27.296 305.191 27.104C304.903 26.912 304.711 26.912 304.423 26.912C302.215 26.912 299.143 30.944 298.183 32.288C296.743 34.496 295.495 36.992 294.727 39.296C295.111 39.584 295.591 39.68 296.071 39.68ZM297.895 56H296.839C288.679 55.712 285.703 50.912 285.703 44.864C285.703 41.888 286.375 38.72 287.527 35.648C289.831 29.504 294.919 22.112 301.927 22.112H302.311C305.959 22.208 308.935 24.032 308.935 27.68V27.872C308.743 34.688 301.735 43.04 296.551 43.04C295.591 43.04 294.631 42.752 293.863 42.08C293.671 43.232 293.479 44.48 293.479 45.728C293.479 49.376 294.535 53.12 297.703 53.792L298.759 53.888C299.335 53.888 300.103 53.792 300.871 53.6C304.231 52.352 309.031 48.224 315.079 35.648C315.271 35.264 315.559 35.072 315.847 35.072C316.039 35.072 316.231 35.168 316.423 35.264C316.711 35.36 316.903 35.648 316.903 36.032C316.903 36.032 316.903 36.224 316.807 36.416C310.375 49.856 305.095 54.176 301.255 55.52C300.007 55.904 298.855 56 297.895 56ZM319.99 56H318.646C316.342 56 314.134 55.712 313.174 53.696C312.694 52.64 312.502 51.2 312.502 49.568C312.502 37.856 322.39 13.28 323.926 9.728C324.406 8.96 325.366 8.576 326.518 8.576C329.014 8.576 332.182 10.208 332.182 11.552L332.086 11.84C330.934 14.912 320.854 41.312 319.798 51.2L319.702 53.12C319.702 53.696 319.702 54.08 319.894 54.08H320.086C321.334 54.08 323.158 51.584 323.734 50.816C326.71 46.688 329.974 39.68 331.894 35.648C332.086 35.168 332.374 35.072 332.758 35.072C332.854 35.072 333.046 35.072 333.238 35.168C333.526 35.36 333.718 35.648 333.718 35.936C333.718 36.128 333.718 36.224 333.622 36.416C331.606 40.832 328.438 47.552 325.174 51.872C324.118 53.408 322.006 55.904 319.99 56ZM340.227 39.68C344.355 39.68 349.827 31.232 349.827 28.16C349.827 27.584 349.635 27.296 349.347 27.104C349.059 26.912 348.867 26.912 348.579 26.912C346.371 26.912 343.299 30.944 342.339 32.288C340.899 34.496 339.651 36.992 338.883 39.296C339.267 39.584 339.747 39.68 340.227 39.68ZM342.051 56H340.995C332.835 55.712 329.859 50.912 329.859 44.864C329.859 41.888 330.531 38.72 331.683 35.648C333.987 29.504 339.075 22.112 346.083 22.112H346.467C350.115 22.208 353.091 24.032 353.091 27.68V27.872C352.899 34.688 345.891 43.04 340.707 43.04C339.747 43.04 338.787 42.752 338.019 42.08C337.827 43.232 337.635 44.48 337.635 45.728C337.635 49.376 338.691 53.12 341.859 53.792L342.915 53.888C343.491 53.888 344.259 53.792 345.027 53.6C348.387 52.352 353.187 48.224 359.235 35.648C359.427 35.264 359.715 35.072 360.003 35.072C360.195 35.072 360.387 35.168 360.579 35.264C360.867 35.36 361.059 35.648 361.059 36.032C361.059 36.032 361.059 36.224 360.963 36.416C354.531 49.856 349.251 54.176 345.411 55.52C344.163 55.904 343.011 56 342.051 56ZM359.346 74.144C355.218 74.144 352.05 71.648 352.05 67.424L352.146 66.368C352.818 60.224 358.482 57.44 367.026 57.248C367.698 55.136 368.37 53.216 368.37 51.584C368.37 49.856 367.602 48.608 365.202 48.128C364.626 48.032 364.338 47.552 364.338 47.168C364.338 46.688 364.722 46.304 365.202 46.208C369.234 45.536 372.69 39.968 374.322 34.496C374.898 32.384 375.57 30.08 375.57 28.256C375.57 25.856 374.514 24.128 371.25 24.128H370.962C366.258 24.128 362.802 32.192 360.882 36.416C360.69 36.8 360.402 36.992 360.018 36.992C359.538 36.992 359.058 36.608 359.058 36.128C359.058 36.032 359.058 35.84 359.154 35.648C361.746 29.984 364.818 22.496 371.058 22.208H372.69C379.314 22.208 382.386 24.8 382.386 29.792C382.386 31.616 382.002 33.728 381.234 36.128C379.794 40.832 376.818 45.344 371.826 46.976C374.418 48.032 376.05 50.336 376.05 53.504C376.05 54.368 375.954 55.328 375.666 56.288C377.874 54.848 379.602 52.928 381.33 50.432C383.826 46.784 386.13 41.888 388.914 35.744C389.106 35.36 389.49 35.168 389.778 35.168C390.258 35.168 390.738 35.552 390.738 36.032L390.642 36.512C387.858 42.752 385.554 47.744 382.962 51.488C380.754 54.656 377.97 57.248 374.898 58.784C372.882 65.12 368.37 73.952 359.346 74.144ZM356.85 69.632C357.522 69.632 358.194 69.44 358.962 69.152C361.362 68 364.722 63.488 366.258 59.264C358.674 59.552 355.026 61.568 354.258 66.368V66.944C354.258 68.864 355.314 69.632 356.85 69.632ZM395.696 48.8C398.576 48.704 403.76 38.624 404.72 36.224C405.2 34.976 406.064 32.384 406.064 30.272C406.064 28.928 405.68 27.872 404.624 27.584L404.048 27.488C399.728 27.488 394.256 40.544 394.256 46.208C394.256 47.84 394.736 48.8 395.696 48.8ZM410 56H408.848C406.448 56 403.952 55.712 402.896 53.696C402.32 52.736 402.128 51.296 402.128 49.664C402.128 48.704 402.224 47.744 402.32 46.592C400.112 50.432 397.04 54.176 393.296 54.176H393.104C388.495 54.08 386.575 50.24 386.575 45.248C386.575 35.744 393.488 22.208 402.992 22.208H403.088C405.584 22.208 407.6 23.072 408.752 24.896L409.424 23.168C409.904 22.4 410.768 22.112 411.92 22.112C414.128 22.112 417.104 23.456 417.104 24.992L417.008 25.376C415.76 28.448 409.52 44.96 409.328 51.872C409.328 53.216 409.424 54.08 409.904 54.08C413.072 53.984 419.12 41.696 421.904 35.648C422.096 35.168 422.384 35.072 422.768 35.072L423.248 35.168C423.536 35.264 423.728 35.552 423.728 35.936C423.728 36.128 423.728 36.128 423.632 36.416C420.464 43.232 414.512 55.808 410 56Z" fill="black"/>
</g>
<defs>
<filter id="filter0_d_82_6" x="0.125" y="0.703979" width="427.603" height="81.44" filterUnits="userSpaceOnUse" color-interpolation-filters="sRGB">
<feFlood flood-opacity="0" result="BackgroundImageFix"/>
<feColorMatrix in="SourceAlpha" type="matrix" values="0 0 0 0 0 0 0 0 0 0 0 0 0 0 0 0 0 0 127 0" result="hardAlpha"/>
<feOffset dy="4"/>
<feGaussianBlur stdDeviation="2"/>
<feComposite in2="hardAlpha" operator="out"/>
<feColorMatrix type="matrix" values="0 0 0 0 0 0 0 0 0 0 0 0 0 0 0 0 0 0 0.1 0"/>
<feBlend mode="normal" in2="BackgroundImageFix" result="effect1_dropShadow_82_6"/>
<feBlend mode="normal" in="SourceGraphic" in2="effect1_dropShadow_82_6" result="shape"/>
</filter>
</defs>
</svg>
