<svg width="622" height="165" viewBox="0 0 622 165" fill="none" xmlns="http://www.w3.org/2000/svg">
<g filter="url(#filter0_d_171_96)">
<path d="M45.76 60.704C40.768 60.704 37.408 60.608 37.312 54.368C37.312 44.192 45.184 22.016 49.216 10.112C43.648 16.544 36.064 29.504 28.384 42.656C24.928 48.704 21.376 54.752 18.112 60.128C17.824 60.512 17.632 60.704 17.152 60.704C14.56 60.704 11.488 60.608 10.912 58.208L10.816 57.344C10.816 54.464 12.64 47.36 15.04 39.296C19.072 25.76 24.832 9.152 26.752 4.448L26.176 4.352C21.952 4.352 12.928 21.248 12.16 24.896L12.064 26.24C12.064 26.72 12.064 26.912 12.256 27.008C12.736 27.104 13.12 27.584 13.12 27.968C13.12 28.352 12.928 28.64 12.448 28.832C11.2 29.216 9.664 29.696 8.128 29.696C7.168 29.696 6.304 29.504 5.632 29.12C4.384 28.352 4 27.104 4 25.76C4 24.992 4.096 24.128 4.288 23.36C5.44 19.04 8.896 12.896 13.024 8.192C16.576 4.064 20.512 0.991999 24.064 0.703997L25.888 0.607998C29.44 0.607998 34.912 1.376 35.2 4.928V5.408C35.2 5.888 35.104 6.464 34.816 6.944C33.376 10.4 24.448 35.552 20.704 48.512C24.928 41.792 45.76 0.799995 52.384 0.703997C55.648 0.703997 59.008 2.048 59.008 5.696C59.008 7.424 58.144 9.44 57.568 11.072C53.92 21.056 45.184 44.864 45.184 54.848C45.184 56.864 45.472 58.304 46.336 58.976C46.624 59.168 46.72 59.456 46.72 59.744C46.72 60.224 46.336 60.704 45.76 60.704ZM61.537 48.896C64.513 48.8 69.697 38.816 70.657 36.32C71.137 35.168 72.001 32.48 72.001 30.464C72.001 29.12 71.617 28.064 70.561 27.68L69.985 27.584C65.665 27.584 60.193 40.736 60.193 46.4C60.193 47.936 60.577 48.896 61.537 48.896ZM75.265 56.192C72.673 56.192 69.985 56 68.833 53.888C68.257 52.928 68.065 51.488 68.065 49.856C68.065 48.896 68.161 47.936 68.257 46.784C65.953 50.624 62.977 54.368 59.137 54.368H59.041C54.433 54.272 52.513 50.432 52.513 45.44C52.513 35.936 59.425 22.304 68.929 22.304H69.025C71.425 22.4 73.537 23.168 74.689 24.992L75.361 23.264C75.745 22.592 76.705 22.304 77.761 22.304C79.969 22.304 82.945 23.648 82.945 25.088L82.849 25.568C81.793 28.256 76.897 41.12 75.553 48.992C75.457 49.568 75.265 51.296 75.265 52.544C75.265 53.312 75.265 53.888 75.553 54.08C75.745 54.272 75.841 54.656 75.841 55.04V55.424C75.841 55.808 75.553 56.192 75.265 56.192ZM155.913 156.8C152.937 156.8 147.753 155.84 147.177 151.904C146.889 150.272 146.793 148.352 146.793 146.24C146.793 132.992 151.305 112.64 153.225 101.312V101.12C153.225 100.544 152.841 100.352 152.361 100.352C151.977 100.352 151.497 100.448 151.113 100.736C146.601 103.328 138.345 118.88 138.345 122.336C138.345 122.72 138.441 123.008 138.633 123.008C139.113 123.104 139.401 123.488 139.401 123.968C139.401 124.256 139.209 124.64 138.729 124.832C137.481 125.216 135.945 125.696 134.409 125.696C133.545 125.696 132.681 125.504 131.913 125.12C130.665 124.352 130.281 123.104 130.281 121.76C130.281 120.992 130.377 120.128 130.569 119.36C132.489 112.16 142.185 97.376 150.441 96.704L152.745 96.608C160.329 96.608 162.057 100.832 162.057 105.056C162.057 106.112 161.961 107.264 161.769 108.224C160.041 118.976 156.489 141.44 156.489 149.696C156.489 151.808 156.681 152.96 157.161 152.96C158.793 152.96 168.393 138.368 175.593 115.232C177.225 110.144 178.281 105.728 178.281 102.656C178.281 100.928 177.993 99.68 177.129 99.008C176.937 98.816 176.841 98.624 176.841 98.432C176.841 97.856 177.321 97.376 177.897 97.376C182.409 97.76 184.233 101.312 184.233 106.208C184.233 109.664 183.369 113.792 181.929 118.112C176.457 135.2 162.345 156.128 157.161 156.704L155.913 156.8ZM189.515 149.024C193.259 149.024 197.003 139.712 198.059 136.736C196.523 135.584 195.947 133.856 195.947 132.224C195.947 129.44 197.675 126.656 199.499 126.176C199.211 124.928 198.635 123.968 197.387 123.968H196.907C192.299 124.736 187.211 137.792 187.211 144.704C187.211 147.104 187.787 148.832 189.227 149.024H189.515ZM188.843 152C182.795 152 180.299 147.104 180.299 140.96C180.299 131.072 186.923 118.112 195.851 118.112C196.619 118.112 197.387 118.208 198.251 118.4C202.859 119.552 204.203 123.872 204.203 128.384C204.203 131.168 203.627 134.144 202.955 136.352C206.123 136.352 209.579 134.72 211.211 131.552C211.403 131.168 211.691 131.072 211.979 131.072C212.171 131.072 212.363 131.168 212.555 131.264C212.843 131.36 212.939 131.648 212.939 131.936C212.939 132.128 212.939 132.32 212.843 132.512C210.923 136.16 206.891 138.272 203.051 138.272H202.283C200.171 144.32 195.467 152 188.843 152ZM221.364 152H220.308C212.148 151.712 209.171 146.912 209.171 140.864C209.171 137.888 209.843 134.72 210.995 131.648C213.396 125.408 218.484 118.112 225.492 118.112C226.164 118.112 226.932 118.208 227.604 118.304C231.444 119.072 232.884 121.856 232.884 124.64C232.884 126.464 232.212 128.384 231.156 129.632C230.388 130.496 229.524 130.976 228.564 130.976C227.988 130.976 227.316 130.784 226.74 130.4C226.452 130.208 226.356 129.92 226.356 129.536C226.356 129.44 226.356 129.248 226.452 129.152C226.836 128.48 228.756 125.216 228.756 123.68C228.756 123.2 228.564 122.912 228.18 122.816H227.892C225.204 122.816 219.732 129.536 217.812 136.736C217.332 138.176 217.044 140.096 217.044 142.016C217.044 145.376 218.004 148.736 220.788 149.696C221.268 149.792 221.748 149.888 222.228 149.888C222.9 149.888 223.572 149.792 224.34 149.6C227.796 148.352 232.596 144.224 238.644 131.648C238.836 131.168 239.124 131.072 239.411 131.072C239.7 131.072 239.892 131.168 239.892 131.168C240.18 131.36 240.372 131.648 240.372 132.032C240.372 132.032 240.372 132.224 240.276 132.416C233.94 145.76 228.66 150.08 224.82 151.424C223.476 151.904 222.324 152 221.364 152ZM246.912 135.68C251.04 135.68 256.512 127.328 256.512 124.16C256.512 123.68 256.32 123.296 256.032 123.104C255.744 122.912 255.552 122.912 255.264 122.912C253.056 122.912 249.984 126.944 249.024 128.288C247.584 130.496 246.336 132.992 245.568 135.296C246.048 135.584 246.432 135.68 246.912 135.68ZM248.736 152H247.68C239.52 151.712 236.544 146.912 236.544 140.864C236.544 137.984 237.216 134.816 238.368 131.744C240.672 125.504 245.856 118.112 252.864 118.112H253.152C256.8 118.208 259.776 120.032 259.776 123.68V123.872C259.584 130.688 252.672 139.136 247.488 139.136C246.432 139.136 245.472 138.752 244.704 138.08C244.512 139.232 244.32 140.48 244.32 141.824C244.32 145.472 245.376 149.12 248.544 149.792C248.928 149.888 249.312 149.888 249.792 149.888C250.368 149.888 250.944 149.792 251.712 149.6C255.072 148.352 259.872 144.32 265.92 131.648C266.112 131.264 266.4 131.072 266.784 131.072C266.88 131.072 267.072 131.168 267.264 131.264C267.552 131.36 267.744 131.648 267.744 132.032C267.744 132.224 267.744 132.32 267.648 132.512C261.216 145.952 255.936 150.176 252.096 151.52C250.848 151.904 249.696 152 248.736 152ZM260.064 113.696C259.392 113.6 258.816 113.6 258.432 112.928C257.952 111.776 257.376 109.952 257.184 108.992C255.552 110.432 253.248 112.352 251.808 113.216H251.712C251.232 113.216 250.752 112.736 250.752 112.256C250.752 112.064 250.848 111.872 251.04 111.68C252.288 110.528 255.936 106.592 257.472 105.152C257.76 104.864 258.24 104.768 258.624 104.768C259.2 104.768 259.776 104.96 259.872 105.536C259.968 106.688 260.448 111.488 261.024 112.832L261.12 113.216C261.12 113.6 260.64 113.696 260.064 113.696ZM296.415 135.68C300.543 135.68 306.015 127.232 306.015 124.16C306.015 123.584 305.823 123.296 305.535 123.104C305.247 122.912 305.055 122.912 304.767 122.912C302.559 122.912 299.487 126.944 298.527 128.288C297.087 130.496 295.839 132.992 295.071 135.296C295.455 135.584 295.935 135.68 296.415 135.68ZM298.239 152H297.183C289.023 151.712 286.046 146.912 286.046 140.864C286.046 137.888 286.718 134.72 287.87 131.648C290.175 125.504 295.263 118.112 302.271 118.112H302.655C306.303 118.208 309.279 120.032 309.279 123.68V123.872C309.087 130.688 302.079 139.04 296.895 139.04C295.935 139.04 294.975 138.752 294.207 138.08C294.015 139.232 293.823 140.48 293.823 141.728C293.823 145.376 294.879 149.12 298.047 149.792L299.103 149.888C299.679 149.888 300.447 149.792 301.215 149.6C304.575 148.352 309.375 144.224 315.423 131.648C315.615 131.264 315.903 131.072 316.191 131.072C316.383 131.072 316.575 131.168 316.767 131.264C317.055 131.36 317.247 131.648 317.247 132.032C317.247 132.032 317.247 132.224 317.151 132.416C310.719 145.856 305.439 150.176 301.599 151.52C300.351 151.904 299.199 152 298.239 152ZM335.022 152.096C331.566 152.096 329.166 151.328 329.166 146.528C329.358 139.52 334.734 123.968 334.83 122.816C334.83 122.528 334.734 122.336 334.542 122.336C334.254 122.336 333.87 122.624 333.582 122.912C328.974 127.04 322.446 137.792 320.718 140.768C319.566 144.992 318.605 148.832 318.51 151.04C318.51 151.904 318.03 152 317.262 152H316.782C314.477 152 311.405 151.52 311.309 149.312C311.309 144.416 316.974 125.504 319.374 119.264C319.662 118.496 320.622 118.112 321.773 118.112C324.078 118.112 327.246 119.456 327.246 120.992L327.15 121.376C326.382 123.2 323.214 132.704 322.926 133.472C324.366 131.36 325.998 128.96 327.726 126.752C330.606 123.008 334.638 118.112 338.67 118.112C341.07 118.112 343.086 119.552 343.086 122.144L342.99 123.296C341.646 129.92 337.038 142.784 337.038 148.352C337.038 149.504 337.134 150.08 337.614 150.08C340.014 149.888 341.742 146.72 348.462 131.648C348.654 131.264 348.942 131.072 349.23 131.072C349.806 131.072 350.286 131.456 350.286 132.032C350.286 132.128 350.286 132.224 350.19 132.416C343.47 147.68 341.358 151.808 337.71 152L335.022 152.096ZM358.614 152H357.558C349.398 151.712 346.421 146.912 346.421 140.864C346.421 137.888 347.093 134.72 348.245 131.648C350.646 125.408 355.734 118.112 362.742 118.112C363.414 118.112 364.182 118.208 364.854 118.304C368.694 119.072 370.134 121.856 370.134 124.64C370.134 126.464 369.462 128.384 368.406 129.632C367.638 130.496 366.774 130.976 365.814 130.976C365.238 130.976 364.566 130.784 363.99 130.4C363.702 130.208 363.606 129.92 363.606 129.536C363.606 129.44 363.606 129.248 363.702 129.152C364.086 128.48 366.006 125.216 366.006 123.68C366.006 123.2 365.814 122.912 365.43 122.816H365.142C362.454 122.816 356.982 129.536 355.062 136.736C354.582 138.176 354.294 140.096 354.294 142.016C354.294 145.376 355.254 148.736 358.038 149.696C358.518 149.792 358.998 149.888 359.478 149.888C360.15 149.888 360.822 149.792 361.59 149.6C365.046 148.352 369.846 144.224 375.894 131.648C376.086 131.168 376.374 131.072 376.661 131.072C376.95 131.072 377.142 131.168 377.142 131.168C377.43 131.36 377.622 131.648 377.622 132.032C377.622 132.032 377.622 132.224 377.526 132.416C371.19 145.76 365.91 150.08 362.07 151.424C360.726 151.904 359.574 152 358.614 152ZM383.202 149.024C386.946 149.024 390.69 139.712 391.746 136.736C390.21 135.584 389.634 133.856 389.634 132.224C389.634 129.44 391.362 126.656 393.186 126.176C392.898 124.928 392.322 123.968 391.074 123.968H390.594C385.986 124.736 380.898 137.792 380.898 144.704C380.898 147.104 381.474 148.832 382.914 149.024H383.202ZM382.53 152C376.482 152 373.986 147.104 373.986 140.96C373.986 131.072 380.61 118.112 389.538 118.112C390.306 118.112 391.074 118.208 391.938 118.4C396.546 119.552 397.89 123.872 397.89 128.384C397.89 131.168 397.314 134.144 396.642 136.352C399.81 136.352 403.266 134.72 404.898 131.552C405.09 131.168 405.378 131.072 405.666 131.072C405.858 131.072 406.05 131.168 406.242 131.264C406.53 131.36 406.626 131.648 406.626 131.936C406.626 132.128 406.626 132.32 406.53 132.512C404.61 136.16 400.578 138.272 396.738 138.272H395.97C393.858 144.32 389.154 152 382.53 152ZM424.459 152.096C421.003 152.096 418.603 151.328 418.603 146.528C418.795 139.52 424.171 123.968 424.267 122.816C424.267 122.528 424.171 122.336 423.979 122.336C423.691 122.336 423.307 122.624 423.019 122.912C418.411 127.04 411.883 137.792 410.155 140.768C409.003 144.992 408.043 148.832 407.947 151.04C407.947 151.904 407.467 152 406.699 152H406.219C403.915 152 400.843 151.52 400.747 149.312C400.747 144.416 406.411 125.504 408.811 119.264C409.099 118.496 410.059 118.112 411.211 118.112C413.515 118.112 416.683 119.456 416.683 120.992L416.587 121.376C415.819 123.2 412.651 132.704 412.363 133.472C413.803 131.36 415.435 128.96 417.163 126.752C420.043 123.008 424.075 118.112 428.107 118.112C430.507 118.112 432.523 119.552 432.523 122.144L432.427 123.296C431.083 129.92 426.475 142.784 426.475 148.352C426.475 149.504 426.571 150.08 427.051 150.08C429.451 149.888 431.179 146.72 437.899 131.648C438.091 131.264 438.379 131.072 438.667 131.072C439.243 131.072 439.723 131.456 439.723 132.032C439.723 132.128 439.723 132.224 439.627 132.416C432.907 147.68 430.795 151.808 427.147 152L424.459 152.096ZM442.963 152H441.523C439.219 152 437.011 151.712 436.147 149.696C435.667 148.64 435.379 147.104 435.379 145.376C435.379 137.888 439.315 125.408 442.867 115.808C440.947 115.712 439.123 115.712 437.587 115.712C437.011 115.616 436.627 115.136 436.627 114.752C436.627 114.272 437.011 113.792 437.587 113.792L443.539 113.888C444.787 110.624 445.939 107.84 446.899 105.728C447.187 104.864 448.147 104.576 449.299 104.576C451.795 104.576 455.251 106.112 455.251 107.552L455.155 107.84C454.291 109.76 453.427 111.872 452.563 114.176L457.363 114.272C457.939 114.272 458.323 114.752 458.323 115.232C458.323 115.712 457.939 116.192 457.267 116.192C455.635 116.096 453.811 116.096 451.795 116.096C448.819 124.928 445.555 134.816 443.635 142.976C443.443 143.552 442.579 147.488 442.579 149.216C442.579 149.888 442.675 150.08 442.963 150.08C444.019 150.08 445.843 147.776 446.515 146.912C449.491 142.88 452.947 135.776 454.867 131.648C455.059 131.168 455.347 131.072 455.731 131.072C455.827 131.072 456.019 131.072 456.211 131.168C456.499 131.36 456.691 131.648 456.691 132.032C456.691 132.032 456.691 132.224 456.595 132.416C454.579 137.024 451.027 144.128 447.763 148.448C446.611 149.792 444.787 151.904 442.963 152ZM469.15 152H468.19C465.886 152 462.526 151.904 461.374 149.696C460.894 148.736 460.606 147.392 460.606 145.856C460.606 138.656 465.406 126.752 467.134 121.568C465.886 121.664 464.158 122.144 462.526 122.144C462.046 122.144 461.47 122.144 460.99 121.952C459.55 125.696 458.686 127.616 456.478 132.416C456.382 132.704 455.998 132.992 455.71 132.992C455.518 132.992 455.422 132.992 455.23 132.896C454.942 132.8 454.654 132.608 454.654 132.032C454.654 131.936 454.654 131.84 454.75 131.648C457.054 126.56 457.726 125.024 459.358 121.088C458.494 120.416 458.11 119.456 458.11 118.4C458.11 117.056 458.59 115.616 459.07 114.368C459.358 113.6 460.414 113.312 461.374 113.312C462.526 113.312 463.774 113.696 463.774 114.464L463.678 114.752C463.294 116.096 462.526 118.304 462.238 118.976C464.83 118.88 467.038 118.112 469.054 118.112C471.454 118.112 473.854 119.936 474.238 122.432L474.334 123.104C474.334 124.64 473.566 126.656 472.51 129.728C470.974 134.048 467.902 142.592 467.902 147.392L468.094 149.024C468.286 149.888 468.67 150.176 469.15 150.176C470.398 150.176 472.222 147.968 472.702 147.2C474.526 144.512 476.926 139.712 480.574 131.648C480.766 131.264 481.054 131.072 481.342 131.072C481.63 131.072 481.822 131.168 482.014 131.264C482.206 131.36 482.398 131.648 482.398 132.032C482.398 132.128 482.398 132.224 482.302 132.416C478.654 140.576 476.254 145.472 474.334 148.256C472.222 151.328 470.878 152 469.15 152ZM487.539 144.8C490.419 144.704 495.603 134.624 496.563 132.224C497.043 130.976 497.907 128.384 497.907 126.272C497.907 124.928 497.523 123.872 496.467 123.584L495.891 123.488C491.571 123.488 486.099 136.544 486.099 142.208C486.099 143.84 486.579 144.8 487.539 144.8ZM501.843 152H500.691C498.291 152 495.795 151.712 494.739 149.696C494.163 148.736 493.971 147.296 493.971 145.664C493.971 144.704 494.067 143.744 494.163 142.592C491.955 146.432 488.883 150.176 485.139 150.176H484.947C480.339 150.08 478.419 146.24 478.419 141.248C478.419 131.744 485.331 118.208 494.835 118.208H494.931C497.427 118.208 499.443 119.072 500.595 120.896L501.267 119.168C501.747 118.4 502.611 118.112 503.763 118.112C505.971 118.112 508.947 119.456 508.947 120.992L508.851 121.376C507.603 124.448 501.363 140.96 501.171 147.872C501.171 149.216 501.267 150.08 501.747 150.08C504.915 149.984 510.963 137.696 513.747 131.648C513.939 131.168 514.227 131.072 514.611 131.072L515.091 131.168C515.379 131.264 515.571 131.552 515.571 131.936C515.571 132.128 515.571 132.128 515.475 132.416C512.307 139.232 506.355 151.808 501.843 152Z" fill="black"/>
<path d="M147.687 60.8H146.727C137.607 60.8 134.919 47.264 133.479 39.488C131.367 46.4 128.487 56.576 128.487 59.744C128.487 60.224 128.103 60.704 127.527 60.704H126.567C124.263 60.704 121.767 60.32 121.287 58.208C121.191 57.92 121.191 57.536 121.191 57.152C121.191 54.176 122.727 47.84 124.743 40.544C128.295 27.872 133.575 12.416 135.111 8.864C135.399 8.096 136.359 7.808 137.607 7.808C139.911 7.808 143.079 9.056 143.079 10.784L142.983 11.36C142.023 13.76 138.471 23.84 135.111 34.496C135.687 34.688 136.263 34.784 136.935 34.784C143.271 34.784 150.183 25.856 152.583 17.024C152.967 15.68 153.159 14.336 153.159 12.992C153.159 9.248 151.239 6.08 145.479 5.312C144.039 5.12 142.503 5.024 141.063 5.024C134.727 5.024 128.295 6.656 123.015 9.44C116.871 12.608 112.263 17.408 111.015 23.168C110.919 23.744 110.631 24.032 110.055 24.032C109.863 24.032 109.575 24.032 109.287 23.84C108.23 23.36 106.983 21.92 105.927 19.136C105.447 17.888 105.062 16.16 105.062 14.624C105.062 13.184 105.447 11.84 106.407 10.976C115.239 3.392 125.991 0.703997 137.223 0.703997H138.375C151.047 0.799995 160.359 5.984 160.359 15.68C160.359 18.656 159.495 21.92 157.671 25.664C154.119 32.864 147.303 39.008 139.815 39.776C141.063 44.672 143.175 48.896 145.767 51.776C148.167 54.464 151.047 56.096 153.831 56.096L154.983 56C155.463 56 155.847 56.48 155.847 56.96C155.847 57.248 155.655 57.632 155.271 57.824C153.351 58.976 149.991 60.512 147.687 60.8ZM166.164 48.8C169.044 48.704 174.228 38.624 175.188 36.224C175.668 34.976 176.532 32.384 176.532 30.272C176.532 28.928 176.148 27.872 175.092 27.584L174.516 27.488C170.196 27.488 164.724 40.544 164.724 46.208C164.724 47.84 165.204 48.8 166.164 48.8ZM180.468 56H179.316C176.916 56 174.42 55.712 173.364 53.696C172.788 52.736 172.596 51.296 172.596 49.664C172.596 48.704 172.692 47.744 172.788 46.592C170.58 50.432 167.508 54.176 163.764 54.176H163.572C158.964 54.08 157.044 50.24 157.044 45.248C157.044 35.744 163.956 22.208 173.46 22.208H173.556C176.052 22.208 178.068 23.072 179.22 24.896L179.892 23.168C180.372 22.4 181.236 22.112 182.388 22.112C184.596 22.112 187.572 23.456 187.572 24.992L187.476 25.376C186.228 28.448 179.988 44.96 179.796 51.872C179.796 53.216 179.892 54.08 180.372 54.08C183.54 53.984 189.588 41.696 192.372 35.648C192.564 35.168 192.852 35.072 193.236 35.072L193.716 35.168C194.004 35.264 194.196 35.552 194.196 35.936C194.196 36.128 194.196 36.128 194.1 36.416C190.932 43.232 184.98 55.808 180.468 56ZM191.288 73.952C188.888 73.952 186.392 72.992 185.144 70.784C184.856 70.304 184.76 69.44 184.76 68.384V68.192C184.76 61.952 189.56 44.576 191.096 39.392C195.032 25.952 199.352 13.376 201.464 9.632C201.944 8.864 202.904 8.576 204.056 8.576C206.552 8.576 209.72 10.208 209.72 11.552L209.624 11.84C208.28 14.816 199.352 40.256 198.68 44.288L200.504 44.384C202.136 44.384 203.576 44.192 205.208 43.52C207.704 42.368 210.008 39.968 212.024 35.552C212.216 35.072 212.504 34.976 212.888 34.976C213.464 35.072 213.848 35.072 213.848 35.84L213.752 36.224C211.64 40.928 209.144 43.904 205.784 45.248C204.152 46.016 202.232 46.304 200.12 46.304C201.944 48.224 202.616 50.72 202.616 53.312C202.616 55.232 202.232 57.248 201.848 59.264C200.792 63.968 197.144 73.952 191.288 73.952ZM192.344 71.936C195.416 71.072 198.584 64.832 199.928 58.784C200.312 56.96 200.792 54.944 200.792 53.12C200.792 50.624 200.12 48.32 197.816 46.784C195.8 55.232 192.248 67.52 192.248 71.072C192.248 71.456 192.248 71.744 192.344 71.936ZM219.039 48.8C221.919 48.704 227.103 38.624 228.063 36.224C228.543 34.976 229.407 32.384 229.407 30.272C229.407 28.928 229.023 27.872 227.967 27.584L227.391 27.488C223.071 27.488 217.599 40.544 217.599 46.208C217.599 47.84 218.079 48.8 219.039 48.8ZM233.343 56H232.191C229.791 56 227.295 55.712 226.239 53.696C225.663 52.736 225.471 51.296 225.471 49.664C225.471 48.704 225.567 47.744 225.663 46.592C223.455 50.432 220.383 54.176 216.639 54.176H216.447C211.839 54.08 209.919 50.24 209.919 45.248C209.919 35.744 216.831 22.208 226.335 22.208H226.431C228.927 22.208 230.943 23.072 232.095 24.896L232.767 23.168C233.247 22.4 234.111 22.112 235.263 22.112C237.471 22.112 240.447 23.456 240.447 24.992L240.351 25.376C239.103 28.448 232.863 44.96 232.671 51.872C232.671 53.216 232.767 54.08 233.247 54.08C236.415 53.984 242.463 41.696 245.247 35.648C245.439 35.168 245.727 35.072 246.111 35.072L246.591 35.168C246.879 35.264 247.071 35.552 247.071 35.936C247.071 36.128 247.071 36.128 246.975 36.416C243.807 43.232 237.855 55.808 233.343 56ZM253.571 39.68C257.699 39.68 263.171 31.232 263.171 28.16C263.171 27.584 262.979 27.296 262.691 27.104C262.403 26.912 262.211 26.912 261.923 26.912C259.715 26.912 256.643 30.944 255.683 32.288C254.243 34.496 252.995 36.992 252.227 39.296C252.611 39.584 253.091 39.68 253.571 39.68ZM255.395 56H254.339C246.179 55.712 243.203 50.912 243.203 44.864C243.203 41.888 243.875 38.72 245.027 35.648C247.331 29.504 252.419 22.112 259.427 22.112H259.811C263.459 22.208 266.435 24.032 266.435 27.68V27.872C266.243 34.688 259.235 43.04 254.051 43.04C253.091 43.04 252.131 42.752 251.363 42.08C251.171 43.232 250.979 44.48 250.979 45.728C250.979 49.376 252.035 53.12 255.203 53.792L256.259 53.888C256.835 53.888 257.603 53.792 258.371 53.6C261.731 52.352 266.531 48.224 272.579 35.648C272.771 35.264 273.059 35.072 273.347 35.072C273.539 35.072 273.731 35.168 273.923 35.264C274.211 35.36 274.403 35.648 274.403 36.032C274.403 36.032 274.403 36.224 274.307 36.416C267.875 49.856 262.595 54.176 258.755 55.52C257.507 55.904 256.355 56 255.395 56ZM277.49 56H276.146C273.842 56 271.634 55.712 270.674 53.696C270.194 52.64 270.002 51.2 270.002 49.568C270.002 37.856 279.89 13.28 281.426 9.728C281.906 8.96 282.866 8.576 284.018 8.576C286.514 8.576 289.682 10.208 289.682 11.552L289.586 11.84C288.434 14.912 278.354 41.312 277.298 51.2L277.202 53.12C277.202 53.696 277.202 54.08 277.394 54.08H277.586C278.834 54.08 280.658 51.584 281.234 50.816C284.21 46.688 287.474 39.68 289.394 35.648C289.586 35.168 289.874 35.072 290.258 35.072C290.354 35.072 290.546 35.072 290.738 35.168C291.026 35.36 291.218 35.648 291.218 35.936C291.218 36.128 291.218 36.224 291.122 36.416C289.106 40.832 285.938 47.552 282.674 51.872C281.618 53.408 279.506 55.904 277.49 56ZM294.271 56H292.927C290.623 56 288.415 55.712 287.455 53.696C286.975 52.64 286.783 51.2 286.783 49.568C286.783 37.856 296.671 13.28 298.207 9.728C298.687 8.96 299.647 8.576 300.799 8.576C303.295 8.576 306.463 10.208 306.463 11.552L306.367 11.84C305.215 14.912 295.135 41.312 294.079 51.2L293.983 53.12C293.983 53.696 293.983 54.08 294.175 54.08H294.367C295.615 54.08 297.439 51.584 298.015 50.816C300.991 46.688 304.255 39.68 306.175 35.648C306.367 35.168 306.655 35.072 307.039 35.072C307.135 35.072 307.327 35.072 307.519 35.168C307.807 35.36 307.999 35.648 307.999 35.936C307.999 36.128 307.999 36.224 307.903 36.416C305.887 40.832 302.719 47.552 299.455 51.872C298.399 53.408 296.287 55.904 294.271 56ZM313.068 48.896C316.044 48.8 321.228 38.816 322.188 36.32C322.668 35.168 323.532 32.48 323.532 30.464C323.532 29.12 323.148 28.064 322.092 27.68L321.516 27.584C317.196 27.584 311.724 40.736 311.724 46.4C311.724 47.936 312.108 48.896 313.068 48.896ZM326.796 56.192C324.204 56.192 321.516 56 320.364 53.888C319.788 52.928 319.596 51.488 319.596 49.856C319.596 48.896 319.692 47.936 319.788 46.784C317.484 50.624 314.508 54.368 310.668 54.368H310.572C305.964 54.272 304.044 50.432 304.044 45.44C304.044 35.936 310.956 22.304 320.46 22.304H320.556C322.956 22.4 325.068 23.168 326.22 24.992L326.892 23.264C327.276 22.592 328.236 22.304 329.292 22.304C331.5 22.304 334.476 23.648 334.476 25.088L334.38 25.568C333.324 28.256 328.428 41.12 327.084 48.992C326.988 49.568 326.796 51.296 326.796 52.544C326.796 53.312 326.796 53.888 327.084 54.08C327.276 54.272 327.372 54.656 327.372 55.04V55.424C327.372 55.808 327.084 56.192 326.796 56.192ZM383.378 60.704C377.906 60.704 369.938 57.728 366.482 53.312C366.194 52.928 366.098 52.544 366.098 52.256C366.098 51.488 366.482 50.912 366.866 50.912H367.058C369.458 51.968 372.242 53.216 374.354 53.696V53.024C374.354 45.248 383.954 15.488 386.834 8.864C387.122 8.096 388.082 7.808 389.234 7.808C391.634 7.808 394.898 9.248 394.898 10.784L394.802 11.168C392.786 16.352 381.266 47.552 381.266 54.08V54.656C396.242 54.56 406.514 33.152 406.514 18.752C406.514 12.224 404.402 7.136 399.602 6.17599C397.586 5.792 395.378 5.6 393.17 5.6C387.506 5.6 381.554 6.848 376.37 9.152C369.266 12.32 363.794 17.312 362.546 23.168C362.45 23.744 362.066 24.032 361.586 24.032C361.298 24.032 361.106 24.032 360.818 23.84C358.61 22.88 356.594 18.272 356.594 14.72C356.594 13.184 356.978 11.744 357.842 10.976C366.674 3.392 377.522 0.703997 388.658 0.703997H389.81C401.81 0.799995 412.562 5.792 414.194 18.656C414.386 20.096 414.482 21.536 414.482 22.976C414.482 40.448 401.81 60.704 383.378 60.704ZM425.508 39.68C429.636 39.68 435.108 31.232 435.108 28.16C435.108 27.584 434.916 27.296 434.628 27.104C434.34 26.912 434.148 26.912 433.86 26.912C431.652 26.912 428.58 30.944 427.62 32.288C426.18 34.496 424.932 36.992 424.164 39.296C424.548 39.584 425.028 39.68 425.508 39.68ZM427.332 56H426.276C418.116 55.712 415.14 50.912 415.14 44.864C415.14 41.888 415.812 38.72 416.964 35.648C419.268 29.504 424.356 22.112 431.364 22.112H431.748C435.396 22.208 438.372 24.032 438.372 27.68V27.872C438.18 34.688 431.172 43.04 425.988 43.04C425.028 43.04 424.068 42.752 423.3 42.08C423.108 43.232 422.916 44.48 422.916 45.728C422.916 49.376 423.972 53.12 427.14 53.792L428.196 53.888C428.772 53.888 429.54 53.792 430.308 53.6C433.668 52.352 438.468 48.224 444.516 35.648C444.708 35.264 444.996 35.072 445.284 35.072C445.476 35.072 445.668 35.168 445.86 35.264C446.148 35.36 446.34 35.648 446.34 36.032C446.34 36.032 446.34 36.224 446.244 36.416C439.812 49.856 434.532 54.176 430.692 55.52C429.444 55.904 428.292 56 427.332 56ZM449.523 56H448.659C442.995 56 440.307 52.352 440.307 48.224C440.307 46.016 441.075 43.712 442.515 41.696C442.995 41.024 443.763 40.736 444.531 40.736C446.739 40.736 449.523 42.752 449.523 44.096C449.523 44.288 449.427 44.576 449.139 44.768C447.603 46.016 446.259 49.376 446.259 51.392C446.259 52.16 446.451 52.64 446.835 52.928C447.027 53.12 447.219 53.12 447.411 53.12C447.987 53.12 448.659 52.64 449.139 52.064C450.483 50.336 450.867 47.936 450.867 45.248C450.867 40.64 449.715 35.264 449.715 31.04C449.715 30.368 449.715 29.696 449.811 29.024L446.355 36.512C446.163 36.8 445.779 36.992 445.491 36.992C445.299 36.992 445.203 36.992 445.011 36.896C444.819 36.8 444.531 36.704 444.531 36.224C444.531 36.032 444.531 35.744 444.627 35.552C445.395 33.824 450.387 22.112 452.211 22.112H459.315C459.891 22.112 460.275 22.496 460.275 22.976C460.275 23.168 460.275 23.456 460.083 23.648C458.355 26.24 457.779 28.832 457.779 31.328C457.779 35.36 459.123 39.392 459.123 43.52C459.123 44.48 459.027 45.44 458.835 46.4C458.355 48.608 457.779 50.336 456.915 51.68C458.163 50.336 460.179 47.744 461.715 45.44C463.347 42.848 465.171 39.68 467.091 35.552C467.283 35.168 467.571 35.072 467.955 35.072C468.051 35.072 468.243 35.072 468.435 35.168C468.723 35.36 468.915 35.648 468.915 36.032L468.819 36.416C467.091 40.064 465.171 43.616 463.155 46.688C461.715 48.896 460.275 50.816 458.643 52.64C455.763 55.808 452.403 56 449.523 56ZM472.309 56H471.061C468.661 56 466.165 55.712 465.109 53.696C464.533 52.736 464.245 51.2 464.245 49.472C464.245 47.456 464.629 45.056 465.109 42.56C466.645 35.36 469.813 26.816 471.253 23.264C471.637 22.496 472.597 22.112 473.653 22.112C475.957 22.112 478.933 23.552 478.933 24.992L478.837 25.376C478.069 27.488 471.349 46.592 471.349 52.448C471.349 53.504 471.541 54.08 472.117 54.08C475.285 53.984 481.237 41.696 483.925 35.648C484.117 35.168 484.405 35.072 484.789 35.072L485.269 35.168C485.557 35.264 485.749 35.552 485.749 35.936C485.749 36.128 485.749 36.224 485.653 36.416C482.581 43.232 476.725 55.808 472.309 56ZM479.317 18.56C477.397 18.56 474.613 17.408 474.613 16.16C474.613 14.624 475.765 10.88 476.341 9.632C476.629 8.768 477.493 8.48 478.549 8.48C480.757 8.48 483.637 10.016 483.637 11.456C483.637 11.648 483.637 11.936 483.445 12.128C482.965 12.992 481.621 16.448 480.949 17.888C480.757 18.368 480.085 18.56 479.317 18.56ZM490.818 48.704C493.698 48.704 498.978 38.72 500.034 36.032C500.322 35.072 501.282 32.384 501.282 30.176C501.282 28.736 500.802 27.488 499.362 27.488C494.85 27.584 489.378 40.544 489.378 46.208C489.378 47.744 489.762 48.704 490.722 48.704H490.818ZM486.018 73.952H485.346C481.122 73.664 479.01 70.976 479.01 67.424C479.01 66.848 479.106 66.272 479.202 65.6C480.354 59.84 485.154 57.728 493.89 57.248C495.042 54.08 495.522 52.16 496.674 48.032C494.466 51.2 491.778 54.176 488.514 54.176H488.322C483.714 54.08 481.794 50.24 481.794 45.248C481.794 35.744 488.706 22.208 498.21 22.208H498.306C500.514 22.208 502.434 22.976 503.682 24.512C503.778 23.936 503.97 23.264 504.354 22.976C505.026 22.304 505.986 22.112 506.946 22.112C509.25 22.112 511.938 23.648 511.938 24.992L511.842 25.28C510.786 28.352 509.442 32.48 508.098 37.088C506.082 43.52 503.874 50.72 501.666 56.768C504.354 55.328 506.466 53.216 508.482 50.336C510.978 46.688 513.186 41.792 516.066 35.648C516.162 35.36 516.546 35.072 516.93 35.072C517.026 35.072 517.122 35.072 517.314 35.168C517.602 35.264 517.89 35.552 517.89 36.032C517.89 36.128 517.89 36.224 517.794 36.416C514.914 42.656 512.61 47.648 510.018 51.392C507.426 55.136 504.642 57.728 500.706 59.264C498.114 65.888 494.082 73.952 486.018 73.952ZM483.906 69.728C487.554 69.728 490.914 64.64 493.122 59.264C486.498 59.552 482.274 61.088 481.218 65.696C481.122 66.08 481.122 66.464 481.122 66.848C481.122 68.48 481.986 69.728 483.906 69.728ZM535.647 56.096C532.191 56.096 529.791 55.328 529.791 50.528C529.983 43.52 535.359 27.968 535.455 26.816C535.455 26.528 535.359 26.336 535.167 26.336C534.879 26.336 534.495 26.624 534.207 26.912C529.599 31.04 523.071 41.792 521.343 44.768C520.191 48.992 519.23 52.832 519.135 55.04C519.135 55.904 518.655 56 517.887 56H517.407C515.102 56 512.03 55.52 511.934 53.312C511.934 48.416 517.599 29.504 519.999 23.264C520.287 22.496 521.247 22.112 522.398 22.112C524.703 22.112 527.871 23.456 527.871 24.992L527.775 25.376C527.007 27.2 523.839 36.704 523.551 37.472C524.991 35.36 526.623 32.96 528.351 30.752C531.231 27.008 535.263 22.112 539.295 22.112C541.695 22.112 543.711 23.552 543.711 26.144L543.615 27.296C542.271 33.92 537.663 46.784 537.663 52.352C537.663 53.504 537.759 54.08 538.239 54.08C540.639 53.888 542.367 50.72 549.087 35.648C549.279 35.264 549.567 35.072 549.855 35.072C550.431 35.072 550.911 35.456 550.911 36.032C550.911 36.128 550.911 36.224 550.815 36.416C544.095 51.68 541.983 55.808 538.335 56L535.647 56.096ZM557.415 39.68C561.543 39.68 567.015 31.232 567.015 28.16C567.015 27.584 566.823 27.296 566.535 27.104C566.247 26.912 566.055 26.912 565.767 26.912C563.559 26.912 560.487 30.944 559.527 32.288C558.087 34.496 556.839 36.992 556.071 39.296C556.455 39.584 556.935 39.68 557.415 39.68ZM559.239 56H558.183C550.023 55.712 547.046 50.912 547.046 44.864C547.046 41.888 547.718 38.72 548.87 35.648C551.175 29.504 556.263 22.112 563.271 22.112H563.655C567.303 22.208 570.279 24.032 570.279 27.68V27.872C570.087 34.688 563.079 43.04 557.895 43.04C556.935 43.04 555.975 42.752 555.207 42.08C555.015 43.232 554.823 44.48 554.823 45.728C554.823 49.376 555.879 53.12 559.047 53.792L560.103 53.888C560.679 53.888 561.447 53.792 562.215 53.6C565.575 52.352 570.375 48.224 576.423 35.648C576.615 35.264 576.903 35.072 577.191 35.072C577.383 35.072 577.575 35.168 577.767 35.264C578.055 35.36 578.247 35.648 578.247 36.032C578.247 36.032 578.247 36.224 578.151 36.416C571.719 49.856 566.439 54.176 562.599 55.52C561.351 55.904 560.199 56 559.239 56ZM590.838 56H589.878C587.574 56 584.214 55.904 583.062 53.696C582.582 52.736 582.294 51.392 582.294 49.856C582.294 42.656 587.094 30.752 588.822 25.568C587.574 25.664 585.846 26.144 584.214 26.144C583.734 26.144 583.158 26.144 582.678 25.952C581.238 29.696 580.374 31.616 578.166 36.416C578.07 36.704 577.686 36.992 577.398 36.992C577.206 36.992 577.11 36.992 576.918 36.896C576.63 36.8 576.341 36.608 576.341 36.032C576.341 35.936 576.341 35.84 576.438 35.648C578.742 30.56 579.414 29.024 581.046 25.088C580.182 24.416 579.798 23.456 579.798 22.4C579.798 21.056 580.278 19.616 580.758 18.368C581.046 17.6 582.102 17.312 583.062 17.312C584.214 17.312 585.462 17.696 585.462 18.464L585.366 18.752C584.982 20.096 584.214 22.304 583.926 22.976C586.518 22.88 588.726 22.112 590.742 22.112C593.142 22.112 595.542 23.936 595.926 26.432L596.022 27.104C596.022 28.64 595.254 30.656 594.198 33.728C592.662 38.048 589.59 46.592 589.59 51.392L589.782 53.024C589.974 53.888 590.358 54.176 590.838 54.176C592.086 54.176 593.91 51.968 594.39 51.2C596.214 48.512 598.614 43.712 602.262 35.648C602.454 35.264 602.742 35.072 603.03 35.072C603.318 35.072 603.51 35.168 603.702 35.264C603.894 35.36 604.086 35.648 604.086 36.032C604.086 36.128 604.086 36.224 603.99 36.416C600.342 44.576 597.942 49.472 596.022 52.256C593.91 55.328 592.566 56 590.838 56ZM606.155 56.192C600.491 56.192 597.803 52.448 597.803 48.32C597.803 46.112 598.571 43.808 600.011 41.888C600.491 41.216 601.259 40.928 602.027 40.928C604.235 40.928 607.019 42.944 607.019 44.192C607.019 44.48 606.923 44.672 606.635 44.864C605.195 46.208 603.851 49.664 603.851 51.68C603.851 52.352 604.043 52.928 604.331 53.12C604.523 53.216 604.715 53.312 604.907 53.312C605.483 53.312 606.155 52.832 606.635 52.256C607.979 50.528 608.363 48.128 608.363 45.44C608.363 40.832 607.211 35.456 607.211 31.232C607.211 30.56 607.211 29.888 607.307 29.216L603.851 36.608C603.659 36.992 603.371 37.184 602.987 37.184C602.507 37.184 602.027 36.704 602.027 36.224C602.027 36.128 602.027 35.936 602.123 35.744C602.987 34.016 607.979 22.208 609.707 22.208H616.907C617.483 22.208 617.867 22.688 617.867 23.168C617.867 23.36 617.771 23.552 617.675 23.744C615.947 26.336 615.467 28.928 615.467 31.52C615.467 35.552 616.619 39.584 616.619 43.712C616.619 50.048 613.163 56.192 606.155 56.192Z" fill="#FF85A8"/>
</g>
<defs>
<filter id="filter0_d_171_96" x="0" y="0.60791" width="621.867" height="164.192" filterUnits="userSpaceOnUse" color-interpolation-filters="sRGB">
<feFlood flood-opacity="0" result="BackgroundImageFix"/>
<feColorMatrix in="SourceAlpha" type="matrix" values="0 0 0 0 0 0 0 0 0 0 0 0 0 0 0 0 0 0 127 0" result="hardAlpha"/>
<feOffset dy="4"/>
<feGaussianBlur stdDeviation="2"/>
<feComposite in2="hardAlpha" operator="out"/>
<feColorMatrix type="matrix" values="0 0 0 0 0 0 0 0 0 0 0 0 0 0 0 0 0 0 0.1 0"/>
<feBlend mode="normal" in2="BackgroundImageFix" result="effect1_dropShadow_171_96"/>
<feBlend mode="normal" in="SourceGraphic" in2="effect1_dropShadow_171_96" result="shape"/>
</filter>
</defs>
</svg>
