<svg width="166" height="57" viewBox="0 0 166 57" fill="none" xmlns="http://www.w3.org/2000/svg">
<g filter="url(#filter0_d_84_36)">
<path d="M13.5315 40.136C7.8355 40.136 4.1875 36.232 4.1875 31.496C4.1875 29.576 4.8275 27.528 6.1075 25.544C8.2835 22.088 11.3555 19.528 15.2595 18.184C11.8675 17.224 10.4595 14.92 10.4595 12.296C10.4595 8.712 13.1475 4.424 16.7955 2.312C19.1635 0.903999 22.0435 0.0719986 24.6675 0.0719986C27.8035 0.0719986 30.6195 1.224 32.2195 3.72C33.0515 5.064 33.4355 6.6 33.4355 8.2C33.4355 12.232 31.0035 16.456 27.0995 17.48L26.3315 17.608C24.2835 17.608 23.0035 15.24 23.0035 13.256C23.0035 12.936 23.3235 12.616 23.6435 12.616H24.1555C26.1395 12.616 29.2755 8.52 29.2755 6.216C29.2755 5.832 29.2115 5.512 29.0195 5.256C28.4435 4.552 27.6755 4.232 26.8435 4.232C24.2835 4.232 20.8915 6.6 19.6115 7.944C18.1395 9.48 16.4115 11.784 16.4115 13.896C16.4115 14.792 16.7315 15.624 17.4355 16.328C18.3315 17.16 19.4835 17.608 20.2515 18.504C20.7635 19.08 21.1475 19.848 21.2755 21.064C21.2755 21.384 21.0835 21.704 20.7635 21.768C16.4115 22.664 8.9875 27.336 8.4755 32.072L8.4115 32.904C8.4115 36.488 11.3555 36.616 11.6755 36.616H12.1235C17.4355 36.616 26.3315 28.808 26.3315 23.496V23.24C26.3315 22.92 26.5875 22.6 26.9715 22.6L27.2275 22.664C29.6595 23.496 31.3875 24.648 31.3875 26.696C31.3875 27.464 31.1955 28.296 30.6835 29.32C27.5475 35.848 20.6355 40.136 13.5315 40.136ZM41.647 33.288C42.031 33.288 42.479 32.968 42.991 32.456C43.503 31.88 43.951 31.304 44.335 30.664C44.783 30.088 45.039 29.64 45.103 29.32C42.991 29.448 41.647 30.216 41.071 31.688C40.943 31.944 40.943 32.2 40.943 32.392C40.943 32.968 41.135 33.288 41.647 33.288ZM33.199 48.776C31.087 48.776 30.063 47.944 30.063 46.28C30.063 44.104 30.831 40.136 32.303 34.44C34.671 24.904 36.655 18.504 38.255 15.176C38.575 14.664 39.151 14.408 39.855 14.408C40.687 14.408 41.519 14.6 42.351 14.984C43.183 15.368 43.567 15.816 43.567 16.264L43.311 17.032C44.655 15.304 46.127 14.408 47.727 14.408C49.839 14.408 51.183 15.56 51.823 17.864C52.143 18.824 52.271 19.848 52.271 20.872C52.207 23.176 51.759 25.416 50.927 27.656C53.679 27.272 55.599 25.864 56.815 23.368C56.943 23.176 57.135 23.048 57.327 23.048C57.775 23.048 57.967 23.304 57.967 23.88C56.367 27.016 53.871 28.744 50.351 29C48.303 33.416 45.551 35.656 42.159 35.656C40.367 35.656 39.471 34.76 39.471 32.968C39.471 31.688 40.047 30.472 41.199 29.384C42.415 28.488 43.951 28.04 45.743 28.04C46.703 25.544 47.215 23.112 47.215 20.744C47.215 18.888 46.831 17.992 46.127 17.992C45.423 17.992 44.591 18.76 43.567 20.232C42.287 22.024 41.199 24.008 40.303 26.248C36.783 37.768 34.991 45 34.991 47.944C34.991 48.456 34.799 48.712 34.479 48.712L33.199 48.776ZM60.206 37H59.374C57.774 37 56.11 36.808 55.406 35.464C55.022 34.824 54.83 33.8 54.83 32.648C54.83 31.304 55.086 29.704 55.406 28.04C56.43 23.24 58.542 17.544 59.502 15.176C59.758 14.664 60.398 14.408 61.102 14.408C62.638 14.408 64.622 15.368 64.622 16.328L64.558 16.584C64.046 17.992 59.566 30.728 59.566 34.632C59.566 35.336 59.694 35.72 60.078 35.72C62.19 35.656 66.158 27.464 67.95 23.432C68.078 23.112 68.27 23.048 68.526 23.048L68.846 23.112C69.038 23.176 69.166 23.368 69.166 23.624C69.166 23.752 69.166 23.816 69.102 23.944C67.054 28.488 63.15 36.872 60.206 37ZM64.878 12.04C63.598 12.04 61.742 11.272 61.742 10.44C61.742 9.416 62.51 6.92 62.894 6.088C63.086 5.512 63.662 5.32 64.366 5.32C65.838 5.32 67.758 6.344 67.758 7.304C67.758 7.432 67.758 7.624 67.63 7.752C67.31 8.328 66.414 10.632 65.966 11.592C65.838 11.912 65.39 12.04 64.878 12.04ZM71.2015 37H70.3055C68.7695 37 67.2975 36.808 66.6575 35.464C66.3375 34.76 66.2095 33.8 66.2095 32.712C66.2095 24.904 72.8015 8.52 73.8255 6.152C74.1455 5.64 74.7855 5.384 75.5535 5.384C77.2175 5.384 79.3295 6.472 79.3295 7.368L79.2655 7.56C78.4975 9.608 71.7775 27.208 71.0735 33.8L71.0095 35.08C71.0095 35.464 71.0095 35.72 71.1375 35.72H71.2655C72.0975 35.72 73.3135 34.056 73.6975 33.544C75.6815 30.792 77.8575 26.12 79.1375 23.432C79.2655 23.112 79.4575 23.048 79.7135 23.048C79.7775 23.048 79.9055 23.048 80.0335 23.112C80.2255 23.24 80.3535 23.432 80.3535 23.624C80.3535 23.752 80.3535 23.816 80.2895 23.944C78.9455 26.888 76.8335 31.368 74.6575 34.248C73.9535 35.272 72.5455 36.936 71.2015 37ZM83.797 32.2C85.717 32.136 89.173 25.416 89.813 23.816C90.133 22.984 90.709 21.256 90.709 19.848C90.709 18.952 90.453 18.248 89.749 18.056L89.365 17.992C86.485 17.992 82.837 26.696 82.837 30.472C82.837 31.56 83.157 32.2 83.797 32.2ZM93.333 37H92.565C90.965 37 89.301 36.808 88.597 35.464C88.213 34.824 88.085 33.864 88.085 32.776C88.085 32.136 88.149 31.496 88.213 30.728C86.741 33.288 84.693 35.784 82.197 35.784H82.069C78.997 35.72 77.717 33.16 77.717 29.832C77.717 23.496 82.325 14.472 88.661 14.472H88.725C90.389 14.472 91.733 15.048 92.501 16.264L92.949 15.112C93.269 14.6 93.845 14.408 94.613 14.408C96.085 14.408 98.069 15.304 98.069 16.328L98.005 16.584C97.173 18.632 93.013 29.64 92.885 34.248C92.885 35.144 92.949 35.72 93.269 35.72C95.381 35.656 99.413 27.464 101.269 23.432C101.397 23.112 101.589 23.048 101.845 23.048L102.165 23.112C102.357 23.176 102.485 23.368 102.485 23.624C102.485 23.752 102.485 23.752 102.421 23.944C100.309 28.488 96.341 36.872 93.333 37ZM102.658 46.408C101.698 46.408 100.866 46.088 100.418 45.576C100.162 45.32 100.098 44.936 100.098 44.552C100.098 43.976 100.354 43.336 100.61 43.08L100.738 43.016C100.93 43.016 101.122 43.144 101.122 43.272V43.336C101.122 43.4 100.994 43.656 100.994 43.848C100.994 44.04 101.122 44.296 101.57 44.424L102.338 44.552C104.066 44.552 106.242 43.08 106.434 41.352V41.224C106.434 40.584 105.858 40.328 105.218 40.328C104.514 40.328 103.682 40.584 103.17 40.904H103.042C102.594 40.904 101.698 39.816 101.698 39.24V39.112C101.89 38.536 103.042 37.192 103.81 36.36C100.93 35.144 99.842 32.584 99.842 29.576C99.842 27.656 100.29 25.544 101.058 23.496C102.594 19.272 106.05 14.408 110.722 14.408C111.17 14.408 111.682 14.472 112.13 14.536C114.626 15.048 115.586 16.968 115.586 18.824C115.586 20.04 115.138 21.32 114.498 22.088C114.05 22.664 113.41 23.048 112.77 23.048C112.386 23.048 111.938 22.92 111.554 22.6C111.362 22.472 111.234 22.28 111.234 22.152L111.362 21.768C111.618 21.32 112.898 19.144 112.898 18.12C112.898 17.8 112.77 17.608 112.514 17.544H112.322C110.53 17.544 106.882 22.024 105.538 26.824C105.282 27.784 105.09 29.064 105.09 30.28C105.09 32.584 105.73 34.888 107.522 35.464C107.842 35.592 108.162 35.656 108.546 35.656C108.994 35.656 109.442 35.592 109.954 35.4C112.194 34.568 115.394 31.88 119.426 23.432C119.554 23.176 119.746 23.048 119.938 23.048C120.066 23.048 120.194 23.112 120.322 23.176C120.514 23.24 120.642 23.432 120.642 23.688C120.642 23.816 120.642 23.88 120.578 24.008C116.354 32.904 112.77 35.784 110.274 36.68C109.378 36.936 108.61 37 107.97 37H107.266C106.498 37 105.794 36.936 105.218 36.808L103.618 38.792C104.066 38.664 104.514 38.6 105.026 38.6C105.858 38.6 106.754 38.792 107.33 39.432C107.778 39.944 107.97 40.712 107.97 41.48C107.97 41.992 107.842 42.568 107.65 43.08C106.754 45.384 104.514 46.408 102.658 46.408ZM123.982 32.2C125.902 32.136 129.358 25.416 130.062 23.816C130.382 22.984 130.958 21.256 130.958 19.848C130.958 18.952 130.702 18.248 129.998 18.056L129.614 17.992C126.67 17.992 123.022 26.696 123.022 30.472C123.022 31.56 123.342 32.2 123.982 32.2ZM133.582 37H132.75C131.15 37 129.486 36.808 128.782 35.528C128.398 34.888 128.27 33.928 128.27 32.84C128.27 32.2 128.334 31.496 128.398 30.792C126.926 33.352 124.814 35.848 122.318 35.848C119.245 35.784 117.965 33.224 117.965 29.832C117.965 23.496 122.574 14.472 128.91 14.472H128.974C130.574 14.472 131.918 15.048 132.686 16.264L133.198 15.112C133.454 14.6 134.03 14.408 134.734 14.408C136.27 14.408 138.253 15.368 138.253 16.328L138.19 16.584C137.358 18.632 133.198 29.64 133.07 34.248C133.07 35.08 133.134 35.72 133.454 35.72H133.518C135.63 35.656 139.662 27.464 141.518 23.432C141.646 23.176 141.838 23.048 142.094 23.048C142.158 23.048 142.222 23.048 142.35 23.112C142.542 23.24 142.734 23.432 142.734 23.688C142.734 23.752 142.734 23.816 142.67 23.944C140.558 28.488 136.526 36.872 133.582 37ZM130.254 11.464C129.294 11.464 128.334 10.952 127.63 9.288L127.566 8.968C127.566 8.52 128.014 8.2 128.398 8.2C128.59 8.2 128.718 8.328 128.845 8.456C129.23 9.096 129.614 9.352 130.126 9.352C130.894 9.352 131.79 8.712 132.878 8.136C133.39 7.816 133.902 7.624 134.414 7.624C135.246 7.624 136.014 8.2 136.718 9.672L136.782 9.928C136.782 10.312 136.462 10.632 136.078 10.632C135.885 10.632 135.694 10.568 135.502 10.312C135.246 9.992 134.926 9.8 134.606 9.8C134.03 9.8 133.262 10.312 132.238 10.888C131.598 11.208 130.958 11.464 130.254 11.464ZM146.364 35.016C148.86 35.016 151.356 28.808 152.06 26.824C151.036 26.056 150.652 24.904 150.652 23.816C150.652 21.96 151.804 20.104 153.02 19.784C152.828 18.952 152.444 18.312 151.612 18.312H151.292C148.22 18.824 144.828 27.528 144.828 32.136C144.828 33.736 145.212 34.888 146.172 35.016H146.364ZM145.916 37C141.884 37 140.22 33.736 140.22 29.64C140.22 23.048 144.636 14.408 150.588 14.408C151.1 14.408 151.612 14.472 152.188 14.6C155.26 15.368 156.156 18.248 156.156 21.256C156.156 23.112 155.772 25.096 155.324 26.568C157.436 26.568 159.74 25.48 160.828 23.368C160.956 23.112 161.148 23.048 161.34 23.048C161.468 23.048 161.596 23.112 161.724 23.176C161.916 23.24 161.98 23.432 161.98 23.624C161.98 23.752 161.98 23.88 161.916 24.008C160.636 26.44 157.948 27.848 155.388 27.848H154.876C153.468 31.88 150.332 37 145.916 37Z" fill="#31000E"/>
</g>
<defs>
<filter id="filter0_d_84_36" x="0.1875" y="0.071991" width="165.792" height="56.704" filterUnits="userSpaceOnUse" color-interpolation-filters="sRGB">
<feFlood flood-opacity="0" result="BackgroundImageFix"/>
<feColorMatrix in="SourceAlpha" type="matrix" values="0 0 0 0 0 0 0 0 0 0 0 0 0 0 0 0 0 0 127 0" result="hardAlpha"/>
<feOffset dy="4"/>
<feGaussianBlur stdDeviation="2"/>
<feComposite in2="hardAlpha" operator="out"/>
<feColorMatrix type="matrix" values="0 0 0 0 0 0 0 0 0 0 0 0 0 0 0 0 0 0 0.1 0"/>
<feBlend mode="normal" in2="BackgroundImageFix" result="effect1_dropShadow_84_36"/>
<feBlend mode="normal" in="SourceGraphic" in2="effect1_dropShadow_84_36" result="shape"/>
</filter>
</defs>
</svg>
