<svg width="148" height="96" viewBox="0 0 148 96" fill="none" xmlns="http://www.w3.org/2000/svg">
<rect width="148" height="96" rx="23" fill="#FFB6CB" fill-opacity="0.62"/>
<path d="M89 53L83.8567 47.8567C83.2316 47.2318 82.3839 46.8807 81.5 46.8807C80.6161 46.8807 79.7684 47.2318 79.1433 47.8567L64 63M62.3333 33H85.6667C87.5076 33 89 34.4924 89 36.3333V59.6667C89 61.5076 87.5076 63 85.6667 63H62.3333C60.4924 63 59 61.5076 59 59.6667V36.3333C59 34.4924 60.4924 33 62.3333 33ZM72.3333 43C72.3333 44.8409 70.8409 46.3333 69 46.3333C67.1591 46.3333 65.6667 44.8409 65.6667 43C65.6667 41.1591 67.1591 39.6667 69 39.6667C70.8409 39.6667 72.3333 41.1591 72.3333 43Z" stroke="white" stroke-width="3.33333" stroke-linecap="round" stroke-linejoin="round"/>
</svg>
