<svg width="1920" height="269" viewBox="0 0 1920 269" fill="none" xmlns="http://www.w3.org/2000/svg">
<g filter="url(#filter0_d_82_13)">
<path d="M0 160.567C97.2078 194.931 194.776 211.871 296.255 225.931C492.471 253.116 689.82 267.502 887.397 253.649C967.096 248.061 1055.96 243.549 1129.7 205.108C1159.57 189.537 1192.68 165.225 1207.4 130.919C1213.39 116.953 1218.31 86.7335 1200.56 80.1717C1189 75.8991 1177.24 80.0792 1174.08 94.0995C1169.24 115.591 1178.38 142.133 1193.72 155.878C1227.85 186.455 1283.25 159.034 1315.31 139.055C1347.18 119.19 1376.55 96.1044 1410.29 79.758C1480.79 45.5973 1556.84 21.9946 1632.82 8.87797C1684.84 -0.102202 1740.72 -1.71596 1792.2 12.7391C1840.07 26.1798 1879.65 64.2053 1920 93.5479" stroke="#FFB6CB" stroke-width="3" stroke-linecap="round" shape-rendering="crispEdges"/>
</g>
<defs>
<filter id="filter0_d_82_13" x="-5.50049" y="0.5" width="1931" height="268" filterUnits="userSpaceOnUse" color-interpolation-filters="sRGB">
<feFlood flood-opacity="0" result="BackgroundImageFix"/>
<feColorMatrix in="SourceAlpha" type="matrix" values="0 0 0 0 0 0 0 0 0 0 0 0 0 0 0 0 0 0 127 0" result="hardAlpha"/>
<feOffset dy="4"/>
<feGaussianBlur stdDeviation="2"/>
<feComposite in2="hardAlpha" operator="out"/>
<feColorMatrix type="matrix" values="0 0 0 0 0 0 0 0 0 0 0 0 0 0 0 0 0 0 0.05 0"/>
<feBlend mode="normal" in2="BackgroundImageFix" result="effect1_dropShadow_82_13"/>
<feBlend mode="normal" in="SourceGraphic" in2="effect1_dropShadow_82_13" result="shape"/>
</filter>
</defs>
</svg>
