<svg width="311" height="55" viewBox="0 0 311 55" fill="none" xmlns="http://www.w3.org/2000/svg">
<g filter="url(#filter0_d_171_109)">
<path d="M19.4448 40.136H18.8048C17.3328 40.136 15.6048 39.88 15.2848 38.472C15.2208 38.28 15.2208 38.024 15.2208 37.768C15.2208 35.784 16.2448 31.56 17.5888 26.696C20.0208 18.248 23.4768 7.944 24.5008 5.576C24.6928 5.064 25.3328 4.872 26.1008 4.872C27.7008 4.872 29.8768 5.832 29.8768 6.856L29.8128 7.112C27.8928 12.104 26.1648 17.544 24.5008 22.664L25.3328 22.792C27.7008 22.792 30.7728 20.232 33.1408 16.968C34.8688 14.6 36.5968 11.208 36.5968 8.328C36.5968 5.832 35.2528 3.72 31.4128 3.208C30.5808 3.08 29.6848 3.016 28.7248 3.016C20.7248 3.016 10.1648 6.984 8.50075 15.112C8.43675 15.496 8.18075 15.688 7.86075 15.688L7.34875 15.56C5.87675 14.92 4.46875 11.848 4.46875 9.48C4.46875 8.456 4.72475 7.496 5.36475 6.984C11.2528 1.928 18.4208 0.135998 25.9088 0.135998H26.6768C35.1888 0.199997 41.3328 3.656 41.3328 10.12C41.3328 12.04 40.7568 14.28 39.5408 16.776C37.1728 21.64 32.5648 25.736 27.5088 26.184H26.9328C25.6528 26.184 24.8208 25.8 23.7968 24.968C22.3248 29.576 20.0848 37.192 20.0848 39.496C20.0848 39.816 19.8288 40.136 19.4448 40.136ZM49.8188 37H49.1788C47.6428 37 45.4028 36.936 44.6348 35.464C44.3148 34.824 44.1228 33.928 44.1228 32.904C44.1228 28.104 47.3228 20.168 48.4748 16.712C47.6428 16.776 46.4908 17.096 45.4028 17.096C45.0828 17.096 44.6988 17.096 44.3788 16.968C43.4188 19.464 42.8428 20.744 41.3708 23.944C41.3068 24.136 41.0508 24.328 40.8588 24.328C40.7308 24.328 40.6668 24.328 40.5388 24.264C40.3468 24.2 40.1547 24.072 40.1547 23.688C40.1547 23.624 40.1547 23.56 40.2188 23.432C41.7548 20.04 42.2028 19.016 43.2908 16.392C42.7148 15.944 42.4588 15.304 42.4588 14.6C42.4588 13.704 42.7788 12.744 43.0988 11.912C43.2908 11.4 43.9948 11.208 44.6348 11.208C45.4028 11.208 46.2348 11.464 46.2348 11.976L46.1708 12.168C45.9148 13.064 45.4028 14.536 45.2108 14.984C46.9388 14.92 48.4108 14.408 49.7548 14.408C51.3548 14.408 52.9548 15.624 53.2108 17.288L53.2748 17.736C53.2748 18.76 52.7628 20.104 52.0588 22.152C51.0348 25.032 48.9868 30.728 48.9868 33.928L49.1148 35.016C49.2428 35.592 49.4988 35.784 49.8188 35.784C50.6508 35.784 51.8668 34.312 52.1868 33.8C53.4028 32.008 55.0028 28.808 57.4348 23.432C57.5628 23.176 57.7548 23.048 57.9468 23.048C58.1388 23.048 58.2668 23.112 58.3948 23.176C58.5228 23.24 58.6508 23.432 58.6508 23.688C58.6508 23.752 58.6508 23.816 58.5868 23.944C56.1548 29.384 54.5548 32.648 53.2748 34.504C51.8668 36.552 50.9708 37 49.8188 37ZM62.9743 26.12C65.7263 26.12 69.3743 20.488 69.3743 18.44C69.3743 18.056 69.2463 17.864 69.0543 17.736C68.8623 17.608 68.7343 17.608 68.5423 17.608C67.0703 17.608 65.0223 20.296 64.3823 21.192C63.4223 22.664 62.5903 24.328 62.0783 25.864C62.3343 26.056 62.6543 26.12 62.9743 26.12ZM64.1903 37H63.4863C58.0463 36.808 56.0622 33.608 56.0622 29.576C56.0622 27.592 56.5102 25.48 57.2782 23.432C58.8143 19.336 62.2063 14.408 66.8783 14.408H67.1343C69.5663 14.472 71.5503 15.688 71.5503 18.12V18.248C71.4223 22.792 66.7503 28.36 63.2943 28.36C62.6543 28.36 62.0143 28.168 61.5023 27.72C61.3743 28.488 61.2463 29.32 61.2463 30.152C61.2463 32.584 61.9503 35.08 64.0623 35.528L64.7663 35.592C65.1503 35.592 65.6623 35.528 66.1743 35.4C68.4143 34.568 71.6143 31.816 75.6463 23.432C75.7743 23.176 75.9663 23.048 76.1583 23.048C76.2863 23.048 76.4143 23.112 76.5423 23.176C76.7343 23.24 76.8623 23.432 76.8623 23.688C76.8623 23.688 76.8623 23.816 76.7983 23.944C72.5103 32.904 68.9903 35.784 66.4303 36.68C65.5983 36.936 64.8303 37 64.1903 37ZM77.0643 46.408C76.1043 46.408 75.2722 46.088 74.8242 45.576C74.5682 45.32 74.5042 44.936 74.5042 44.552C74.5042 43.976 74.7602 43.336 75.0162 43.08L75.1442 43.016C75.3362 43.016 75.5282 43.144 75.5282 43.272V43.336C75.5282 43.4 75.4002 43.656 75.4002 43.848C75.4002 44.04 75.5282 44.296 75.9763 44.424L76.7443 44.552C78.4723 44.552 80.6483 43.08 80.8403 41.352V41.224C80.8403 40.584 80.2643 40.328 79.6243 40.328C78.9203 40.328 78.0883 40.584 77.5763 40.904H77.4483C77.0003 40.904 76.1043 39.816 76.1043 39.24V39.112C76.2963 38.536 77.4483 37.192 78.2163 36.36C75.3362 35.144 74.2482 32.584 74.2482 29.576C74.2482 27.656 74.6962 25.544 75.4642 23.496C77.0003 19.272 80.4563 14.408 85.1283 14.408C85.5763 14.408 86.0883 14.472 86.5363 14.536C89.0323 15.048 89.9923 16.968 89.9923 18.824C89.9923 20.04 89.5443 21.32 88.9043 22.088C88.4563 22.664 87.8163 23.048 87.1763 23.048C86.7923 23.048 86.3443 22.92 85.9603 22.6C85.7683 22.472 85.6403 22.28 85.6403 22.152L85.7683 21.768C86.0243 21.32 87.3043 19.144 87.3043 18.12C87.3043 17.8 87.1763 17.608 86.9203 17.544H86.7283C84.9363 17.544 81.2883 22.024 79.9443 26.824C79.6883 27.784 79.4963 29.064 79.4963 30.28C79.4963 32.584 80.1363 34.888 81.9283 35.464C82.2483 35.592 82.5683 35.656 82.9523 35.656C83.4003 35.656 83.8483 35.592 84.3603 35.4C86.6003 34.568 89.8003 31.88 93.8323 23.432C93.9603 23.176 94.1523 23.048 94.3443 23.048C94.4722 23.048 94.6003 23.112 94.7283 23.176C94.9203 23.24 95.0483 23.432 95.0483 23.688C95.0483 23.816 95.0483 23.88 94.9843 24.008C90.7603 32.904 87.1763 35.784 84.6803 36.68C83.7843 36.936 83.0163 37 82.3763 37H81.6723C80.9043 37 80.2003 36.936 79.6243 36.808L78.0243 38.792C78.4723 38.664 78.9203 38.6 79.4323 38.6C80.2643 38.6 81.1603 38.792 81.7363 39.432C82.1843 39.944 82.3763 40.712 82.3763 41.48C82.3763 41.992 82.2483 42.568 82.0563 43.08C81.1603 45.384 78.9203 46.408 77.0643 46.408ZM98.7718 35.08C101.268 35.08 103.764 28.808 104.404 26.824C103.38 26.056 102.996 24.904 102.996 23.816C102.996 21.96 104.148 20.168 105.364 19.784C105.172 19.016 104.852 18.376 104.02 18.376H103.636C100.564 18.824 97.2358 27.528 97.2358 32.2C97.2358 33.8 97.6198 34.952 98.5798 35.08H98.7718ZM116.5 37.064H115.924C112.148 37.064 110.356 34.568 110.356 31.816C110.356 30.344 110.868 28.808 111.828 27.528C112.148 27.08 112.66 26.888 113.172 26.888C114.644 26.888 116.436 28.232 116.436 29.064C116.436 29.256 116.372 29.384 116.244 29.512C115.284 30.344 114.388 32.648 114.388 34.056C114.388 34.504 114.452 34.824 114.708 35.016C114.836 35.08 114.964 35.144 115.092 35.144C115.476 35.144 115.924 34.824 116.244 34.376C117.14 33.224 117.396 31.624 117.396 29.832C117.396 26.76 116.628 23.176 116.628 20.36C116.628 19.912 116.628 19.464 116.692 19.016C114.836 22.408 112.084 27.848 107.668 27.848H107.284C105.812 31.88 102.74 37.064 98.3238 37.064C94.2918 37.064 92.6277 33.8 92.6277 29.704C92.6277 23.048 97.0438 14.408 102.996 14.408C103.508 14.408 104.02 14.472 104.596 14.6C107.604 15.432 108.5 18.248 108.5 21.192C108.5 23.112 108.116 25.096 107.668 26.632C111.316 26.632 114.196 21.064 115.604 18.312C116.628 16.264 117.716 14.408 118.292 14.408H123.028C123.412 14.408 123.668 14.728 123.668 15.048C123.668 15.176 123.668 15.304 123.54 15.432C122.388 17.16 122.004 18.888 122.004 20.616C122.004 23.304 122.9 25.992 122.9 28.744C122.9 29.384 122.836 30.024 122.708 30.664C122.388 32.072 122.004 33.224 121.428 34.12C122.26 33.288 123.604 31.496 124.628 29.96C125.716 28.296 126.932 26.12 128.212 23.432C128.34 23.176 128.532 23.048 128.788 23.048C129.108 23.048 129.428 23.304 129.428 23.688C129.428 23.752 129.428 23.88 129.364 24.008C128.148 26.44 126.932 28.744 125.588 30.856C124.628 32.264 123.668 33.608 122.58 34.76C120.66 36.936 118.42 37.064 116.5 37.064ZM147.641 32.2C149.561 32.136 153.017 25.416 153.657 23.816C153.977 22.984 154.553 21.256 154.553 19.848C154.553 18.952 154.297 18.248 153.593 18.056L153.209 17.992C150.329 17.992 146.681 26.696 146.681 30.472C146.681 31.56 147.001 32.2 147.641 32.2ZM157.177 37H156.409C154.809 37 153.145 36.808 152.441 35.464C152.057 34.824 151.929 33.864 151.929 32.776C151.929 32.136 151.993 31.496 152.057 30.728C150.585 33.288 148.537 35.784 146.041 35.784H145.913C142.841 35.72 141.561 33.16 141.561 29.832C141.561 23.496 146.169 14.472 152.505 14.472H152.569C154.233 14.472 155.577 15.048 156.345 16.264L156.793 15.112C157.113 14.6 157.689 14.408 158.457 14.408C159.929 14.408 161.913 15.304 161.913 16.328L161.849 16.584C161.017 18.632 156.857 29.64 156.729 34.248C156.729 35.144 156.793 35.72 157.113 35.72C159.225 35.656 163.257 27.464 165.113 23.432C165.241 23.112 165.433 23.048 165.689 23.048L166.009 23.112C166.201 23.176 166.329 23.368 166.329 23.624C166.329 23.752 166.329 23.752 166.265 23.944C164.153 28.488 160.185 36.872 157.177 37ZM171.878 37H171.174C165.734 36.808 163.75 33.608 163.75 29.576C163.75 27.592 164.198 25.48 164.966 23.432C166.566 19.272 169.958 14.408 174.63 14.408C175.078 14.408 175.59 14.472 176.038 14.536C178.598 15.048 179.558 16.904 179.558 18.76C179.558 19.976 179.11 21.256 178.406 22.088C177.894 22.664 177.318 22.984 176.678 22.984C176.294 22.984 175.846 22.856 175.462 22.6C175.27 22.472 175.206 22.28 175.206 22.024C175.206 21.96 175.206 21.832 175.27 21.768C175.526 21.32 176.806 19.144 176.806 18.12C176.806 17.8 176.678 17.608 176.422 17.544H176.23C174.438 17.544 170.79 22.024 169.51 26.824C169.19 27.784 168.998 29.064 168.998 30.344C168.998 32.584 169.638 34.824 171.494 35.464C171.814 35.528 172.134 35.592 172.454 35.592C172.902 35.592 173.35 35.528 173.862 35.4C176.166 34.568 179.366 31.816 183.398 23.432C183.526 23.112 183.718 23.048 183.91 23.048C184.102 23.048 184.23 23.112 184.23 23.112C184.422 23.24 184.55 23.432 184.55 23.688C184.55 23.688 184.55 23.816 184.486 23.944C180.262 32.84 176.742 35.72 174.182 36.616C173.286 36.936 172.518 37 171.878 37ZM188.974 26.12C191.726 26.12 195.374 20.488 195.374 18.44C195.374 18.056 195.246 17.864 195.054 17.736C194.862 17.608 194.734 17.608 194.542 17.608C193.07 17.608 191.022 20.296 190.382 21.192C189.422 22.664 188.59 24.328 188.078 25.864C188.334 26.056 188.654 26.12 188.974 26.12ZM190.19 37H189.486C184.046 36.808 182.062 33.608 182.062 29.576C182.062 27.592 182.51 25.48 183.278 23.432C184.814 19.336 188.206 14.408 192.878 14.408H193.134C195.566 14.472 197.55 15.688 197.55 18.12V18.248C197.422 22.792 192.75 28.36 189.294 28.36C188.654 28.36 188.014 28.168 187.502 27.72C187.374 28.488 187.246 29.32 187.246 30.152C187.246 32.584 187.95 35.08 190.062 35.528L190.766 35.592C191.15 35.592 191.662 35.528 192.174 35.4C194.414 34.568 197.614 31.816 201.646 23.432C201.774 23.176 201.966 23.048 202.158 23.048C202.286 23.048 202.414 23.112 202.542 23.176C202.734 23.24 202.862 23.432 202.862 23.688C202.862 23.688 202.862 23.816 202.798 23.944C198.51 32.904 194.99 35.784 192.43 36.68C191.598 36.936 190.83 37 190.19 37ZM204.984 37H204.408C200.632 37 198.84 34.568 198.84 31.816C198.84 30.344 199.352 28.808 200.312 27.464C200.632 27.016 201.144 26.824 201.656 26.824C203.128 26.824 204.984 28.168 204.984 29.064C204.984 29.192 204.92 29.384 204.728 29.512C203.704 30.344 202.808 32.584 202.808 33.928C202.808 34.44 202.936 34.76 203.192 34.952C203.32 35.08 203.448 35.08 203.576 35.08C203.96 35.08 204.408 34.76 204.728 34.376C205.624 33.224 205.88 31.624 205.88 29.832C205.88 26.76 205.112 23.176 205.112 20.36C205.112 19.912 205.112 19.464 205.176 19.016L202.872 24.008C202.744 24.2 202.488 24.328 202.296 24.328C202.168 24.328 202.104 24.328 201.976 24.264C201.848 24.2 201.656 24.136 201.656 23.816C201.656 23.688 201.656 23.496 201.72 23.368C202.232 22.216 205.56 14.408 206.776 14.408H211.512C211.896 14.408 212.152 14.664 212.152 14.984C212.152 15.112 212.152 15.304 212.024 15.432C210.872 17.16 210.488 18.888 210.488 20.552C210.488 23.24 211.384 25.928 211.384 28.68C211.384 29.32 211.32 29.96 211.192 30.6C210.872 32.072 210.488 33.224 209.912 34.12C210.744 33.224 212.088 31.496 213.112 29.96C214.2 28.232 215.416 26.12 216.696 23.368C216.824 23.112 217.016 23.048 217.272 23.048C217.336 23.048 217.464 23.048 217.592 23.112C217.784 23.24 217.912 23.432 217.912 23.688L217.848 23.944C216.696 26.376 215.416 28.744 214.072 30.792C213.112 32.264 212.152 33.544 211.064 34.76C209.144 36.872 206.904 37 204.984 37ZM220.047 37H219.471C215.695 37 213.903 34.568 213.903 31.816C213.903 30.344 214.415 28.808 215.375 27.464C215.695 27.016 216.207 26.824 216.719 26.824C218.191 26.824 220.047 28.168 220.047 29.064C220.047 29.192 219.983 29.384 219.791 29.512C218.767 30.344 217.871 32.584 217.871 33.928C217.871 34.44 217.999 34.76 218.255 34.952C218.383 35.08 218.511 35.08 218.639 35.08C219.023 35.08 219.471 34.76 219.791 34.376C220.687 33.224 220.943 31.624 220.943 29.832C220.943 26.76 220.175 23.176 220.175 20.36C220.175 19.912 220.175 19.464 220.239 19.016L217.935 24.008C217.807 24.2 217.551 24.328 217.359 24.328C217.231 24.328 217.167 24.328 217.039 24.264C216.911 24.2 216.719 24.136 216.719 23.816C216.719 23.688 216.719 23.496 216.783 23.368C217.295 22.216 220.623 14.408 221.839 14.408H226.575C226.959 14.408 227.215 14.664 227.215 14.984C227.215 15.112 227.215 15.304 227.087 15.432C225.935 17.16 225.551 18.888 225.551 20.552C225.551 23.24 226.447 25.928 226.447 28.68C226.447 29.32 226.383 29.96 226.255 30.6C225.935 32.072 225.551 33.224 224.975 34.12C225.807 33.224 227.151 31.496 228.175 29.96C229.263 28.232 230.479 26.12 231.759 23.368C231.887 23.112 232.079 23.048 232.335 23.048C232.399 23.048 232.527 23.048 232.655 23.112C232.847 23.24 232.975 23.432 232.975 23.688L232.911 23.944C231.759 26.376 230.479 28.744 229.135 30.792C228.175 32.264 227.215 33.544 226.127 34.76C224.207 36.872 221.967 37 220.047 37ZM235.237 37H234.405C232.805 37 231.141 36.808 230.437 35.464C230.053 34.824 229.861 33.8 229.861 32.648C229.861 31.304 230.117 29.704 230.437 28.04C231.461 23.24 233.573 17.544 234.533 15.176C234.789 14.664 235.429 14.408 236.133 14.408C237.669 14.408 239.653 15.368 239.653 16.328L239.589 16.584C239.077 17.992 234.597 30.728 234.597 34.632C234.597 35.336 234.725 35.72 235.109 35.72C237.221 35.656 241.189 27.464 242.981 23.432C243.109 23.112 243.301 23.048 243.557 23.048L243.877 23.112C244.069 23.176 244.197 23.368 244.197 23.624C244.197 23.752 244.197 23.816 244.133 23.944C242.085 28.488 238.181 36.872 235.237 37ZM239.909 12.04C238.629 12.04 236.773 11.272 236.773 10.44C236.773 9.416 237.541 6.92 237.925 6.088C238.117 5.512 238.693 5.32 239.397 5.32C240.869 5.32 242.789 6.344 242.789 7.304C242.789 7.432 242.789 7.624 242.661 7.752C242.341 8.328 241.445 10.632 240.997 11.592C240.869 11.912 240.421 12.04 239.909 12.04ZM249.625 37C246.617 36.936 244.185 37.064 243.545 35.4C242.777 33.608 242.521 31.304 242.521 28.872C242.521 24.328 243.545 19.208 244.633 15.24C244.761 14.664 245.465 14.408 246.233 14.408C247.769 14.408 249.753 15.304 249.753 16.264L249.689 16.584C248.217 20.424 247.513 25.672 247.513 29.832C247.513 33.096 247.769 34.824 248.409 35.208C250.841 32.84 256.665 22.216 256.665 16.712V16.136C256.665 15.688 256.601 15.24 256.473 14.92L256.409 14.664C256.409 14.344 256.729 14.088 257.049 14.088C257.945 14.088 260.185 15.24 260.249 16.328C260.313 16.712 260.313 16.648 260.313 17.032C260.313 22.536 252.825 34.696 250.649 36.488C250.393 36.744 249.881 37 249.625 37ZM266.599 26.12C269.351 26.12 272.999 20.488 272.999 18.44C272.999 18.056 272.871 17.864 272.679 17.736C272.487 17.608 272.359 17.608 272.167 17.608C270.695 17.608 268.647 20.296 268.007 21.192C267.047 22.664 266.215 24.328 265.703 25.864C265.959 26.056 266.279 26.12 266.599 26.12ZM267.815 37H267.111C261.671 36.808 259.687 33.608 259.687 29.576C259.687 27.592 260.135 25.48 260.903 23.432C262.439 19.336 265.831 14.408 270.503 14.408H270.759C273.191 14.472 275.175 15.688 275.175 18.12V18.248C275.047 22.792 270.375 28.36 266.919 28.36C266.279 28.36 265.639 28.168 265.127 27.72C264.999 28.488 264.871 29.32 264.871 30.152C264.871 32.584 265.575 35.08 267.687 35.528L268.391 35.592C268.775 35.592 269.287 35.528 269.799 35.4C272.039 34.568 275.239 31.816 279.271 23.432C279.399 23.176 279.591 23.048 279.783 23.048C279.911 23.048 280.039 23.112 280.167 23.176C280.359 23.24 280.487 23.432 280.487 23.688C280.487 23.688 280.487 23.816 280.423 23.944C276.135 32.904 272.615 35.784 270.055 36.68C269.223 36.936 268.455 37 267.815 37ZM282.737 37H281.905C280.305 37 278.641 36.808 277.937 35.464C277.553 34.824 277.361 33.8 277.361 32.648C277.361 31.304 277.617 29.704 277.937 28.04C278.961 23.24 281.073 17.544 282.033 15.176C282.289 14.664 282.929 14.408 283.633 14.408C285.169 14.408 287.153 15.368 287.153 16.328L287.089 16.584C286.577 17.992 282.097 30.728 282.097 34.632C282.097 35.336 282.225 35.72 282.609 35.72C284.721 35.656 288.689 27.464 290.481 23.432C290.609 23.112 290.801 23.048 291.057 23.048L291.377 23.112C291.569 23.176 291.697 23.368 291.697 23.624C291.697 23.752 291.697 23.816 291.633 23.944C289.585 28.488 285.681 36.872 282.737 37ZM287.409 12.04C286.129 12.04 284.273 11.272 284.273 10.44C284.273 9.416 285.041 6.92 285.425 6.088C285.617 5.512 286.193 5.32 286.897 5.32C288.369 5.32 290.289 6.344 290.289 7.304C290.289 7.432 290.289 7.624 290.161 7.752C289.841 8.328 288.945 10.632 288.497 11.592C288.369 11.912 287.921 12.04 287.409 12.04ZM293.797 37H293.221C289.445 37 287.653 34.568 287.653 31.816C287.653 30.344 288.165 28.808 289.125 27.464C289.445 27.016 289.957 26.824 290.469 26.824C291.941 26.824 293.797 28.168 293.797 29.064C293.797 29.192 293.733 29.384 293.541 29.512C292.517 30.344 291.621 32.584 291.621 33.928C291.621 34.44 291.749 34.76 292.005 34.952C292.133 35.08 292.261 35.08 292.389 35.08C292.773 35.08 293.221 34.76 293.541 34.376C294.437 33.224 294.693 31.624 294.693 29.832C294.693 26.76 293.925 23.176 293.925 20.36C293.925 19.912 293.925 19.464 293.989 19.016L291.685 24.008C291.557 24.2 291.301 24.328 291.109 24.328C290.981 24.328 290.917 24.328 290.789 24.264C290.661 24.2 290.469 24.136 290.469 23.816C290.469 23.688 290.469 23.496 290.533 23.368C291.045 22.216 294.373 14.408 295.589 14.408H300.325C300.709 14.408 300.965 14.664 300.965 14.984C300.965 15.112 300.965 15.304 300.837 15.432C299.685 17.16 299.301 18.888 299.301 20.552C299.301 23.24 300.197 25.928 300.197 28.68C300.197 29.32 300.133 29.96 300.005 30.6C299.685 32.072 299.301 33.224 298.725 34.12C299.557 33.224 300.901 31.496 301.925 29.96C303.013 28.232 304.229 26.12 305.509 23.368C305.637 23.112 305.829 23.048 306.085 23.048C306.149 23.048 306.277 23.048 306.405 23.112C306.597 23.24 306.725 23.432 306.725 23.688L306.661 23.944C305.509 26.376 304.229 28.744 302.885 30.792C301.925 32.264 300.965 33.544 299.877 34.76C297.957 36.872 295.717 37 293.797 37Z" fill="#31000E"/>
</g>
<defs>
<filter id="filter0_d_171_109" x="0.46875" y="0.135986" width="310.256" height="54.272" filterUnits="userSpaceOnUse" color-interpolation-filters="sRGB">
<feFlood flood-opacity="0" result="BackgroundImageFix"/>
<feColorMatrix in="SourceAlpha" type="matrix" values="0 0 0 0 0 0 0 0 0 0 0 0 0 0 0 0 0 0 127 0" result="hardAlpha"/>
<feOffset dy="4"/>
<feGaussianBlur stdDeviation="2"/>
<feComposite in2="hardAlpha" operator="out"/>
<feColorMatrix type="matrix" values="0 0 0 0 0 0 0 0 0 0 0 0 0 0 0 0 0 0 0.1 0"/>
<feBlend mode="normal" in2="BackgroundImageFix" result="effect1_dropShadow_171_109"/>
<feBlend mode="normal" in="SourceGraphic" in2="effect1_dropShadow_171_109" result="shape"/>
</filter>
</defs>
</svg>
