<svg width="407" height="57" viewBox="0 0 407 57" fill="none" xmlns="http://www.w3.org/2000/svg">
<g filter="url(#filter0_d_171_110)">
<path d="M19.4135 40.136H18.7735C17.3015 40.136 15.5735 39.88 15.2535 38.472C15.1895 38.28 15.1895 38.024 15.1895 37.768C15.1895 35.784 16.2135 31.56 17.5575 26.696C19.9895 18.248 23.4455 7.944 24.4695 5.576C24.6615 5.064 25.3015 4.872 26.0695 4.872C27.6695 4.872 29.8455 5.832 29.8455 6.856L29.7815 7.112C27.8615 12.104 26.1335 17.544 24.4695 22.664L25.3015 22.792C27.6695 22.792 30.7415 20.232 33.1095 16.968C34.8375 14.6 36.5655 11.208 36.5655 8.328C36.5655 5.832 35.2215 3.72 31.3815 3.208C30.5495 3.08 29.6535 3.016 28.6935 3.016C20.6935 3.016 10.1335 6.984 8.4695 15.112C8.4055 15.496 8.1495 15.688 7.8295 15.688L7.3175 15.56C5.8455 14.92 4.4375 11.848 4.4375 9.48C4.4375 8.456 4.6935 7.496 5.3335 6.984C11.2215 1.928 18.3895 0.135998 25.8775 0.135998H26.6455C35.1575 0.199997 41.3015 3.656 41.3015 10.12C41.3015 12.04 40.7255 14.28 39.5095 16.776C37.1415 21.64 32.5335 25.736 27.4775 26.184H26.9015C25.6215 26.184 24.7895 25.8 23.7655 24.968C22.2935 29.576 20.0535 37.192 20.0535 39.496C20.0535 39.816 19.7975 40.136 19.4135 40.136ZM49.7875 37H49.1475C47.6115 37 45.3715 36.936 44.6035 35.464C44.2835 34.824 44.0915 33.928 44.0915 32.904C44.0915 28.104 47.2915 20.168 48.4435 16.712C47.6115 16.776 46.4595 17.096 45.3715 17.096C45.0515 17.096 44.6675 17.096 44.3475 16.968C43.3875 19.464 42.8115 20.744 41.3395 23.944C41.2755 24.136 41.0195 24.328 40.8275 24.328C40.6995 24.328 40.6355 24.328 40.5075 24.264C40.3155 24.2 40.1235 24.072 40.1235 23.688C40.1235 23.624 40.1235 23.56 40.1875 23.432C41.7235 20.04 42.1715 19.016 43.2595 16.392C42.6835 15.944 42.4275 15.304 42.4275 14.6C42.4275 13.704 42.7475 12.744 43.0675 11.912C43.2595 11.4 43.9635 11.208 44.6035 11.208C45.3715 11.208 46.2035 11.464 46.2035 11.976L46.1395 12.168C45.8835 13.064 45.3715 14.536 45.1795 14.984C46.9075 14.92 48.3795 14.408 49.7235 14.408C51.3235 14.408 52.9235 15.624 53.1795 17.288L53.2435 17.736C53.2435 18.76 52.7315 20.104 52.0275 22.152C51.0035 25.032 48.9555 30.728 48.9555 33.928L49.0835 35.016C49.2115 35.592 49.4675 35.784 49.7875 35.784C50.6195 35.784 51.8355 34.312 52.1555 33.8C53.3715 32.008 54.9715 28.808 57.4035 23.432C57.5315 23.176 57.7235 23.048 57.9155 23.048C58.1075 23.048 58.2355 23.112 58.3635 23.176C58.4915 23.24 58.6195 23.432 58.6195 23.688C58.6195 23.752 58.6195 23.816 58.5555 23.944C56.1235 29.384 54.5235 32.648 53.2435 34.504C51.8355 36.552 50.9395 37 49.7875 37ZM62.239 35.016C64.735 35.016 67.231 28.808 67.935 26.824C66.911 26.056 66.527 24.904 66.527 23.816C66.527 21.96 67.679 20.104 68.895 19.784C68.703 18.952 68.319 18.312 67.487 18.312H67.167C64.095 18.824 60.703 27.528 60.703 32.136C60.703 33.736 61.087 34.888 62.047 35.016H62.239ZM61.791 37C57.759 37 56.095 33.736 56.095 29.64C56.095 23.048 60.511 14.408 66.463 14.408C66.975 14.408 67.487 14.472 68.063 14.6C71.135 15.368 72.031 18.248 72.031 21.256C72.031 23.112 71.647 25.096 71.199 26.568C73.311 26.568 75.615 25.48 76.703 23.368C76.831 23.112 77.023 23.048 77.215 23.048C77.343 23.048 77.471 23.112 77.599 23.176C77.791 23.24 77.855 23.432 77.855 23.624C77.855 23.752 77.855 23.88 77.791 24.008C76.511 26.44 73.823 27.848 71.263 27.848H70.751C69.343 31.88 66.207 37 61.791 37ZM91.0235 37H90.1275C88.5915 37 87.1195 36.808 86.4795 35.464C86.1595 34.76 86.0315 33.864 86.0315 32.776C86.0315 32.008 86.0955 31.112 86.2235 30.216C84.6235 32.968 82.3835 35.784 79.6955 35.784H79.6315C76.5595 35.72 75.2795 33.16 75.2795 29.832C75.2795 23.496 79.8875 14.472 86.2235 14.472H86.2875C87.8235 14.472 89.1675 14.92 89.9355 16.008C91.4715 11.528 93.0075 7.688 93.6475 6.152C93.9035 5.64 94.5435 5.448 95.3755 5.448C97.1035 5.448 99.3435 6.344 99.3435 7.24V7.432C98.6395 9.544 91.5995 27.208 90.8955 33.8L90.8315 35.208C90.8315 35.528 90.8955 35.72 90.9595 35.72C91.4715 35.72 92.2395 35.016 92.3675 34.888C94.5435 32.648 97.4875 26.696 98.9595 23.432C99.0875 23.112 99.2795 23.048 99.5355 23.048L99.8555 23.112C100.112 23.24 100.176 23.368 100.176 23.624C100.176 23.752 100.176 23.816 100.112 23.944C98.5115 27.464 95.7595 33.224 93.1995 35.784C92.4955 36.488 91.7275 37 91.0235 37ZM81.2955 32.2C83.2795 32.136 86.8635 25.544 87.5035 23.88C87.7595 23.24 88.3355 21.384 88.3355 19.912C88.3355 18.824 88.0155 17.992 87.0555 17.992H86.9915C83.9835 17.992 80.3355 26.696 80.3355 30.472C80.3355 31.496 80.5915 32.2 81.2955 32.2ZM113.274 37H112.442C110.842 37 109.178 36.808 108.474 35.464C108.09 34.824 107.962 33.928 107.962 32.84C107.962 32.072 108.026 31.24 108.154 30.344C107.77 31.176 107.258 32.072 106.682 32.904C105.338 35.08 103.738 36.936 102.266 37H101.434C99.8335 37 98.1695 36.808 97.4655 35.464C97.0815 34.824 96.9535 33.928 96.9535 32.84C96.9535 31.496 97.2095 29.768 97.5935 28.04C98.5535 23.56 100.858 17.224 101.818 15.176C102.074 14.664 102.65 14.408 103.418 14.408C104.954 14.408 106.938 15.368 106.938 16.328L106.874 16.584C106.042 18.632 101.882 29.64 101.754 34.248C101.754 35.144 101.818 35.72 102.138 35.72C102.842 35.72 104.058 34.824 105.722 32.136C107.066 30.024 108.538 26.824 110.266 22.152C111.162 19.272 112.186 16.584 112.826 15.176C113.018 14.664 113.658 14.408 114.426 14.408C115.962 14.408 117.946 15.304 117.946 16.328L117.882 16.584C117.05 18.632 112.89 29.64 112.762 34.248C112.762 35.144 112.826 35.72 113.21 35.72C114.042 35.656 115.194 34.312 116.41 32.456C118.202 29.704 120.058 25.8 121.146 23.432C121.274 23.112 121.53 23.048 121.722 23.048C121.786 23.048 121.914 23.048 122.042 23.112C122.234 23.24 122.362 23.432 122.362 23.624C122.362 23.752 122.362 23.816 122.298 23.944C121.082 26.568 119.226 30.536 117.306 33.416C115.898 35.464 114.49 36.936 113.274 37ZM124.455 37H123.495C121.959 37 120.486 36.808 119.91 35.464C119.59 34.76 119.398 33.736 119.398 32.584C119.398 27.592 122.023 19.272 124.391 12.872C123.111 12.808 121.895 12.808 120.87 12.808C120.486 12.744 120.23 12.424 120.23 12.168C120.23 11.848 120.486 11.528 120.87 11.528L124.839 11.592C125.671 9.416 126.439 7.56 127.079 6.152C127.271 5.576 127.911 5.384 128.679 5.384C130.343 5.384 132.647 6.408 132.647 7.368L132.583 7.56C132.007 8.84 131.431 10.248 130.855 11.784L134.055 11.848C134.439 11.848 134.695 12.168 134.695 12.488C134.695 12.808 134.439 13.128 133.991 13.128C132.903 13.064 131.687 13.064 130.343 13.064C128.359 18.952 126.183 25.544 124.903 30.984C124.775 31.368 124.199 33.992 124.199 35.144C124.199 35.592 124.263 35.72 124.455 35.72C125.159 35.72 126.375 34.184 126.823 33.608C128.807 30.92 131.111 26.184 132.391 23.432C132.519 23.112 132.711 23.048 132.967 23.048C133.031 23.048 133.159 23.048 133.287 23.112C133.479 23.24 133.607 23.432 133.607 23.688C133.607 23.688 133.607 23.816 133.543 23.944C132.199 27.016 129.831 31.752 127.655 34.632C126.887 35.528 125.671 36.936 124.455 37ZM137.241 35.08C139.737 35.08 142.233 28.808 142.873 26.824C141.849 26.056 141.465 24.904 141.465 23.816C141.465 21.96 142.617 20.168 143.833 19.784C143.641 19.016 143.321 18.376 142.489 18.376H142.105C139.033 18.824 135.705 27.528 135.705 32.2C135.705 33.8 136.089 34.952 137.049 35.08H137.241ZM154.969 37.064H154.393C150.617 37.064 148.825 34.568 148.825 31.816C148.825 30.344 149.337 28.808 150.297 27.528C150.617 27.08 151.128 26.888 151.641 26.888C153.113 26.888 154.905 28.232 154.905 29.064C154.905 29.256 154.841 29.384 154.713 29.512C153.753 30.344 152.857 32.648 152.857 34.056C152.857 34.504 152.921 34.824 153.177 35.016C153.305 35.08 153.433 35.144 153.561 35.144C153.945 35.144 154.393 34.824 154.713 34.376C155.609 33.224 155.865 31.624 155.865 29.832C155.865 26.76 155.097 23.176 155.097 20.36C155.097 19.912 155.097 19.464 155.161 19.016C153.305 22.408 150.553 27.848 146.137 27.848H145.753C144.281 31.88 141.209 37.064 136.793 37.064C132.761 37.064 131.096 33.8 131.096 29.704C131.096 23.048 135.513 14.408 141.465 14.408C141.977 14.408 142.489 14.472 143.065 14.6C146.073 15.432 146.969 18.248 146.969 21.192C146.969 23.112 146.585 25.096 146.137 26.632C149.785 26.632 152.665 21.064 154.073 18.312C155.097 16.264 156.185 14.408 156.761 14.408H161.497C161.881 14.408 162.137 14.728 162.137 15.048C162.137 15.176 162.137 15.304 162.009 15.432C160.857 17.16 160.473 18.888 160.473 20.616C160.473 23.304 161.369 25.992 161.369 28.744C161.369 29.384 161.305 30.024 161.177 30.664C160.857 32.072 160.473 33.224 159.897 34.12C160.729 33.288 162.073 31.496 163.097 29.96C164.185 28.296 165.401 26.12 166.681 23.432C166.809 23.176 167.001 23.048 167.257 23.048C167.576 23.048 167.897 23.304 167.897 23.688C167.897 23.752 167.897 23.88 167.833 24.008C166.617 26.44 165.401 28.744 164.057 30.856C163.097 32.264 162.137 33.608 161.049 34.76C159.129 36.936 156.889 37.064 154.969 37.064ZM195.774 37H194.878C193.342 37 191.87 36.808 191.23 35.464C190.91 34.76 190.782 33.864 190.782 32.776C190.782 32.008 190.845 31.112 190.974 30.216C189.374 32.968 187.134 35.784 184.446 35.784H184.382C181.309 35.72 180.029 33.16 180.029 29.832C180.029 23.496 184.638 14.472 190.974 14.472H191.038C192.574 14.472 193.918 14.92 194.686 16.008C196.222 11.528 197.758 7.688 198.398 6.152C198.654 5.64 199.294 5.448 200.126 5.448C201.854 5.448 204.094 6.344 204.094 7.24V7.432C203.39 9.544 196.35 27.208 195.646 33.8L195.582 35.208C195.582 35.528 195.646 35.72 195.71 35.72C196.222 35.72 196.99 35.016 197.118 34.888C199.294 32.648 202.238 26.696 203.71 23.432C203.838 23.112 204.03 23.048 204.286 23.048L204.606 23.112C204.862 23.24 204.926 23.368 204.926 23.624C204.926 23.752 204.926 23.816 204.862 23.944C203.262 27.464 200.51 33.224 197.95 35.784C197.246 36.488 196.478 37 195.774 37ZM186.046 32.2C188.03 32.136 191.614 25.544 192.254 23.88C192.51 23.24 193.086 21.384 193.086 19.912C193.086 18.824 192.766 17.992 191.806 17.992H191.742C188.734 17.992 185.086 26.696 185.086 30.472C185.086 31.496 185.342 32.2 186.046 32.2ZM209.192 26.184C211.944 26.184 215.528 20.552 215.528 18.504C215.528 18.184 215.464 17.928 215.272 17.8C215.08 17.736 214.952 17.672 214.76 17.672C213.288 17.672 211.176 20.424 210.536 21.32C209.576 22.792 208.744 24.456 208.232 25.928C208.552 26.12 208.808 26.184 209.192 26.184ZM210.024 37.128H209.64C204.2 36.936 202.215 33.672 202.215 29.64C202.215 27.72 202.663 25.608 203.431 23.56C205.032 19.4 208.424 14.472 213.16 14.472H213.352C215.784 14.536 217.768 15.816 217.768 18.248V18.376C217.64 22.92 212.968 28.488 209.512 28.488C208.872 28.488 208.232 28.296 207.72 27.848C207.528 28.616 207.464 29.448 207.464 30.344C207.464 32.712 208.232 35.208 210.28 35.656L210.984 35.72C213.095 35.72 214.888 33.864 216.232 32.52C216.424 32.328 216.616 32.264 216.808 32.264C217 32.264 217.128 32.328 217.256 32.456L217.384 32.84C217.384 33.032 217.32 33.224 217.192 33.288C215.336 35.784 213.032 37.128 210.024 37.128ZM242.292 48.968H242.036C240.628 48.968 238.772 48.264 238.196 46.728L238.132 46.088C238.132 43.464 239.604 36.744 240.884 31.88C239.476 33.928 237.684 35.784 235.572 35.784H235.444C232.372 35.72 231.092 33.16 231.092 29.832C231.092 23.496 235.7 14.472 242.036 14.472H242.1C243.636 14.472 244.98 14.984 245.748 16.136C245.876 15.752 246.132 15.112 246.324 14.92C246.772 14.6 247.348 14.408 247.924 14.408C249.588 14.408 251.508 15.56 251.508 16.392L251.444 16.648C250.868 17.992 247.924 27.272 246.388 32.52C250.804 31.496 253.236 27.848 255.156 23.432C255.284 23.176 255.54 23.048 255.796 23.048L256.052 23.112C256.244 23.24 256.436 23.432 256.436 23.688L256.372 23.944C254.388 28.36 251.892 32.072 247.668 33.48C248.692 34.248 249.076 35.464 249.076 36.872C249.076 37.832 248.948 38.792 248.692 39.752C248.052 42.76 246.068 48.776 242.292 48.968ZM242.932 47.56C245.428 46.664 246.964 41.8 247.476 39.496C247.668 38.728 247.86 37.832 247.86 36.936C247.86 35.656 247.412 34.504 245.94 34.056C244.66 38.664 243.124 44.744 242.932 47.56ZM237.108 32.136C237.748 32.136 238.644 31.304 239.604 30.088C240.884 28.36 242.292 25.928 243.188 23.752C243.444 23.112 244.084 21.256 244.084 19.784C244.084 18.76 243.764 17.992 242.804 17.992C239.796 18.056 236.148 26.696 236.148 30.472C236.148 31.496 236.404 32.136 237.044 32.136H237.108ZM269.586 37H268.754C267.154 37 265.49 36.808 264.786 35.464C264.402 34.824 264.274 33.928 264.274 32.84C264.274 32.072 264.338 31.24 264.466 30.344C264.082 31.176 263.57 32.072 262.994 32.904C261.65 35.08 260.05 36.936 258.578 37H257.746C256.146 37 254.482 36.808 253.778 35.464C253.394 34.824 253.266 33.928 253.266 32.84C253.266 31.496 253.522 29.768 253.906 28.04C254.866 23.56 257.17 17.224 258.13 15.176C258.386 14.664 258.962 14.408 259.73 14.408C261.266 14.408 263.25 15.368 263.25 16.328L263.186 16.584C262.354 18.632 258.194 29.64 258.066 34.248C258.066 35.144 258.13 35.72 258.45 35.72C259.154 35.72 260.37 34.824 262.034 32.136C263.378 30.024 264.85 26.824 266.578 22.152C267.474 19.272 268.498 16.584 269.138 15.176C269.33 14.664 269.97 14.408 270.738 14.408C272.274 14.408 274.258 15.304 274.258 16.328L274.194 16.584C273.362 18.632 269.202 29.64 269.074 34.248C269.074 35.144 269.138 35.72 269.522 35.72C270.354 35.656 271.506 34.312 272.722 32.456C274.514 29.704 276.37 25.8 277.458 23.432C277.586 23.112 277.842 23.048 278.034 23.048C278.098 23.048 278.226 23.048 278.354 23.112C278.546 23.24 278.674 23.432 278.674 23.624C278.674 23.752 278.674 23.816 278.61 23.944C277.394 26.568 275.538 30.536 273.618 33.416C272.21 35.464 270.802 36.936 269.586 37ZM282.047 32.2C283.967 32.136 287.423 25.416 288.063 23.816C288.383 22.984 288.959 21.256 288.959 19.848C288.959 18.952 288.703 18.248 287.999 18.056L287.615 17.992C284.735 17.992 281.087 26.696 281.087 30.472C281.087 31.56 281.407 32.2 282.047 32.2ZM291.583 37H290.815C289.215 37 287.551 36.808 286.847 35.464C286.463 34.824 286.335 33.864 286.335 32.776C286.335 32.136 286.399 31.496 286.463 30.728C284.991 33.288 282.943 35.784 280.447 35.784H280.319C277.247 35.72 275.967 33.16 275.967 29.832C275.967 23.496 280.575 14.472 286.911 14.472H286.975C288.639 14.472 289.983 15.048 290.751 16.264L291.199 15.112C291.519 14.6 292.095 14.408 292.863 14.408C294.335 14.408 296.319 15.304 296.319 16.328L296.255 16.584C295.423 18.632 291.263 29.64 291.135 34.248C291.135 35.144 291.199 35.72 291.519 35.72C293.631 35.656 297.663 27.464 299.519 23.432C299.647 23.112 299.839 23.048 300.095 23.048L300.415 23.112C300.607 23.176 300.735 23.368 300.735 23.624C300.735 23.752 300.735 23.752 300.671 23.944C298.559 28.488 294.591 36.872 291.583 37ZM302.764 37H301.868C300.332 37 298.86 36.808 298.22 35.464C297.9 34.76 297.772 33.8 297.772 32.712C297.772 24.904 304.364 8.52 305.388 6.152C305.708 5.64 306.348 5.384 307.116 5.384C308.78 5.384 310.892 6.472 310.892 7.368L310.828 7.56C310.06 9.608 303.34 27.208 302.636 33.8L302.572 35.08C302.572 35.464 302.572 35.72 302.7 35.72H302.828C303.66 35.72 304.876 34.056 305.26 33.544C307.244 30.792 309.42 26.12 310.7 23.432C310.828 23.112 311.02 23.048 311.276 23.048C311.34 23.048 311.468 23.048 311.596 23.112C311.788 23.24 311.916 23.432 311.916 23.624C311.916 23.752 311.916 23.816 311.852 23.944C310.508 26.888 308.396 31.368 306.22 34.248C305.516 35.272 304.108 36.936 302.764 37ZM314.144 37H313.312C311.712 37 310.047 36.808 309.343 35.464C308.959 34.824 308.767 33.8 308.767 32.648C308.767 31.304 309.023 29.704 309.343 28.04C310.367 23.24 312.48 17.544 313.44 15.176C313.696 14.664 314.336 14.408 315.04 14.408C316.576 14.408 318.56 15.368 318.56 16.328L318.496 16.584C317.984 17.992 313.504 30.728 313.504 34.632C313.504 35.336 313.632 35.72 314.016 35.72C316.128 35.656 320.095 27.464 321.888 23.432C322.016 23.112 322.208 23.048 322.464 23.048L322.784 23.112C322.976 23.176 323.104 23.368 323.104 23.624C323.104 23.752 323.104 23.816 323.04 23.944C320.992 28.488 317.088 36.872 314.144 37ZM318.816 12.04C317.536 12.04 315.68 11.272 315.68 10.44C315.68 9.416 316.448 6.92 316.832 6.088C317.024 5.512 317.6 5.32 318.304 5.32C319.776 5.32 321.696 6.344 321.696 7.304C321.696 7.432 321.696 7.624 321.568 7.752C321.248 8.328 320.352 10.632 319.904 11.592C319.776 11.912 319.328 12.04 318.816 12.04ZM336.211 37H335.315C333.779 37 332.307 36.808 331.667 35.464C331.347 34.76 331.219 33.864 331.219 32.776C331.219 32.008 331.283 31.112 331.411 30.216C329.811 32.968 327.571 35.784 324.883 35.784H324.819C321.747 35.72 320.467 33.16 320.467 29.832C320.467 23.496 325.075 14.472 331.411 14.472H331.475C333.011 14.472 334.355 14.92 335.123 16.008C336.659 11.528 338.195 7.688 338.835 6.152C339.091 5.64 339.731 5.448 340.563 5.448C342.291 5.448 344.531 6.344 344.531 7.24V7.432C343.827 9.544 336.787 27.208 336.083 33.8L336.019 35.208C336.019 35.528 336.083 35.72 336.147 35.72C336.659 35.72 337.427 35.016 337.555 34.888C339.731 32.648 342.675 26.696 344.147 23.432C344.275 23.112 344.467 23.048 344.723 23.048L345.043 23.112C345.299 23.24 345.363 23.368 345.363 23.624C345.363 23.752 345.363 23.816 345.299 23.944C343.699 27.464 340.947 33.224 338.387 35.784C337.683 36.488 336.915 37 336.211 37ZM326.483 32.2C328.467 32.136 332.051 25.544 332.691 23.88C332.947 23.24 333.523 21.384 333.523 19.912C333.523 18.824 333.203 17.992 332.243 17.992H332.179C329.171 17.992 325.523 26.696 325.523 30.472C325.523 31.496 325.779 32.2 326.483 32.2ZM348.797 32.2C350.717 32.136 354.173 25.416 354.813 23.816C355.133 22.984 355.709 21.256 355.709 19.848C355.709 18.952 355.453 18.248 354.749 18.056L354.365 17.992C351.485 17.992 347.837 26.696 347.837 30.472C347.837 31.56 348.157 32.2 348.797 32.2ZM358.333 37H357.565C355.965 37 354.301 36.808 353.597 35.464C353.213 34.824 353.085 33.864 353.085 32.776C353.085 32.136 353.149 31.496 353.213 30.728C351.741 33.288 349.693 35.784 347.197 35.784H347.069C343.997 35.72 342.717 33.16 342.717 29.832C342.717 23.496 347.325 14.472 353.661 14.472H353.725C355.389 14.472 356.733 15.048 357.501 16.264L357.949 15.112C358.269 14.6 358.845 14.408 359.613 14.408C361.085 14.408 363.069 15.304 363.069 16.328L363.005 16.584C362.173 18.632 358.013 29.64 357.885 34.248C357.885 35.144 357.949 35.72 358.269 35.72C360.381 35.656 364.413 27.464 366.269 23.432C366.397 23.112 366.589 23.048 366.845 23.048L367.165 23.112C367.357 23.176 367.485 23.368 367.485 23.624C367.485 23.752 367.485 23.752 367.421 23.944C365.309 28.488 361.341 36.872 358.333 37ZM380.586 37H379.69C378.154 37 376.682 36.808 376.042 35.464C375.722 34.76 375.594 33.864 375.594 32.776C375.594 32.008 375.658 31.112 375.786 30.216C374.186 32.968 371.946 35.784 369.258 35.784H369.194C366.122 35.72 364.842 33.16 364.842 29.832C364.842 23.496 369.45 14.472 375.786 14.472H375.85C377.386 14.472 378.73 14.92 379.498 16.008C381.034 11.528 382.57 7.688 383.21 6.152C383.466 5.64 384.106 5.448 384.938 5.448C386.666 5.448 388.906 6.344 388.906 7.24V7.432C388.202 9.544 381.162 27.208 380.458 33.8L380.394 35.208C380.394 35.528 380.458 35.72 380.522 35.72C381.034 35.72 381.802 35.016 381.93 34.888C384.106 32.648 387.05 26.696 388.522 23.432C388.65 23.112 388.842 23.048 389.098 23.048L389.418 23.112C389.674 23.24 389.738 23.368 389.738 23.624C389.738 23.752 389.738 23.816 389.674 23.944C388.074 27.464 385.322 33.224 382.762 35.784C382.058 36.488 381.29 37 380.586 37ZM370.858 32.2C372.842 32.136 376.426 25.544 377.066 23.88C377.322 23.24 377.898 21.384 377.898 19.912C377.898 18.824 377.578 17.992 376.618 17.992H376.554C373.546 17.992 369.898 26.696 369.898 30.472C369.898 31.496 370.154 32.2 370.858 32.2ZM394.004 26.184C396.756 26.184 400.34 20.552 400.34 18.504C400.34 18.184 400.276 17.928 400.084 17.8C399.892 17.736 399.764 17.672 399.572 17.672C398.1 17.672 395.988 20.424 395.348 21.32C394.388 22.792 393.556 24.456 393.044 25.928C393.364 26.12 393.62 26.184 394.004 26.184ZM394.836 37.128H394.452C389.012 36.936 387.028 33.672 387.028 29.64C387.028 27.72 387.476 25.608 388.244 23.56C389.844 19.4 393.236 14.472 397.972 14.472H398.164C400.596 14.536 402.58 15.816 402.58 18.248V18.376C402.452 22.92 397.78 28.488 394.324 28.488C393.684 28.488 393.044 28.296 392.532 27.848C392.34 28.616 392.276 29.448 392.276 30.344C392.276 32.712 393.044 35.208 395.092 35.656L395.796 35.72C397.908 35.72 399.7 33.864 401.044 32.52C401.236 32.328 401.428 32.264 401.62 32.264C401.812 32.264 401.94 32.328 402.068 32.456L402.196 32.84C402.196 33.032 402.132 33.224 402.004 33.288C400.148 35.784 397.844 37.128 394.836 37.128Z" fill="#31000E"/>
</g>
<defs>
<filter id="filter0_d_171_110" x="0.4375" y="0.135986" width="406.142" height="56.832" filterUnits="userSpaceOnUse" color-interpolation-filters="sRGB">
<feFlood flood-opacity="0" result="BackgroundImageFix"/>
<feColorMatrix in="SourceAlpha" type="matrix" values="0 0 0 0 0 0 0 0 0 0 0 0 0 0 0 0 0 0 127 0" result="hardAlpha"/>
<feOffset dy="4"/>
<feGaussianBlur stdDeviation="2"/>
<feComposite in2="hardAlpha" operator="out"/>
<feColorMatrix type="matrix" values="0 0 0 0 0 0 0 0 0 0 0 0 0 0 0 0 0 0 0.1 0"/>
<feBlend mode="normal" in2="BackgroundImageFix" result="effect1_dropShadow_171_110"/>
<feBlend mode="normal" in="SourceGraphic" in2="effect1_dropShadow_171_110" result="shape"/>
</filter>
</defs>
</svg>
