<svg width="183" height="31" viewBox="0 0 183 31" fill="none" xmlns="http://www.w3.org/2000/svg">
<path d="M21.312 30.4H20.832C16.272 30.4 14.928 23.632 14.208 19.744C13.152 23.2 11.712 28.288 11.712 29.872C11.712 30.112 11.52 30.352 11.232 30.352H10.752C9.6 30.352 8.352 30.16 8.112 29.104C8.064 28.96 8.064 28.768 8.064 28.576C8.064 27.088 8.832 23.92 9.84 20.272C11.616 13.936 14.256 6.208 15.024 4.432C15.168 4.048 15.648 3.904 16.272 3.904C17.424 3.904 19.008 4.528 19.008 5.392L18.96 5.68C18.48 6.88 16.704 11.92 15.024 17.248C15.312 17.344 15.6 17.392 15.936 17.392C19.104 17.392 22.56 12.928 23.76 8.512C23.952 7.84 24.048 7.168 24.048 6.496C24.048 4.624 23.088 3.04 20.208 2.656C19.488 2.56 18.72 2.512 18 2.512C14.832 2.512 11.616 3.328 8.976 4.72C5.904 6.304 3.6 8.704 2.976 11.584C2.928 11.872 2.784 12.016 2.496 12.016C2.4 12.016 2.256 12.016 2.112 11.92C1.584 11.68 0.96 10.96 0.432 9.568C0.192 8.944 0 8.08 0 7.312C0 6.592 0.192 5.92 0.672 5.488C5.088 1.696 10.464 0.351998 16.08 0.351998H16.656C22.992 0.399998 27.648 2.992 27.648 7.84C27.648 9.328 27.216 10.96 26.304 12.832C24.528 16.432 21.12 19.504 17.376 19.888C18 22.336 19.056 24.448 20.352 25.888C21.552 27.232 22.992 28.048 24.384 28.048L24.96 28C25.2 28 25.392 28.24 25.392 28.48C25.392 28.624 25.296 28.816 25.104 28.912C24.144 29.488 22.464 30.256 21.312 30.4ZM31.2229 19.84C33.2869 19.84 36.0229 15.616 36.0229 14.08C36.0229 13.792 35.9269 13.648 35.7829 13.552C35.6389 13.456 35.5429 13.456 35.3989 13.456C34.2949 13.456 32.7589 15.472 32.2789 16.144C31.5589 17.248 30.9349 18.496 30.5509 19.648C30.7429 19.792 30.9829 19.84 31.2229 19.84ZM32.1349 28H31.6069C27.5269 27.856 26.0389 25.456 26.0389 22.432C26.0389 20.944 26.3749 19.36 26.9509 17.824C28.1029 14.752 30.6469 11.056 34.1509 11.056H34.3429C36.1669 11.104 37.6549 12.016 37.6549 13.84V13.936C37.5589 17.344 34.0549 21.52 31.4629 21.52C30.9829 21.52 30.5029 21.376 30.1189 21.04C30.0229 21.616 29.9269 22.24 29.9269 22.864C29.9269 24.688 30.4549 26.56 32.0389 26.896L32.5669 26.944C32.8549 26.944 33.2389 26.896 33.6229 26.8C35.3029 26.176 37.7029 24.112 40.7269 17.824C40.8229 17.632 40.9669 17.536 41.1109 17.536C41.2069 17.536 41.3029 17.584 41.3989 17.632C41.5429 17.68 41.6389 17.824 41.6389 18.016C41.6389 18.016 41.6389 18.112 41.5909 18.208C38.3749 24.928 35.7349 27.088 33.8149 27.76C33.1909 27.952 32.6149 28 32.1349 28ZM51.4864 28H50.8144C49.6624 28 48.5584 27.856 48.0784 26.848C47.8384 26.32 47.7424 25.648 47.7424 24.832C47.7424 24.256 47.7904 23.584 47.8864 22.912C46.6864 24.976 45.0064 27.088 42.9904 27.088H42.9424C40.6384 27.04 39.6784 25.12 39.6784 22.624C39.6784 17.872 43.1344 11.104 47.8864 11.104H47.9344C49.0864 11.104 50.0944 11.44 50.6704 12.256C51.8224 8.896 52.9744 6.016 53.4544 4.864C53.6464 4.48 54.1264 4.336 54.7504 4.336C56.0464 4.336 57.7264 5.008 57.7264 5.68V5.824C57.1984 7.408 51.9184 20.656 51.3904 25.6L51.3424 26.656C51.3424 26.896 51.3904 27.04 51.4384 27.04C51.8224 27.04 52.3984 26.512 52.4944 26.416C54.1264 24.736 56.3344 20.272 57.4384 17.824C57.5344 17.584 57.6784 17.536 57.8704 17.536L58.1104 17.584C58.3024 17.68 58.3504 17.776 58.3504 17.968C58.3504 18.064 58.3504 18.112 58.3024 18.208C57.1024 20.848 55.0384 25.168 53.1184 27.088C52.5904 27.616 52.0144 28 51.4864 28ZM44.1904 24.4C45.6784 24.352 48.3664 19.408 48.8464 18.16C49.0384 17.68 49.4704 16.288 49.4704 15.184C49.4704 14.368 49.2304 13.744 48.5104 13.744H48.4624C46.2064 13.744 43.4704 20.272 43.4704 23.104C43.4704 23.872 43.6624 24.4 44.1904 24.4ZM61.5979 19.84C63.6619 19.84 66.3979 15.616 66.3979 14.08C66.3979 13.792 66.3019 13.648 66.1579 13.552C66.0139 13.456 65.9179 13.456 65.7739 13.456C64.6699 13.456 63.1339 15.472 62.6539 16.144C61.9339 17.248 61.3099 18.496 60.9259 19.648C61.1179 19.792 61.3579 19.84 61.5979 19.84ZM62.5099 28H61.9819C57.9019 27.856 56.4139 25.456 56.4139 22.432C56.4139 20.944 56.7499 19.36 57.3259 17.824C58.4779 14.752 61.0219 11.056 64.5259 11.056H64.7179C66.5419 11.104 68.0299 12.016 68.0299 13.84V13.936C67.9339 17.344 64.4299 21.52 61.8379 21.52C61.3579 21.52 60.8779 21.376 60.4939 21.04C60.3979 21.616 60.3019 22.24 60.3019 22.864C60.3019 24.688 60.8299 26.56 62.4139 26.896L62.9419 26.944C63.2299 26.944 63.6139 26.896 63.9979 26.8C65.6779 26.176 68.0779 24.112 71.1019 17.824C71.1979 17.632 71.3419 17.536 71.4859 17.536C71.5819 17.536 71.6779 17.584 71.7739 17.632C71.9179 17.68 72.0139 17.824 72.0139 18.016C72.0139 18.016 72.0139 18.112 71.9659 18.208C68.7499 24.928 66.1099 27.088 64.1899 27.76C63.5659 27.952 62.9899 28 62.5099 28ZM73.0774 28.096C70.2454 28.096 68.9014 26.224 68.9014 24.16C68.9014 23.056 69.2854 21.904 70.0054 20.944C70.2454 20.608 70.6294 20.464 71.0134 20.464C72.1174 20.464 73.5094 21.472 73.5094 22.096C73.5094 22.24 73.4614 22.336 73.3174 22.432C72.5974 23.104 71.9254 24.832 71.9254 25.84C71.9254 26.176 72.0214 26.464 72.1654 26.56C72.2614 26.608 72.3574 26.656 72.4534 26.656C72.7414 26.656 73.0774 26.416 73.3174 26.128C73.9894 25.264 74.1814 24.064 74.1814 22.72C74.1814 20.416 73.6054 17.728 73.6054 15.616C73.6054 15.28 73.6054 14.944 73.6534 14.608L71.9254 18.304C71.8294 18.496 71.6854 18.592 71.4934 18.592C71.2534 18.592 71.0134 18.352 71.0134 18.112C71.0134 18.064 71.0134 17.968 71.0614 17.872C71.4934 17.008 73.9894 11.104 74.8534 11.104H78.4534C78.7414 11.104 78.9334 11.344 78.9334 11.584C78.9334 11.68 78.8854 11.776 78.8374 11.872C77.9734 13.168 77.7334 14.464 77.7334 15.76C77.7334 17.776 78.3094 19.792 78.3094 21.856C78.3094 25.024 76.5814 28.096 73.0774 28.096ZM95.664 30.352C93.264 30.352 90.528 28.48 90.048 26.032L90 25.456C90 23.728 91.248 20.992 92.784 20.128C92.88 20.08 92.928 20.08 93.024 20.08C93.264 20.08 93.504 20.272 93.504 20.512C93.504 20.608 93.456 20.704 93.408 20.8C92.496 22.144 91.872 23.68 91.872 24.976V25.36C91.968 26.704 93.024 27.952 94.32 27.952C94.56 27.952 94.752 27.904 94.992 27.856C96.816 27.376 98.496 25.6 99.696 23.632C100.32 22.672 101.568 20.32 101.568 18.928L101.52 18.496C101.52 18.4 101.376 18.4 101.184 18.4C100.128 18.4 96.768 19.36 95.712 19.408H95.616C93.552 19.408 91.392 17.776 91.392 15.328C91.392 11.008 97.68 0.303999 103.536 0.303999C107.904 0.303999 109.344 3.28 109.344 6.592C109.344 8.032 109.056 9.52 108.624 10.912C107.664 13.84 106.032 14.608 104.448 14.608C103.536 14.608 102.624 14.32 101.856 14.128C101.616 14.08 101.472 13.888 101.472 13.648C101.472 13.456 101.616 13.216 101.904 13.216C103.296 13.12 104.304 10.768 104.688 9.616C105.12 8.224 105.408 6.496 105.408 5.008L105.36 3.952C105.264 3.136 105.024 2.368 104.544 2.368H104.4C102.048 2.944 96 12.112 96 16.288L96.096 17.008C96.192 17.344 96.528 17.488 97.008 17.488C98.352 17.488 100.848 16.432 101.76 16.432H101.808C104.736 16.432 105.312 19.504 105.312 19.504C105.312 23.584 100.752 30.352 95.664 30.352ZM112.07 26.512C113.942 26.512 115.814 21.856 116.342 20.368C115.574 19.792 115.286 18.928 115.286 18.112C115.286 16.72 116.15 15.328 117.062 15.088C116.918 14.464 116.63 13.984 116.006 13.984H115.766C113.462 14.368 110.918 20.896 110.918 24.352C110.918 25.552 111.206 26.416 111.926 26.512H112.07ZM111.734 28C108.71 28 107.462 25.552 107.462 22.48C107.462 17.536 110.774 11.056 115.238 11.056C115.622 11.056 116.006 11.104 116.438 11.2C118.742 11.776 119.414 13.936 119.414 16.192C119.414 17.584 119.126 19.072 118.79 20.176C120.374 20.176 122.102 19.36 122.918 17.776C123.014 17.584 123.158 17.536 123.302 17.536C123.398 17.536 123.494 17.584 123.59 17.632C123.734 17.68 123.782 17.824 123.782 17.968C123.782 18.064 123.782 18.16 123.734 18.256C122.774 20.08 120.758 21.136 118.838 21.136H118.454C117.398 24.16 115.046 28 111.734 28ZM127.994 28H127.466C123.386 27.856 121.898 25.456 121.898 22.432C121.898 20.944 122.234 19.36 122.81 17.824C124.01 14.704 126.554 11.056 130.058 11.056C130.394 11.056 130.778 11.104 131.114 11.152C133.034 11.536 133.754 12.928 133.754 14.32C133.754 15.232 133.418 16.192 132.89 16.816C132.506 17.248 132.074 17.488 131.594 17.488C131.306 17.488 130.97 17.392 130.682 17.2C130.538 17.104 130.49 16.96 130.49 16.768C130.49 16.72 130.49 16.624 130.538 16.576C130.73 16.24 131.69 14.608 131.69 13.84C131.69 13.6 131.594 13.456 131.402 13.408H131.258C129.914 13.408 127.178 16.768 126.218 20.368C125.978 21.088 125.834 22.048 125.834 23.008C125.834 24.688 126.314 26.368 127.706 26.848C127.946 26.896 128.186 26.944 128.426 26.944C128.762 26.944 129.098 26.896 129.482 26.8C131.21 26.176 133.61 24.112 136.634 17.824C136.73 17.584 136.874 17.536 137.018 17.536C137.162 17.536 137.258 17.584 137.258 17.584C137.402 17.68 137.498 17.824 137.498 18.016C137.498 18.016 137.498 18.112 137.45 18.208C134.282 24.88 131.642 27.04 129.722 27.712C129.05 27.952 128.474 28 127.994 28ZM139.233 28H138.609C137.409 28 136.161 27.856 135.633 26.848C135.345 26.368 135.201 25.6 135.201 24.736C135.201 23.728 135.393 22.528 135.633 21.28C136.401 17.68 137.985 13.408 138.705 11.632C138.897 11.248 139.377 11.056 139.905 11.056C141.057 11.056 142.545 11.776 142.545 12.496L142.497 12.688C142.113 13.744 138.753 23.296 138.753 26.224C138.753 26.752 138.849 27.04 139.137 27.04C140.721 26.992 143.697 20.848 145.041 17.824C145.137 17.584 145.281 17.536 145.473 17.536L145.713 17.584C145.857 17.632 145.953 17.776 145.953 17.968C145.953 18.064 145.953 18.112 145.905 18.208C144.369 21.616 141.441 27.904 139.233 28ZM142.737 9.28C141.777 9.28 140.385 8.704 140.385 8.08C140.385 7.312 140.961 5.44 141.249 4.816C141.393 4.384 141.825 4.24 142.353 4.24C143.457 4.24 144.897 5.008 144.897 5.728C144.897 5.824 144.897 5.968 144.801 6.064C144.561 6.496 143.889 8.224 143.553 8.944C143.457 9.184 143.121 9.28 142.737 9.28ZM148.535 24.4C149.975 24.352 152.567 19.312 153.047 18.112C153.287 17.488 153.719 16.192 153.719 15.136C153.719 14.464 153.527 13.936 152.999 13.792L152.711 13.744C150.551 13.744 147.815 20.272 147.815 23.104C147.815 23.92 148.055 24.4 148.535 24.4ZM155.687 28H155.111C153.911 28 152.663 27.856 152.135 26.848C151.847 26.368 151.751 25.648 151.751 24.832C151.751 24.352 151.799 23.872 151.847 23.296C150.743 25.216 149.207 27.088 147.335 27.088H147.239C144.935 27.04 143.975 25.12 143.975 22.624C143.975 17.872 147.431 11.104 152.183 11.104H152.231C153.479 11.104 154.487 11.536 155.063 12.448L155.399 11.584C155.639 11.2 156.071 11.056 156.647 11.056C157.751 11.056 159.239 11.728 159.239 12.496L159.191 12.688C158.567 14.224 155.447 22.48 155.351 25.936C155.351 26.608 155.399 27.04 155.639 27.04C157.223 26.992 160.247 20.848 161.639 17.824C161.735 17.584 161.879 17.536 162.071 17.536L162.311 17.584C162.455 17.632 162.551 17.776 162.551 17.968C162.551 18.064 162.551 18.064 162.503 18.208C160.919 21.616 157.943 27.904 155.687 28ZM164.217 28H163.593C162.393 28 161.145 27.856 160.617 26.848C160.329 26.368 160.185 25.6 160.185 24.736C160.185 23.728 160.377 22.528 160.617 21.28C161.385 17.68 162.969 13.408 163.689 11.632C163.881 11.248 164.361 11.056 164.889 11.056C166.041 11.056 167.529 11.776 167.529 12.496L167.481 12.688C167.097 13.744 163.737 23.296 163.737 26.224C163.737 26.752 163.833 27.04 164.121 27.04C165.705 26.992 168.681 20.848 170.025 17.824C170.121 17.584 170.265 17.536 170.457 17.536L170.697 17.584C170.841 17.632 170.937 17.776 170.937 17.968C170.937 18.064 170.937 18.112 170.889 18.208C169.353 21.616 166.425 27.904 164.217 28ZM167.721 9.28C166.761 9.28 165.369 8.704 165.369 8.08C165.369 7.312 165.945 5.44 166.233 4.816C166.377 4.384 166.809 4.24 167.337 4.24C168.441 4.24 169.881 5.008 169.881 5.728C169.881 5.824 169.881 5.968 169.785 6.064C169.545 6.496 168.873 8.224 168.537 8.944C168.441 9.184 168.105 9.28 167.721 9.28ZM172.512 28H172.08C169.248 28 167.904 26.176 167.904 24.112C167.904 23.008 168.288 21.856 169.008 20.848C169.248 20.512 169.632 20.368 170.016 20.368C171.12 20.368 172.512 21.376 172.512 22.048C172.512 22.144 172.464 22.288 172.32 22.384C171.552 23.008 170.88 24.688 170.88 25.696C170.88 26.08 170.976 26.32 171.168 26.464C171.264 26.56 171.36 26.56 171.456 26.56C171.744 26.56 172.08 26.32 172.32 26.032C172.992 25.168 173.184 23.968 173.184 22.624C173.184 20.32 172.608 17.632 172.608 15.52C172.608 15.184 172.608 14.848 172.656 14.512L170.928 18.256C170.832 18.4 170.64 18.496 170.496 18.496C170.4 18.496 170.352 18.496 170.256 18.448C170.16 18.4 170.016 18.352 170.016 18.112C170.016 18.016 170.016 17.872 170.064 17.776C170.448 16.912 172.944 11.056 173.856 11.056H177.408C177.696 11.056 177.888 11.248 177.888 11.488C177.888 11.584 177.888 11.728 177.792 11.824C176.928 13.12 176.64 14.416 176.64 15.664C176.64 17.68 177.312 19.696 177.312 21.76C177.312 22.24 177.264 22.72 177.168 23.2C176.928 24.304 176.64 25.168 176.208 25.84C176.832 25.168 177.84 23.872 178.608 22.72C179.424 21.424 180.336 19.84 181.296 17.776C181.392 17.584 181.536 17.536 181.728 17.536C181.776 17.536 181.872 17.536 181.968 17.584C182.112 17.68 182.208 17.824 182.208 18.016L182.16 18.208C181.296 20.032 180.336 21.808 179.328 23.344C178.608 24.448 177.888 25.408 177.072 26.32C175.632 27.904 173.952 28 172.512 28Z" fill="white"/>
</svg>
