<svg width="223" height="79" viewBox="0 0 223 79" fill="none" xmlns="http://www.w3.org/2000/svg">
<g filter="url(#filter0_d_84_16)">
<path d="M15.4686 60.704C10.6686 60.704 5.19663 56.96 4.23663 52.064L4.14062 50.912C4.14062 47.456 6.63663 41.984 9.70863 40.256C9.90063 40.16 9.99663 40.16 10.1886 40.16C10.6686 40.16 11.1486 40.544 11.1486 41.024C11.1486 41.216 11.0526 41.408 10.9566 41.6C9.13263 44.288 7.88463 47.36 7.88463 49.952V50.72C8.07663 53.408 10.1886 55.904 12.7806 55.904C13.2606 55.904 13.6446 55.808 14.1246 55.712C17.7726 54.752 21.1326 51.2 23.5326 47.264C24.7806 45.344 27.2766 40.64 27.2766 37.856L27.1806 36.992C27.1806 36.8 26.8926 36.8 26.5086 36.8C24.3966 36.8 17.6766 38.72 15.5646 38.816H15.3726C11.2446 38.816 6.92463 35.552 6.92463 30.656C6.92463 22.016 19.5006 0.607998 31.2126 0.607998C39.9486 0.607998 42.8286 6.56 42.8286 13.184C42.8286 16.064 42.2526 19.04 41.3886 21.824C39.4686 27.68 36.2046 29.216 33.0366 29.216C31.2126 29.216 29.3886 28.64 27.8526 28.256C27.3726 28.16 27.0846 27.776 27.0846 27.296C27.0846 26.912 27.3726 26.432 27.9486 26.432C30.7326 26.24 32.7486 21.536 33.5166 19.232C34.3806 16.448 34.9566 12.992 34.9566 10.016L34.8606 7.904C34.6686 6.272 34.1886 4.736 33.2286 4.736H32.9406C28.2366 5.888 16.1406 24.224 16.1406 32.576L16.3326 34.016C16.5246 34.688 17.1966 34.976 18.1566 34.976C20.8446 34.976 25.8366 32.864 27.6606 32.864H27.7566C33.6126 32.864 34.7646 39.008 34.7646 39.008C34.7646 47.168 25.6446 60.704 15.4686 60.704ZM49.3364 39.68C53.4644 39.68 58.9364 31.232 58.9364 28.16C58.9364 27.584 58.7444 27.296 58.4564 27.104C58.1684 26.912 57.9764 26.912 57.6884 26.912C55.4804 26.912 52.4084 30.944 51.4484 32.288C50.0084 34.496 48.7604 36.992 47.9924 39.296C48.3764 39.584 48.8564 39.68 49.3364 39.68ZM51.1604 56H50.1044C41.9444 55.712 38.9684 50.912 38.9684 44.864C38.9684 41.888 39.6404 38.72 40.7924 35.648C43.0964 29.504 48.1844 22.112 55.1924 22.112H55.5764C59.2244 22.208 62.2004 24.032 62.2004 27.68V27.872C62.0084 34.688 55.0004 43.04 49.8164 43.04C48.8564 43.04 47.8964 42.752 47.1284 42.08C46.9364 43.232 46.7444 44.48 46.7444 45.728C46.7444 49.376 47.8004 53.12 50.9684 53.792L52.0244 53.888C52.6004 53.888 53.3684 53.792 54.1364 53.6C57.4964 52.352 62.2964 48.224 68.3444 35.648C68.5364 35.264 68.8244 35.072 69.1124 35.072C69.3044 35.072 69.4964 35.168 69.6884 35.264C69.9764 35.36 70.1684 35.648 70.1684 36.032C70.1684 36.032 70.1684 36.224 70.0724 36.416C63.6404 49.856 58.3604 54.176 54.5204 55.52C53.2724 55.904 52.1204 56 51.1604 56ZM82.7594 56H81.7994C79.4954 56 76.1354 55.904 74.9834 53.696C74.5034 52.736 74.2154 51.392 74.2154 49.856C74.2154 42.656 79.0154 30.752 80.7434 25.568C79.4954 25.664 77.7674 26.144 76.1354 26.144C75.6554 26.144 75.0794 26.144 74.5994 25.952C73.1594 29.696 72.2954 31.616 70.0874 36.416C69.9914 36.704 69.6074 36.992 69.3194 36.992C69.1274 36.992 69.0314 36.992 68.8394 36.896C68.5514 36.8 68.2634 36.608 68.2634 36.032C68.2634 35.936 68.2634 35.84 68.3594 35.648C70.6634 30.56 71.3354 29.024 72.9674 25.088C72.1034 24.416 71.7194 23.456 71.7194 22.4C71.7194 21.056 72.1994 19.616 72.6794 18.368C72.9674 17.6 74.0234 17.312 74.9834 17.312C76.1354 17.312 77.3834 17.696 77.3834 18.464L77.2874 18.752C76.9034 20.096 76.1354 22.304 75.8474 22.976C78.4394 22.88 80.6474 22.112 82.6634 22.112C85.0634 22.112 87.4634 23.936 87.8474 26.432L87.9434 27.104C87.9434 28.64 87.1754 30.656 86.1194 33.728C84.5834 38.048 81.5114 46.592 81.5114 51.392L81.7034 53.024C81.8954 53.888 82.2794 54.176 82.7594 54.176C84.0074 54.176 85.8314 51.968 86.3114 51.2C88.1354 48.512 90.5354 43.712 94.1834 35.648C94.3754 35.264 94.6634 35.072 94.9514 35.072C95.2394 35.072 95.4314 35.168 95.6234 35.264C95.8154 35.36 96.0074 35.648 96.0074 36.032C96.0074 36.128 96.0074 36.224 95.9114 36.416C92.2634 44.576 89.8634 49.472 87.9434 52.256C85.8314 55.328 84.4874 56 82.7594 56ZM104.125 56C99.6126 55.904 95.9646 56.096 95.0046 53.6C93.8526 50.912 93.4686 47.456 93.4686 43.808C93.4686 36.992 95.0046 29.312 96.6366 23.36C96.8286 22.496 97.8846 22.112 99.0366 22.112C101.341 22.112 104.317 23.456 104.317 24.896L104.221 25.376C102.013 31.136 100.957 39.008 100.957 45.248C100.957 50.144 101.341 52.736 102.301 53.312C105.949 49.76 114.685 33.824 114.685 25.568V24.704C114.685 24.032 114.589 23.36 114.397 22.88L114.301 22.496C114.301 22.016 114.781 21.632 115.261 21.632C116.605 21.632 119.965 23.36 120.061 24.992C120.157 25.568 120.157 25.472 120.157 26.048C120.157 34.304 108.925 52.544 105.661 55.232C105.277 55.616 104.509 56 104.125 56ZM126.418 56H125.17C122.77 56 120.274 55.712 119.218 53.696C118.642 52.736 118.354 51.2 118.354 49.472C118.354 47.456 118.738 45.056 119.218 42.56C120.754 35.36 123.922 26.816 125.362 23.264C125.746 22.496 126.706 22.112 127.762 22.112C130.066 22.112 133.042 23.552 133.042 24.992L132.946 25.376C132.178 27.488 125.458 46.592 125.458 52.448C125.458 53.504 125.65 54.08 126.226 54.08C129.394 53.984 135.346 41.696 138.034 35.648C138.226 35.168 138.514 35.072 138.898 35.072L139.378 35.168C139.666 35.264 139.858 35.552 139.858 35.936C139.858 36.128 139.858 36.224 139.762 36.416C136.69 43.232 130.834 55.808 126.418 56ZM133.426 18.56C131.506 18.56 128.722 17.408 128.722 16.16C128.722 14.624 129.874 10.88 130.45 9.632C130.738 8.768 131.602 8.48 132.658 8.48C134.866 8.48 137.746 10.016 137.746 11.456C137.746 11.648 137.746 11.936 137.554 12.128C137.074 12.992 135.73 16.448 135.058 17.888C134.866 18.368 134.194 18.56 133.426 18.56ZM140.128 70.112C138.688 70.112 137.44 69.632 136.768 68.864C136.384 68.48 136.288 67.904 136.288 67.328C136.288 66.464 136.672 65.504 137.056 65.12L137.248 65.024C137.536 65.024 137.824 65.216 137.824 65.408V65.504C137.824 65.6 137.632 65.984 137.632 66.272C137.632 66.56 137.824 66.944 138.496 67.136L139.648 67.328C142.24 67.328 145.504 65.12 145.792 62.528V62.336C145.792 61.376 144.928 60.992 143.968 60.992C142.912 60.992 141.664 61.376 140.896 61.856H140.704C140.032 61.856 138.688 60.224 138.688 59.36V59.168C138.976 58.304 140.704 56.288 141.856 55.04C137.536 53.216 135.904 49.376 135.904 44.864C135.904 41.984 136.576 38.816 137.728 35.744C140.032 29.408 145.216 22.112 152.224 22.112C152.896 22.112 153.664 22.208 154.336 22.304C158.08 23.072 159.52 25.952 159.52 28.736C159.52 30.56 158.848 32.48 157.888 33.632C157.216 34.496 156.256 35.072 155.296 35.072C154.72 35.072 154.048 34.88 153.472 34.4C153.184 34.208 152.992 33.92 152.992 33.728L153.184 33.152C153.568 32.48 155.488 29.216 155.488 27.68C155.488 27.2 155.296 26.912 154.912 26.816H154.624C151.936 26.816 146.464 33.536 144.448 40.736C144.064 42.176 143.776 44.096 143.776 45.92C143.776 49.376 144.736 52.832 147.424 53.696C147.904 53.888 148.384 53.984 148.96 53.984C149.632 53.984 150.304 53.888 151.072 53.6C154.432 52.352 159.232 48.32 165.28 35.648C165.472 35.264 165.76 35.072 166.048 35.072C166.24 35.072 166.432 35.168 166.624 35.264C166.912 35.36 167.104 35.648 167.104 36.032C167.104 36.224 167.104 36.32 167.008 36.512C160.672 49.856 155.296 54.176 151.552 55.52C150.208 55.904 149.056 56 148.096 56H147.04C145.888 56 144.832 55.904 143.968 55.712L141.568 58.688C142.24 58.496 142.912 58.4 143.68 58.4C144.928 58.4 146.272 58.688 147.136 59.648C147.808 60.416 148.096 61.568 148.096 62.72C148.096 63.488 147.904 64.352 147.616 65.12C146.272 68.576 142.912 70.112 140.128 70.112ZM172.689 53.12C176.433 53.12 180.177 43.712 181.137 40.736C179.601 39.584 179.025 37.856 179.025 36.224C179.025 33.44 180.753 30.752 182.577 30.176C182.289 29.024 181.809 28.064 180.561 28.064H179.985C175.377 28.736 170.385 41.792 170.385 48.8C170.385 51.2 170.961 52.928 172.401 53.12H172.689ZM199.281 56.096H198.417C192.753 56.096 190.065 52.352 190.065 48.224C190.065 46.016 190.833 43.712 192.273 41.792C192.753 41.12 193.521 40.832 194.289 40.832C196.497 40.832 199.185 42.848 199.185 44.096C199.185 44.384 199.089 44.576 198.897 44.768C197.457 46.016 196.113 49.472 196.113 51.584C196.113 52.256 196.209 52.736 196.593 53.024C196.785 53.12 196.977 53.216 197.169 53.216C197.745 53.216 198.417 52.736 198.897 52.064C200.241 50.336 200.625 47.936 200.625 45.248C200.625 40.64 199.473 35.264 199.473 31.04C199.473 30.368 199.473 29.696 199.569 29.024C196.785 34.112 192.657 42.272 186.033 42.272H185.457C183.249 48.32 178.641 56.096 172.017 56.096C165.969 56.096 163.473 51.2 163.473 45.056C163.473 35.072 170.097 22.112 179.025 22.112C179.793 22.112 180.561 22.208 181.425 22.4C185.937 23.648 187.281 27.872 187.281 32.288C187.281 35.168 186.705 38.144 186.033 40.448C191.505 40.448 195.825 32.096 197.937 27.968C199.473 24.896 201.105 22.112 201.969 22.112H209.073C209.649 22.112 210.033 22.592 210.033 23.072C210.033 23.264 210.033 23.456 209.841 23.648C208.113 26.24 207.537 28.832 207.537 31.424C207.537 35.456 208.881 39.488 208.881 43.616C208.881 44.576 208.785 45.536 208.593 46.496C208.113 48.608 207.537 50.336 206.673 51.68C207.921 50.432 209.937 47.744 211.473 45.44C213.105 42.944 214.929 39.68 216.849 35.648C217.041 35.264 217.329 35.072 217.713 35.072C218.193 35.072 218.673 35.456 218.673 36.032C218.673 36.128 218.673 36.32 218.577 36.512C216.753 40.16 214.929 43.616 212.913 46.784C211.473 48.896 210.033 50.912 208.401 52.64C205.521 55.904 202.161 56.096 199.281 56.096Z" fill="black"/>
</g>
<defs>
<filter id="filter0_d_84_16" x="0.140625" y="0.607994" width="222.532" height="77.504" filterUnits="userSpaceOnUse" color-interpolation-filters="sRGB">
<feFlood flood-opacity="0" result="BackgroundImageFix"/>
<feColorMatrix in="SourceAlpha" type="matrix" values="0 0 0 0 0 0 0 0 0 0 0 0 0 0 0 0 0 0 127 0" result="hardAlpha"/>
<feOffset dy="4"/>
<feGaussianBlur stdDeviation="2"/>
<feComposite in2="hardAlpha" operator="out"/>
<feColorMatrix type="matrix" values="0 0 0 0 0 0 0 0 0 0 0 0 0 0 0 0 0 0 0.1 0"/>
<feBlend mode="normal" in2="BackgroundImageFix" result="effect1_dropShadow_84_16"/>
<feBlend mode="normal" in="SourceGraphic" in2="effect1_dropShadow_84_16" result="shape"/>
</filter>
</defs>
</svg>
