<svg width="46" height="10" viewBox="0 0 46 10" fill="none" xmlns="http://www.w3.org/2000/svg">
<path d="M1.652 9.686C0.952 9.686 0.154 9.14 0.014 8.426L0 8.258C0 7.754 0.364 6.956 0.812 6.704C0.84 6.69 0.854 6.69 0.882 6.69C0.952 6.69 1.022 6.746 1.022 6.816C1.022 6.844 1.008 6.872 0.994 6.9C0.728 7.292 0.546 7.74 0.546 8.118V8.23C0.574 8.622 0.882 8.986 1.26 8.986C1.33 8.986 1.386 8.972 1.456 8.958C1.988 8.818 2.478 8.3 2.828 7.726C3.01 7.446 3.374 6.76 3.374 6.354L3.36 6.228C3.36 6.2 3.318 6.2 3.262 6.2C2.954 6.2 1.974 6.48 1.666 6.494H1.638C1.036 6.494 0.406 6.018 0.406 5.304C0.406 4.044 2.24 0.922 3.948 0.922C5.222 0.922 5.642 1.79 5.642 2.756C5.642 3.176 5.558 3.61 5.432 4.016C5.152 4.87 4.676 5.094 4.214 5.094C3.948 5.094 3.682 5.01 3.458 4.954C3.388 4.94 3.346 4.884 3.346 4.814C3.346 4.758 3.388 4.688 3.472 4.688C3.878 4.66 4.172 3.974 4.284 3.638C4.41 3.232 4.494 2.728 4.494 2.294L4.48 1.986C4.452 1.748 4.382 1.524 4.242 1.524H4.2C3.514 1.692 1.75 4.366 1.75 5.584L1.778 5.794C1.806 5.892 1.904 5.934 2.044 5.934C2.436 5.934 3.164 5.626 3.43 5.626H3.444C4.298 5.626 4.466 6.522 4.466 6.522C4.466 7.712 3.136 9.686 1.652 9.686ZM6.43705 8.566C6.98305 8.566 7.52905 7.208 7.68305 6.774C7.45905 6.606 7.37505 6.354 7.37505 6.116C7.37505 5.71 7.62705 5.304 7.89305 5.234C7.85105 5.052 7.76705 4.912 7.58505 4.912H7.51505C6.84305 5.024 6.10105 6.928 6.10105 7.936C6.10105 8.286 6.18505 8.538 6.39505 8.566H6.43705ZM6.33905 9C5.45705 9 5.09305 8.286 5.09305 7.39C5.09305 5.948 6.05905 4.058 7.36105 4.058C7.47305 4.058 7.58505 4.072 7.71105 4.1C8.38305 4.268 8.57905 4.898 8.57905 5.556C8.57905 5.962 8.49505 6.396 8.39705 6.718C8.85905 6.718 9.36305 6.48 9.60105 6.018C9.62905 5.962 9.67105 5.948 9.71305 5.948C9.74105 5.948 9.76905 5.962 9.79705 5.976C9.83905 5.99 9.85305 6.032 9.85305 6.074C9.85305 6.102 9.85305 6.13 9.83905 6.158C9.55905 6.69 8.97105 6.998 8.41105 6.998H8.29905C7.99105 7.88 7.30505 9 6.33905 9ZM16.2337 9.014H16.0797C15.7577 9.014 15.2677 9 15.0997 8.692C15.0297 8.538 15.0017 8.342 15.0017 8.118C15.0017 7.068 15.6877 5.304 15.9537 4.562C15.7577 4.59 15.4917 4.646 15.2537 4.646C15.1837 4.646 15.1137 4.646 15.0577 4.618C14.9317 4.954 14.6657 5.528 14.3297 6.06C13.9657 6.578 13.5177 7.012 12.9717 7.096C12.7477 7.782 12.1177 8.594 11.4737 8.762C11.3897 8.79 11.3197 8.804 11.2357 8.804C10.7877 8.804 10.4937 8.44 10.4937 8.02C10.4937 7.768 10.5917 7.488 10.8297 7.236C11.0677 6.998 11.4317 6.928 11.7957 6.886C11.9357 6.48 12.0897 5.864 12.0897 5.374L12.0617 5.08C12.0337 4.94 11.9917 4.856 11.8937 4.856H11.8657C11.4457 4.884 10.7457 6.27 10.6197 6.69C10.4237 7.236 10.0877 8.3 10.0877 8.86C10.0877 8.944 10.0177 9.014 9.93366 9.014H9.79366C9.45766 9.014 9.09366 8.944 9.02366 8.636L9.00966 8.468C9.00966 8.076 9.20566 7.278 9.47166 6.382C9.94766 4.758 10.6617 2.784 10.8997 2.252C10.9417 2.14 11.0817 2.084 11.2497 2.084C11.5997 2.084 12.0757 2.294 12.0757 2.518L12.0617 2.574C11.9637 2.826 11.6557 3.61 11.3197 4.576C11.5577 4.282 11.8517 4.058 12.2017 4.058H12.2437C12.9997 4.058 13.2097 4.8 13.2097 5.542C13.2097 6.018 13.1257 6.48 13.0417 6.788C13.4477 6.69 13.7977 6.312 14.0917 5.892C14.4417 5.388 14.6797 4.8 14.8057 4.492C14.6797 4.394 14.6377 4.24 14.6377 4.086C14.6377 3.89 14.7077 3.666 14.7777 3.498C14.8197 3.4 14.9597 3.358 15.1137 3.358C15.2817 3.358 15.4497 3.414 15.4497 3.526V3.568L15.2397 4.184C15.6037 4.17 15.9257 4.058 16.2197 4.058C16.5837 4.058 16.9337 4.338 16.9897 4.688L17.0037 4.8C17.0037 5.01 16.8917 5.318 16.7237 5.752C16.4997 6.382 16.0657 7.642 16.0657 8.328L16.0937 8.566C16.1217 8.692 16.1777 8.748 16.2477 8.748C16.4297 8.748 16.6957 8.412 16.7797 8.314C17.0317 7.922 17.3817 7.222 17.9137 6.032C17.9417 5.976 17.9977 5.948 18.0397 5.948C18.1237 5.948 18.1937 6.004 18.1937 6.088C18.1937 6.102 18.1937 6.13 18.1797 6.158C17.6337 7.334 17.2837 8.048 17.0037 8.468C16.7097 8.916 16.4997 9.014 16.2337 9.014ZM10.9277 8.118C11.0117 8.118 11.1377 8.034 11.2917 7.852C11.4037 7.712 11.5437 7.502 11.6697 7.194C11.4457 7.236 11.1517 7.32 11.0117 7.474C10.8717 7.614 10.8017 7.796 10.8017 7.922C10.8017 8.034 10.8437 8.118 10.9277 8.118ZM19.1278 6.634C19.7298 6.634 20.5138 5.402 20.5138 4.954C20.5138 4.884 20.4998 4.828 20.4578 4.8C20.4158 4.786 20.3878 4.772 20.3458 4.772C20.0238 4.772 19.5618 5.374 19.4218 5.57C19.2118 5.892 19.0298 6.256 18.9178 6.578C18.9878 6.62 19.0438 6.634 19.1278 6.634ZM19.3098 9.028H19.2258C18.0358 8.986 17.6018 8.272 17.6018 7.39C17.6018 6.97 17.6998 6.508 17.8678 6.06C18.2178 5.15 18.9598 4.072 19.9958 4.072H20.0378C20.5698 4.086 21.0038 4.366 21.0038 4.898V4.926C20.9758 5.92 19.9538 7.138 19.1978 7.138C19.0578 7.138 18.9178 7.096 18.8058 6.998C18.7638 7.166 18.7498 7.348 18.7498 7.544C18.7498 8.062 18.9178 8.608 19.3658 8.706L19.5198 8.72C19.9818 8.72 20.3738 8.314 20.6678 8.02C20.7098 7.978 20.7518 7.964 20.7938 7.964C20.8358 7.964 20.8638 7.978 20.8918 8.006L20.9198 8.09C20.9198 8.132 20.9058 8.174 20.8778 8.188C20.4718 8.734 19.9678 9.028 19.3098 9.028ZM33.8306 9.686C33.1026 9.686 32.6126 9.672 32.5986 8.762C32.5986 7.278 33.7466 4.044 34.3346 2.308C33.5226 3.246 32.4166 5.136 31.2966 7.054C30.7786 7.936 30.2746 8.818 29.7986 9.602C29.7566 9.658 29.7286 9.686 29.6586 9.686C29.2806 9.686 28.8326 9.672 28.7486 9.322C28.7346 9.28 28.7346 9.21 28.7346 9.14C28.7346 7.936 30.3726 3.61 30.8206 2.308C30.0086 3.26 28.9166 5.15 27.7966 7.054C27.2786 7.95 26.7606 8.832 26.2706 9.616C26.2426 9.672 26.2006 9.686 26.1446 9.686H26.0046C25.7106 9.686 25.3186 9.63 25.2486 9.322L25.2346 9.182C25.2346 8.734 25.4866 7.726 25.8506 6.564C26.4386 4.59 27.2646 2.168 27.5446 1.482L27.4746 1.468C26.8586 1.468 25.5426 3.932 25.4306 4.464C25.4166 4.548 25.4026 4.618 25.4026 4.674C25.4026 4.73 25.4166 4.758 25.4446 4.772C25.5146 4.786 25.5566 4.842 25.5566 4.898C25.5566 4.954 25.5286 5.01 25.4586 5.038C25.2766 5.094 25.0526 5.164 24.8286 5.164C24.7026 5.164 24.5766 5.136 24.4646 5.08C24.2826 4.968 24.2266 4.786 24.2266 4.59C24.2266 4.478 24.2406 4.352 24.2686 4.24C24.4366 3.61 24.9546 2.714 25.5566 2.028C26.0606 1.426 26.6486 0.978 27.1666 0.936L27.4186 0.922C27.9646 0.922 28.8046 1.062 28.8046 1.58C28.8046 1.664 28.7766 1.748 28.7346 1.846C28.5246 2.35 27.2086 6.046 26.6626 7.936C27.8246 5.626 30.2606 0.949999 31.2966 0.936H31.3246C31.8986 0.936 32.2486 1.202 32.2486 1.692C32.2486 1.846 32.2066 2.014 32.1366 2.21C31.5626 3.666 30.9046 5.57 30.4426 7.054L30.1766 7.908C31.3386 5.598 33.7606 0.949999 34.7966 0.936C35.2726 0.936 35.7626 1.132 35.7626 1.664C35.7626 1.916 35.6366 2.21 35.5526 2.448C35.0206 3.904 33.7466 7.376 33.7466 8.832C33.7466 9.126 33.7886 9.336 33.9146 9.434C33.9566 9.462 33.9706 9.504 33.9706 9.546C33.9706 9.616 33.9146 9.686 33.8306 9.686ZM35.9611 9H35.7791C35.4291 9 35.0651 8.958 34.9111 8.664C34.8271 8.524 34.7851 8.3 34.7851 8.048C34.7851 7.754 34.8411 7.404 34.9111 7.04C35.1351 5.99 35.5971 4.744 35.8071 4.226C35.8631 4.114 36.0031 4.058 36.1571 4.058C36.4931 4.058 36.9271 4.268 36.9271 4.478L36.9131 4.534C36.8011 4.842 35.8211 7.628 35.8211 8.482C35.8211 8.636 35.8491 8.72 35.9331 8.72C36.3951 8.706 37.2631 6.914 37.6551 6.032C37.6831 5.962 37.7251 5.948 37.7811 5.948L37.8511 5.962C37.8931 5.976 37.9211 6.018 37.9211 6.074C37.9211 6.102 37.9211 6.116 37.9071 6.144C37.4591 7.138 36.6051 8.972 35.9611 9ZM36.9831 3.54C36.7031 3.54 36.2971 3.372 36.2971 3.19C36.2971 2.966 36.4651 2.42 36.5491 2.238C36.5911 2.112 36.7171 2.07 36.8711 2.07C37.1931 2.07 37.6131 2.294 37.6131 2.504C37.6131 2.532 37.6131 2.574 37.5851 2.602C37.5151 2.728 37.3191 3.232 37.2211 3.442C37.1931 3.512 37.0951 3.54 36.9831 3.54ZM43.0563 9.014C42.5663 9.014 42.2023 8.888 42.2023 8.202V8.076C42.2443 7.138 43.0283 4.926 43.0423 4.772C43.0423 4.702 43.0283 4.674 42.9863 4.674C42.9443 4.674 42.8883 4.73 42.8463 4.772C42.6363 4.968 42.4123 5.22 42.2163 5.486C41.6563 6.214 41.1663 7.026 40.9703 7.376C40.8023 8.034 40.6483 8.594 40.6483 8.818V8.846C40.6483 8.972 40.5783 9 40.4943 9H40.3403C39.8083 9 39.5843 8.762 39.5843 8.3L39.5983 8.104C39.6963 7.152 40.3263 5.36 40.4803 4.828L40.4943 4.73C40.4943 4.688 40.4803 4.674 40.4523 4.674C40.4243 4.674 40.3683 4.702 40.2983 4.758C40.0603 4.954 39.6823 5.444 39.6403 5.486C39.0943 6.2 38.6043 7.026 38.4083 7.376C38.2263 7.992 38.1003 8.538 38.0863 8.86C38.0863 8.958 38.0163 9 37.9323 9H37.8343C37.4983 9 37.0503 8.93 37.0363 8.608V8.594C37.0363 7.754 37.9743 4.842 38.2123 4.226C38.2543 4.114 38.3803 4.058 38.5623 4.058C38.8983 4.058 39.3603 4.254 39.3603 4.478L39.3463 4.534C39.1083 5.122 38.9263 5.71 38.7303 6.312C38.9403 5.99 39.1783 5.654 39.4303 5.318C39.7103 4.954 40.1163 4.478 40.5083 4.212C40.6763 4.1 40.8583 4.058 41.0263 4.058C41.3763 4.058 41.6703 4.268 41.6703 4.646L41.6563 4.814C41.6003 5.108 41.4043 5.808 41.2363 6.396C41.4603 6.06 41.7123 5.682 41.9923 5.318C42.2863 4.954 42.6783 4.478 43.0703 4.212C43.2383 4.1 43.4203 4.058 43.5883 4.058C43.9383 4.058 44.2323 4.268 44.2323 4.646L44.2183 4.814C44.0223 5.78 43.3503 7.656 43.3503 8.468C43.3503 8.636 43.3643 8.72 43.4343 8.72C43.6163 8.706 43.7563 8.594 43.9663 8.23C44.2183 7.824 44.5263 7.138 45.0163 6.032C45.0443 5.976 45.0863 5.948 45.1283 5.948C45.2123 5.948 45.2823 6.004 45.2823 6.088C45.2823 6.102 45.2823 6.116 45.2683 6.144C44.7783 7.264 44.4563 7.964 44.2043 8.384C43.9243 8.832 43.7143 8.986 43.4483 9L43.0563 9.014Z" fill="#31000E"/>
</svg>
