<svg width="228" height="49" viewBox="0 0 228 49" fill="none" xmlns="http://www.w3.org/2000/svg">
<g filter="url(#filter0_d_84_34)">
<path d="M12.0208 40.136C8.82075 40.136 5.17275 37.64 4.53275 34.376L4.46875 33.608C4.46875 31.304 6.13275 27.656 8.18075 26.504C8.30875 26.44 8.37275 26.44 8.50075 26.44C8.82075 26.44 9.14075 26.696 9.14075 27.016C9.14075 27.144 9.07675 27.272 9.01275 27.4C7.79675 29.192 6.96475 31.24 6.96475 32.968V33.48C7.09275 35.272 8.50075 36.936 10.2288 36.936C10.5488 36.936 10.8048 36.872 11.1248 36.808C13.5568 36.168 15.7968 33.8 17.3968 31.176C18.2288 29.896 19.8928 26.76 19.8928 24.904L19.8288 24.328C19.8288 24.2 19.6368 24.2 19.3808 24.2C17.9728 24.2 13.4928 25.48 12.0848 25.544H11.9568C9.20475 25.544 6.32475 23.368 6.32475 20.104C6.32475 14.344 14.7088 0.0719986 22.5168 0.0719986C28.3408 0.0719986 30.2608 4.04 30.2608 8.456C30.2608 10.376 29.8768 12.36 29.3008 14.216C28.0208 18.12 25.8448 19.144 23.7328 19.144C22.5168 19.144 21.3008 18.76 20.2768 18.504C19.9568 18.44 19.7648 18.184 19.7648 17.864C19.7648 17.608 19.9568 17.288 20.3408 17.288C22.1968 17.16 23.5408 14.024 24.0528 12.488C24.6288 10.632 25.0128 8.328 25.0128 6.344L24.9488 4.936C24.8208 3.848 24.5008 2.824 23.8608 2.824H23.6688C20.5328 3.592 12.4688 15.816 12.4688 21.384L12.5968 22.344C12.7248 22.792 13.1728 22.984 13.8128 22.984C15.6048 22.984 18.9328 21.576 20.1488 21.576H20.2128C24.1168 21.576 24.8848 25.672 24.8848 25.672C24.8848 31.112 18.8048 40.136 12.0208 40.136ZM33.8953 35.016C36.3913 35.016 38.8873 28.808 39.5913 26.824C38.5673 26.056 38.1833 24.904 38.1833 23.816C38.1833 21.96 39.3353 20.104 40.5513 19.784C40.3593 18.952 39.9753 18.312 39.1433 18.312H38.8233C35.7513 18.824 32.3593 27.528 32.3593 32.136C32.3593 33.736 32.7433 34.888 33.7033 35.016H33.8953ZM33.4473 37C29.4153 37 27.7512 33.736 27.7512 29.64C27.7512 23.048 32.1673 14.408 38.1193 14.408C38.6313 14.408 39.1433 14.472 39.7193 14.6C42.7913 15.368 43.6873 18.248 43.6873 21.256C43.6873 23.112 43.3033 25.096 42.8553 26.568C44.9673 26.568 47.2713 25.48 48.3593 23.368C48.4873 23.112 48.6793 23.048 48.8713 23.048C48.9993 23.048 49.1273 23.112 49.2553 23.176C49.4473 23.24 49.5113 23.432 49.5113 23.624C49.5113 23.752 49.5113 23.88 49.4473 24.008C48.1673 26.44 45.4792 27.848 42.9193 27.848H42.4073C40.9993 31.88 37.8633 37 33.4473 37ZM78.6798 37.064H77.9758C76.5038 37.064 74.2638 37 73.4958 35.592C73.1758 34.888 73.0478 33.992 73.0478 32.968C73.0478 28.168 76.1838 20.104 77.3998 16.712C76.5038 16.84 75.2878 17.096 74.1998 17.096C73.8798 17.096 73.5598 17.096 73.3038 16.968C72.7278 18.504 71.5118 21.128 69.9758 23.56C68.3118 25.928 66.2638 27.912 63.7678 28.296C62.7438 31.432 59.8638 35.144 56.9198 35.912C56.5358 36.04 56.2158 36.104 55.8318 36.104C53.7838 36.104 52.4398 34.44 52.4398 32.52C52.4398 31.368 52.8878 30.088 53.9758 28.936C55.0638 27.848 56.7278 27.528 58.3918 27.336C59.0318 25.48 59.7358 22.664 59.7358 20.424L59.6078 19.08C59.4798 18.44 59.2878 18.056 58.8398 18.056H58.7118C56.7917 18.184 53.5918 24.52 53.0158 26.44C52.1198 28.936 50.5838 33.8 50.5838 36.36C50.5838 36.744 50.2638 37.064 49.8798 37.064H49.2398C47.7037 37.064 46.0397 36.744 45.7197 35.336L45.6557 34.568C45.6557 32.776 46.5517 29.128 47.7677 25.032C49.9438 17.608 53.2078 8.584 54.2958 6.152C54.4878 5.64 55.1278 5.384 55.8958 5.384C57.4958 5.384 59.6718 6.344 59.6718 7.368L59.6078 7.624C59.1598 8.776 57.7517 12.36 56.2158 16.776C57.3038 15.432 58.6478 14.408 60.2478 14.408H60.4398C63.8958 14.408 64.8558 17.8 64.8558 21.192C64.8558 23.368 64.4718 25.48 64.0878 26.888C65.9438 26.44 67.5438 24.712 68.8878 22.792C70.4878 20.488 71.5758 17.8 72.1518 16.392C71.5758 15.944 71.3838 15.24 71.3838 14.536C71.3838 13.64 71.7038 12.616 72.0238 11.848C72.2158 11.4 72.8558 11.208 73.5598 11.208C74.3278 11.208 75.0958 11.464 75.0958 11.976V12.168L74.1358 14.984C75.7998 14.92 77.2718 14.408 78.6158 14.408C80.2798 14.408 81.8798 15.688 82.1357 17.288L82.1998 17.8C82.1998 18.76 81.6878 20.168 80.9198 22.152C79.8958 25.032 77.9118 30.792 77.9118 33.928L78.0398 35.016C78.1678 35.592 78.4238 35.848 78.7438 35.848C79.5758 35.848 80.7918 34.312 81.1758 33.864C82.3278 32.072 83.9278 28.872 86.3598 23.432C86.4878 23.176 86.7438 23.048 86.9358 23.048C87.3198 23.048 87.6398 23.304 87.6398 23.688C87.6398 23.752 87.6398 23.88 87.5758 24.008C85.0798 29.384 83.4798 32.648 82.1998 34.568C80.8558 36.616 79.8958 37.064 78.6798 37.064ZM54.4238 32.968C54.8078 32.968 55.3838 32.584 56.0878 31.752C56.5998 31.112 57.2398 30.152 57.8158 28.744C56.7917 28.936 55.4478 29.32 54.8078 30.024C54.1678 30.664 53.8478 31.496 53.8478 32.072C53.8478 32.584 54.0398 32.968 54.4238 32.968ZM91.0783 32.2C92.9983 32.136 96.4543 25.416 97.0943 23.816C97.4143 22.984 97.9903 21.256 97.9903 19.848C97.9903 18.952 97.7343 18.248 97.0303 18.056L96.6463 17.992C93.7663 17.992 90.1183 26.696 90.1183 30.472C90.1183 31.56 90.4383 32.2 91.0783 32.2ZM100.614 37H99.8463C98.2463 37 96.5823 36.808 95.8783 35.464C95.4943 34.824 95.3663 33.864 95.3663 32.776C95.3663 32.136 95.4303 31.496 95.4943 30.728C94.0223 33.288 91.9743 35.784 89.4783 35.784H89.3503C86.2782 35.72 84.9982 33.16 84.9982 29.832C84.9982 23.496 89.6063 14.472 95.9423 14.472H96.0063C97.6703 14.472 99.0143 15.048 99.7823 16.264L100.23 15.112C100.55 14.6 101.126 14.408 101.894 14.408C103.366 14.408 105.35 15.304 105.35 16.328L105.286 16.584C104.454 18.632 100.294 29.64 100.166 34.248C100.166 35.144 100.23 35.72 100.55 35.72C102.662 35.656 106.694 27.464 108.55 23.432C108.678 23.112 108.87 23.048 109.126 23.048L109.446 23.112C109.638 23.176 109.766 23.368 109.766 23.624C109.766 23.752 109.766 23.752 109.702 23.944C107.59 28.488 103.622 36.872 100.614 37ZM121.587 37.064C119.283 37.064 117.683 36.552 117.683 33.352C117.811 28.68 121.395 18.312 121.459 17.544C121.459 17.352 121.395 17.224 121.267 17.224C121.075 17.224 120.819 17.416 120.627 17.608C117.555 20.36 113.203 27.528 112.051 29.512C111.283 32.328 110.643 34.888 110.579 36.36C110.579 36.936 110.259 37 109.747 37H109.427C107.891 37 105.843 36.68 105.779 35.208C105.779 31.944 109.555 19.336 111.155 15.176C111.347 14.664 111.987 14.408 112.755 14.408C114.291 14.408 116.403 15.304 116.403 16.328L116.339 16.584C115.827 17.8 113.715 24.136 113.523 24.648C114.483 23.24 115.571 21.64 116.723 20.168C118.643 17.672 121.331 14.408 124.019 14.408C125.619 14.408 126.963 15.368 126.963 17.096L126.899 17.864C126.003 22.28 122.931 30.856 122.931 34.568C122.931 35.336 122.995 35.72 123.315 35.72C124.915 35.592 126.067 33.48 130.547 23.432C130.675 23.176 130.867 23.048 131.059 23.048C131.443 23.048 131.763 23.304 131.763 23.688C131.763 23.752 131.763 23.816 131.699 23.944C127.219 34.12 125.811 36.872 123.379 37L121.587 37.064ZM137.315 37H136.611C131.171 36.808 129.187 33.608 129.187 29.576C129.187 27.592 129.635 25.48 130.403 23.432C132.003 19.272 135.395 14.408 140.067 14.408C140.515 14.408 141.027 14.472 141.475 14.536C144.035 15.048 144.995 16.904 144.995 18.76C144.995 19.976 144.547 21.256 143.843 22.088C143.331 22.664 142.755 22.984 142.115 22.984C141.731 22.984 141.283 22.856 140.899 22.6C140.707 22.472 140.643 22.28 140.643 22.024C140.643 21.96 140.643 21.832 140.707 21.768C140.963 21.32 142.243 19.144 142.243 18.12C142.243 17.8 142.115 17.608 141.859 17.544H141.667C139.875 17.544 136.227 22.024 134.947 26.824C134.627 27.784 134.435 29.064 134.435 30.344C134.435 32.584 135.075 34.824 136.931 35.464C137.251 35.528 137.571 35.592 137.891 35.592C138.339 35.592 138.787 35.528 139.299 35.4C141.603 34.568 144.803 31.816 148.835 23.432C148.963 23.112 149.155 23.048 149.347 23.048C149.539 23.048 149.667 23.112 149.667 23.112C149.859 23.24 149.987 23.432 149.987 23.688C149.987 23.688 149.987 23.816 149.923 23.944C145.699 32.84 142.179 35.72 139.619 36.616C138.723 36.936 137.955 37 137.315 37ZM154.412 26.12C157.164 26.12 160.812 20.488 160.812 18.44C160.812 18.056 160.684 17.864 160.492 17.736C160.3 17.608 160.172 17.608 159.98 17.608C158.508 17.608 156.46 20.296 155.82 21.192C154.86 22.664 154.028 24.328 153.516 25.864C153.772 26.056 154.092 26.12 154.412 26.12ZM155.628 37H154.924C149.484 36.808 147.5 33.608 147.5 29.576C147.5 27.592 147.948 25.48 148.716 23.432C150.252 19.336 153.644 14.408 158.316 14.408H158.572C161.004 14.472 162.988 15.688 162.988 18.12V18.248C162.86 22.792 158.188 28.36 154.732 28.36C154.092 28.36 153.452 28.168 152.94 27.72C152.812 28.488 152.684 29.32 152.684 30.152C152.684 32.584 153.388 35.08 155.5 35.528L156.204 35.592C156.588 35.592 157.1 35.528 157.612 35.4C159.852 34.568 163.052 31.816 167.084 23.432C167.212 23.176 167.404 23.048 167.596 23.048C167.724 23.048 167.852 23.112 167.98 23.176C168.172 23.24 168.3 23.432 168.3 23.688C168.3 23.688 168.3 23.816 168.236 23.944C163.948 32.904 160.428 35.784 157.868 36.68C157.036 36.936 156.268 37 155.628 37ZM170.358 37H169.462C167.926 37 166.454 36.808 165.814 35.464C165.494 34.76 165.366 33.8 165.366 32.712C165.366 24.904 171.958 8.52 172.982 6.152C173.302 5.64 173.942 5.384 174.71 5.384C176.374 5.384 178.486 6.472 178.486 7.368L178.422 7.56C177.654 9.608 170.934 27.208 170.23 33.8L170.166 35.08C170.166 35.464 170.166 35.72 170.294 35.72H170.422C171.254 35.72 172.47 34.056 172.854 33.544C174.838 30.792 177.014 26.12 178.294 23.432C178.422 23.112 178.614 23.048 178.87 23.048C178.934 23.048 179.062 23.048 179.19 23.112C179.382 23.24 179.51 23.432 179.51 23.624C179.51 23.752 179.51 23.816 179.446 23.944C178.102 26.888 175.99 31.368 173.814 34.248C173.11 35.272 171.702 36.936 170.358 37ZM191.465 37.064C189.225 37.064 187.561 36.488 187.561 33.352C187.689 28.616 191.401 18.376 191.401 17.672C191.401 17.352 191.337 17.224 191.145 17.224C190.953 17.224 190.697 17.48 190.505 17.672C186.985 20.936 183.081 27.528 181.929 29.576C181.097 32.52 180.457 35.016 180.457 36.36C180.457 37 179.945 37 179.177 37C177.065 37 175.785 36.616 175.593 34.632C175.593 29.576 182.569 10.056 184.169 6.152C184.361 5.64 185.001 5.448 185.833 5.448C187.433 5.448 189.609 6.344 189.609 7.368L189.545 7.624C188.777 9.48 185.833 17.416 183.465 24.648C184.361 23.24 185.449 21.64 186.601 20.168C188.649 17.672 191.145 14.408 193.897 14.408C195.497 14.408 196.841 15.368 196.841 17.096L196.777 17.864C195.881 22.28 192.809 30.856 192.809 34.568C192.809 35.336 192.937 35.72 193.193 35.72C194.985 35.592 196.329 32.712 200.425 23.432C200.553 23.176 200.745 23.048 201.001 23.048C201.321 23.048 201.641 23.304 201.641 23.624L201.577 23.944C197.097 34.12 195.689 36.872 193.257 37L191.465 37.064ZM205.078 32.2C206.998 32.136 210.454 25.416 211.094 23.816C211.414 22.984 211.99 21.256 211.99 19.848C211.99 18.952 211.734 18.248 211.03 18.056L210.646 17.992C207.766 17.992 204.118 26.696 204.118 30.472C204.118 31.56 204.438 32.2 205.078 32.2ZM214.614 37H213.846C212.246 37 210.582 36.808 209.878 35.464C209.494 34.824 209.366 33.864 209.366 32.776C209.366 32.136 209.43 31.496 209.494 30.728C208.022 33.288 205.974 35.784 203.478 35.784H203.35C200.278 35.72 198.998 33.16 198.998 29.832C198.998 23.496 203.606 14.472 209.942 14.472H210.006C211.67 14.472 213.014 15.048 213.782 16.264L214.23 15.112C214.55 14.6 215.126 14.408 215.894 14.408C217.366 14.408 219.35 15.304 219.35 16.328L219.286 16.584C218.454 18.632 214.294 29.64 214.166 34.248C214.166 35.144 214.23 35.72 214.55 35.72C216.662 35.656 220.694 27.464 222.55 23.432C222.678 23.112 222.87 23.048 223.126 23.048L223.446 23.112C223.638 23.176 223.766 23.368 223.766 23.624C223.766 23.752 223.766 23.752 223.702 23.944C221.59 28.488 217.622 36.872 214.614 37Z" fill="#31000E"/>
</g>
<defs>
<filter id="filter0_d_84_34" x="0.46875" y="0.071991" width="227.297" height="48.064" filterUnits="userSpaceOnUse" color-interpolation-filters="sRGB">
<feFlood flood-opacity="0" result="BackgroundImageFix"/>
<feColorMatrix in="SourceAlpha" type="matrix" values="0 0 0 0 0 0 0 0 0 0 0 0 0 0 0 0 0 0 127 0" result="hardAlpha"/>
<feOffset dy="4"/>
<feGaussianBlur stdDeviation="2"/>
<feComposite in2="hardAlpha" operator="out"/>
<feColorMatrix type="matrix" values="0 0 0 0 0 0 0 0 0 0 0 0 0 0 0 0 0 0 0.1 0"/>
<feBlend mode="normal" in2="BackgroundImageFix" result="effect1_dropShadow_84_34"/>
<feBlend mode="normal" in="SourceGraphic" in2="effect1_dropShadow_84_34" result="shape"/>
</filter>
</defs>
</svg>
